/* XPM */
static char *result[] = {
/* columns rows colors chars-per-pixel */
"56 48 15 1 ",
"  c #211F30",
". c #211F31",
"X c #221E30",
"o c #066029",
"O c #9C1B4D",
"+ c #CC2F49",
"@ c #CC3048",
"# c #E44A4A",
"$ c #27860F",
"% c #72A11C",
"& c #A4CC42",
"* c gray92",
"= c #ECECEC",
"- c gray93",
"; c None",
/* pixels */
";;;;;;;;;;;;;;;;;;;;;;;;;;;;;;;;;;;;;;;;;;;;;;;;;;;;;;;;",
";;;;;;;;;;;;;;;;;;;;;;;;;;;;;;;;;;;;;;;;;;;;;;;;;;;;;;;;",
";;;;;;;;;;;;;;;;;;;;;;;;;;;;;;;;;;;;;;;;;;;;;;;;;;;;;;;;",
";;;;     .;;;;;;              ;;;;;;;         ;;;;;;;;;;",
";;;;      ;;;;;;              ;;;;;;X         ;;;;;;;;;;",
";;  ######  ;;  %%%%%%%%%%%%%% ;;;; %%%%%%%%%%  ;;;;;;;;",
";;  ######  ;;  %%%%%%%%%%%%%%  ;*  %%%%%%%%%%  ;;;;;;;;",
";;  @@@@@@OO                                    ;;;;;;;;",
";;  +@@@@@OO                                    ;;;;;;;;",
";;;;    OO  OO@@######@@##@@@@@@@@@@@@##@@######  ;;;;;;",
";;;;    OO  OO@@######@@##@@@@@@@@@@@@##@@######  ;;;;;;",
";;  @@OO        OOOOOO@@OO@@@@@@@@@@@@OO@@OOOO    ;;;;;;",
";;  @@OO        OOOOOO@@OO@@@@@@@@@@@@OO@@OOOO    ;;;;;;",
";;  ##@@  OOOO@@@@@@@@@@@@@@@@@@@@@@@@@@@@@@@@@@  ;;;;;;",
";;  ##@@  OOOO@@@@@@@@@@@@@@@@@@@@@@@@@@@@@@@@@@  ;;;;;;",
";;  ##@@                                          ;;;;;;",
";;  ##@@                                          ;;;;;;",
";;  ##    $$$$$$$$oooooooooooooo$$oooooooooooooo$$  ;;;;",
";;  ##    $$$$$$$$oooooooooooooo$$oooooooooooooo$$  ;;;;",
";;;;    $$%%%%%%%%%%%%%%%%%%%%%%%%%%%%%%%%%%%%%%%%  ;;;;",
";;;;    $$%%%%%%%%%%%%%%%%%%%%%%%%%%%%%%%%%%%%%%%%  ;;;;",
";;;;;;  %%%%%%%%%%oooooooooooooooooooooooooooo%%%%  ;;;;",
";;;;;;  %%%%%%%%%%oooooooooooooooooooooooooooo%%%%  ;;;;",
";;;;;;  %%%%%%%%$$%%%%%%%%%%%%%%%%%%%%%%%%%%%%$$%%  ;;;;",
";;;;;;  %%%%%%%%$$%%%%%%%%%%%%%%%%%%%%%%%%%%%%$$%%  ;;;;",
";;;;;;  %%%%%%$$      %%%%$$$$$$$$$$$$$$%%%%%%%%%%  ;;;;",
";;;;;;. %%%%%%$$      %%%%$$$$$$$$$$$$$$%%%%%%%%%%  =;;;",
";;;;;;;;  $$%%%%%%%%$$  %%%%%%%%%%%%%%%%%%%%%%$$  $$  ;;",
";;;;;;;;  $$%%%%%%%%$$  %%%%%%%%%%%%%%%%%%%%%%$$  $$  ;;",
";;;;;;;;;;    %%%%%%$$  %%%%%%%%%%%%%%%%%%$$$$  $$$$ ;;;",
";;;;;;;;;;    %%%%%%$$  %%%%%%%%%%%%%%%%%%$$$$  $$$$ ;;;",
";;;;;;;;;;;;  %%%%%%$$  %%%%%%%%%%%%%%%%%%    $$$$$$ ;;;",
";;;;;;;;;;;;  %%%%%%$$  %%%%%%%%%%%%%%%%%%    $$$$$$X;;;",
";;;;;;;;;;;;  %%$$$$  &&&&&&&&&&&&&&&&&&%%%%  $$$$  ;;;;",
";;;;;;;;;;;;  %%$$$$  &&&&&&&&&&&&&&&&&&%%%%  $$$$ ;;;;;",
";;;;;;;;;;;;  $$    &&&&&&&&&&&&&&&&&&&&&&%%      ;;;;;;",
";;;;;;;;;;;;  $$    &&&&&&&&&&&&&&&&&&&&&&%%     ;;;;;;;",
";;;;;;;;;;;;  $$%%%%%%%%  %%&&&&&&&&&&&&%%%%%%  ;;;;;;;;",
";;;;;;;;;;;;  $$%%%%%%%%  %%&&&&&&&&&&&&%%%%%%  ;;;;;;;;",
";;;;;;;;;;;;;;  $$$$%%%%              $$$$%%%%  ;;;;;;;;",
";;;;;;;;;;;;;;  $$$$%%%%              $$$$%%%%  ;;;;;;;;",
";;;;;;;;;;;;;;;;  $$%%%%  ;;;;;;;;;;;;  $$%%%%  ;;;;;;;;",
";;;;;;;;;;;;;;;;  $$%%%%  ;;;;;;;;;;;;  $$%%%%  ;;;;;;;;",
";;;;;;;;;;;;;;;;;;      ;;;;;;;;;;;;;;;;      ;;;;;;;;;;",
";;;;;;;;;;;;;;;;;;      ;;;;;;;;;;;;;;;;      ;;;;;;;;;;",
";;;;;;;;;;;;;;;;;;;;;;;;;;;;;;;;;;;;;;;;;;;-;;;;;;;;;;;;",
";;;;;;;;;;;;;;;;;;;;;;;;;;;;;;;;;;;;;;;;;;;;;;;;;;;;;;;;",
";;;;;;;;;;;;;;;;;;;;;;;;;;;;;;;;;;;;;;;;;;;;;;;;;;;;;;;;"
};