/* XPM */
static char *result[] = {
/* columns rows colors chars-per-pixel */
"60 60 21 1 ",
"  c #201E30",
". c #211E30",
"X c #201F30",
"o c #211F30",
"O c #201E31",
"+ c #211E31",
"@ c #211F31",
"# c #221F30",
"$ c #066029",
"% c #9C1B4D",
"& c #CC3048",
"* c #CC3049",
"= c #E3494A",
"- c #E44A4A",
"; c #27860F",
": c #278710",
"> c #72A11C",
", c #72A11E",
"< c #A4CC42",
"1 c #ECECEC",
"2 c None",
/* pixels */
"222222222222222222222222222222222222222222222222222222222222",
"222222222222222222222222222222222222222222222222222222222222",
"222222222222222222222222222222222222222222222222222222222222",
"22222222oooooo222222oooooooooo2222222ooooo222222222222222222",
"22222222oooooo222222oooooooooo222222oooooo222222222222222222",
"222222oo------oo22oo>>>>>>>>>>o2222o>>>>>>oo2222222222222222",
"222222oo------oo22oo>>>>>>>>>>oO21oo>>>>>>oo2222222222222222",
"222222oo&&&&&&%%oooooooooooooooooooooooooooo2222222222222222",
"222222oo*&&&&&%%oooooooooooooooooooooooooooo2222222222222222",
"22222222oooo%%oo%%&&------&&--&&&&--&&------oo22222222222222",
"22222222oooo%%oo%%&&------&&--&&&&--&&------oo22222222222222",
"222222oo&&%%oooooooo%%%%%%&&%%&&&&%%&&%%%%oooo22222222222222",
"222222oo&&%%oooooooo%%%%%%&&%%&&&&%%&&%%%%oooo22222222222222",
"222222oo--&&oo%%%%&&&&&&&&&&&&&&&&&&&&&&&&&&oo22222222222222",
"222222oo--&&oo%%%%&&&&&&&&&&&&&&&&&&&&&&&&&&oo22222222222222",
"222222oo--&&oooooooooooooooooooooooooooooooooo22222222222222",
"222222oo--&&oooooooooooooooooooooooooooooooooo22222222222222",
"222222oo--oooo;;;;;;;;;;;;;;;;;;;;;;;;;;;;;;;;oo222222222222",
"222222oo=-oooo;;;;;;;;;;;;;;;;;;;;;;;;;;;;;;;;o2222222222222",
"22222222oooo;;>>>>>>>>$$$$$$$$$$>>$$$$$$$$$$>>o2222222222222",
"22222222oooo;;>>>>>>>>$$$$$$$$$$>>$$$$$$$$$$>>o2222222222222",
"2222222222oo>>>>>>>>>>>>>>>>>>>>>>>>>>>>>>>>>>o2222222222222",
"2222222222oo>>>>>>>>>>>>>>>>>>>>>>>>>>>>>>>>>>o2222222222222",
"2222222222oo>>>>>>>>>>$$$$$$$$$$$$$$$$$$$$>>>>oX222222222222",
"2222222222oo>>>>>>>>>>$$$$$$$$$$$$$$$$$$$$>>>>oo222222222222",
"2222222222oo>>>>>>>>;;>>>>>>>>>>>>>>>>>>>>;;>>oo222222222222",
"2222222222oo>>>>>>>>;;>>>>>>>>>>>>>>>>>>>>;;>>oo222222222222",
"2222222222oo>>>>>>;;oooooo>>;;;;;;;;>>>>>>>>>>oo222222222222",
"2222222222#o,>>>>>;;oooooo>>;;;;;;;;>>>>>>>>>>oo222222222222",
"222222222222+o;;>>>>>>>>;;oo>>>>>>>>>>>>>>;;oo;;oo2222222222",
"222222222222#o:;>>>>>>>>;;oo>>>>>>>>>>>>>>;;oo;;oo2222222222",
"22222222222222oooo>>>>>>;;oo>>>>>>>>>>;;;;oo;;;;oo2222222222",
"22222222222222#ooo>>>>>>;;oo>>>>>>>>>>;;;;oo;;;;oo2222222222",
"2222222222222222.o>>>>>>;;oo>>>>>>>>>>oooo;;;;;;o 2222222222",
"2222222222222222oo>>>>>>;;oo>>>>>>>>>>oooo;;;;;;o22222222222",
"2222222222222222oo>>;;;;oo<<<<<<<<<<>>>>oo;;;;oo222222222222",
"2222222222222222oo>>;;;;oo<<<<<<<<<<>>>>oo;;;;oo222222222222",
"2222222222222222oo;;oooo<<<<<<<<<<<<<<>>oooooo22222222222222",
"2222222222222222oo;;oooo<<<<<<<<<<<<<<>>oooooo22222222222222",
"2222222222222222oo;;>>>><<<<<<<<<<<<<<>>oo222222222222222222",
"2222222222222222oo;;>>>><<<<<<<<<<<<<<>>oo222222222222222222",
"2222222222222222oo;;>>>><<<<<<<<<<<<<<>>oo222222222222222222",
"2222222222222222oo;;>>>><<<<<<<<<<<<<<>>oo222222222222222222",
"2222222222222222oo;;>>>><<<<<<<<<<<<<<>>oo222222222222222222",
"2222222222222222oo;;>>>><<<<<<<<<<<<<<>>oo222222222222222222",
"2222222222222222oo;;>>>>>>>>oo>><<<<>>>>>>oo2222222222222222",
"2222222222222222oo;;>>>>>>>>oo>><<<<>>>>>>oo2222222222222222",
"222222222222222222oo;;;;>>>>oooooo;;;;>>>>oo2222222222222222",
"222222222222222222o@;;;;>>>>oooooo;;;;>>>>oo2222222222222222",
"22222222222222222222oo;;>>>>oo2222oo;;>>>>oo2222222222222222",
"22222222222222222222Xo;;>>>>oo2222oo;;>>>>oo2222222222222222",
"2222222222222222222222oooooo22222222oooooo222222222222222222",
"2222222222222222222222oooooo22222222oooooo222222222222222222",
"222222222222222222222222222222222222222222222222222222222222",
"222222222222222222222222222222222222222222222222222222222222",
"222222222222222222222222222222222222222222222222222222222222",
"222222222222222222222222222222222222222222222222222222222222",
"222222222222222222222222222222222222222222222222222222222222",
"222222222222222222222222222222222222222222222222222222222222",
"222222222222222222222222222222222222222222222222222222222222"
};