/* XPM */
static char *result[] = {
/* columns rows colors chars-per-pixel */
"49 67 120 2 ",
"   c #461D01",
".  c #441E0B",
"X  c #4B2400",
"o  c #46210E",
"O  c #4B250B",
"+  c #4C2A0D",
"@  c #472412",
"#  c #492613",
"$  c #4C2B15",
"%  c #4D2D1A",
"&  c #502E16",
"*  c #502F1A",
"=  c #4F321E",
"-  c #503115",
";  c #51331D",
":  c #56381F",
">  c #58381F",
",  c #4D2F20",
"<  c #4F3222",
"1  c #523622",
"2  c #563B25",
"3  c #593D26",
"4  c #543A2A",
"5  c #5A3E29",
"6  c #5D432B",
"7  c #5F482F",
"8  c #574030",
"9  c #5B4433",
"0  c #5C4837",
"q  c #5E4A3A",
"w  c #61462E",
"e  c #61482E",
"r  c #624632",
"t  c #634B32",
"y  c #694D35",
"u  c #624D3B",
"i  c #694E39",
"p  c #675135",
"a  c #695237",
"s  c #63503E",
"d  c #6B5439",
"f  c #6F593D",
"g  c #70573C",
"h  c #705B3E",
"j  c #624F41",
"k  c #655443",
"l  c #695543",
"z  c #695946",
"x  c #6A5748",
"c  c #6C5C4B",
"v  c #725D41",
"b  c #755D4D",
"n  c #785F4E",
"m  c #6F5E50",
"M  c #725F50",
"N  c #6F614F",
"B  c #766145",
"V  c #786346",
"C  c #72614D",
"Z  c #7A644B",
"A  c #7F6A4D",
"S  c #6E6150",
"D  c #736453",
"F  c #7A6453",
"G  c #756857",
"H  c #796A57",
"J  c #756758",
"K  c #776A5A",
"L  c #7A6D5C",
"P  c #7D705F",
"I  c #7E7262",
"U  c #816C4E",
"Y  c #826E51",
"T  c #836D5B",
"R  c #847154",
"E  c #857359",
"W  c #89765A",
"Q  c #8B7A5D",
"!  c #866F62",
"~  c #886E61",
"^  c #827565",
"/  c #8A7365",
"(  c #857867",
")  c #8E7D61",
"_  c #827768",
"`  c #8A7469",
"'  c #857B6B",
"]  c #897D6D",
"[  c #8A7E70",
"{  c #947777",
"}  c #957976",
"|  c #8C806F",
" . c #918164",
".. c #8E8373",
"X. c #928576",
"o. c #998476",
"O. c #938977",
"+. c #9D8977",
"@. c #918778",
"#. c #998579",
"$. c #958B7C",
"%. c #9C8B7D",
"&. c #A08E7E",
"*. c #9A8E81",
"=. c #9B9284",
"-. c #9F9789",
";. c #A18F81",
":. c #A39183",
">. c #A49489",
",. c #A2998B",
"<. c #B5A89E",
"1. c #B7ACA3",
"2. c #BDB3AE",
"3. c #CBC5BF",
"4. c #CEC7C3",
"5. c #CFC8C5",
"6. c #D1CAC6",
"7. c #DCD8D6",
"8. c #ECECEC",
"9. c None",
/* pixels */
"9.9.9.9.9.9.9.9.9.9.9.9.9.9.9.9.9.9.9.9.9.9.9.9.9.9.9.9.9.9.9.9.9.9.9.9.9.9.9.9.9.9.9.9.9.9.9.9.9.",
"9.9.9.9.9.9.9.9.9.9.9.9.9.9.9.9.9.9.9.9.9.9.9.9.9.9.9.9.9.9.9.9.9.9.9.9.9.9.9.9.9.9.9.9.9.9.9.9.9.",
"9.9.9.9.9.6.6.6.9.9.9.9.9.9.9.9.9.9.9.9.9.9.9.9.9.9.9.9.9.9.9.9.9.9.9.9.9.9.9.9.9.9.9.9.9.9.9.9.9.",
"9.9.9.9.Y w w w w 1.9.9.9.9.9.9.9.9.9.9.9.9.9.9.9.9.9.9.9.9.9.9.9.9.9.9.9.9.l w w w w 3.9.9.9.9.9.",
"9.9.9.T ..X.| | l i T U n F n n b n b b b n n n b n M b n M n b n n n n F n 6 T ..| O.P <.9.9.9.9.",
"9.9.9.i $.=.$.$.l y i g v v n v V V b V Z Z Z F Z V Z V v v b v v v v v h g 6 ^ $.$.-.C ;.9.9.9.9.",
"9.9.9.d %.,.=.$.i g U Y W Q Q ) ) )  .) Y R Y Y Y Y F Y ) W Q W W E Y Y U U 5 ` &.$.-.F >.9.9.9.9.",
"9.9.9.i $.,.,.=.l g U Y W Q Q Q ) )  .T ; 5 5 5 5 5 * v ) Q ) W Q E R U U V 5 X.,.,.,.F >.9.9.9.9.",
"9.9.9.1 L ^ P L 5 w v l v b v U v U v g ; / J M ' ' u 5 U v V v v v v g i i w n ! I ^ u +.9.9.9.9.",
"9.9.9.* D H C C > * > > > > > > 5 5 5 1 ; [ ..I F } x O 3 5 5 3 3 3 > 2 2 2 * v Z D L 5 #.9.9.9.9.",
"9.9.9.* D H C D 4 * * * * * * * * * & & 1 ..=...L $.b   * * * % * * * * & * # l D D L 5 o.9.9.9.9.",
"9.9.9.% D H C C 1 > 5 5 5 5 5 > 3 3 3 > 1 } *.*.*.*.x X 3 3 3 3 5 3 3 4 2 2 & l D M L 9 o.9.9.9.9.",
"9.9.9.* M J b N > * 3 3 5 > 5 5 3 3 3 1 , D L L H L 0 $ 2 2 2 2 3 1 3 > 3 > $ s D Z L 5 #.9.9.9.9.",
"9.9.9.% M D c c > > 6 5 5 w w 5 6 6 w 3 5 5 4 5 6 5 4 5 6 3 3 6 3 3 5 3 3 2 $ l C m L 4 #.9.9.9.9.",
"9.9.9.% c D b x 1 > 6 6 6 6 w w w 6 6 w 7 1 * - - $ 3 7 6 6 6 3 5 6 3 3 3 3 $ s c N G 5 #.9.9.9.9.",
"9.9.9.% b M x x 1 , 5 5 6 6 6 5 6 6 6 6 6 6 6 6 7 6 6 6 6 6 6 6 5 3 3 3 3 1 # u c c D 5 } 9.9.9.9.",
"9.9.9.% c S z z < ; 6 6 6 3 6 6 6 6 6 6 3 6 6 3 5 6 6 3 6 3 6 3 3 6 5 2 2 2 # j c z D 4 o.9.9.9.9.",
"9.9.9.$ x m z z < 1 6 6 7 7 7 w w 7 7 7 w 7 7 7 6 7 w 7 w w 7 e 7 9 6 6 6 5 $ q z z D 4 o.9.9.9.9.",
"9.9.9.$ z N z k = : 7 7 6 w e e t t t t t w w t t t t t t 9 e t e t 7 6 6 5 $ q z z D 4 o.9.9.9.9.",
"9.9.9.$ z c k k = ; 7 e w e e t e e e t t t t t t t t t t t t t t e 7 6 6 6 $ 0 z z S 4 o.9.9.9.9.",
"9.9.9.$ x c k k < 1 6 e e t t t e e e t t t t t t t t t t t t t t t t 7 6 5 $ 0 z k S 4 o.9.9.9.9.",
"9.9.9.% z z k k % 1 6 9 e t t t p p p t t t y y y t t t t y t t t t e 7 7 6 # 0 k z c 4 #.9.9.9.9.",
"9.9.9.% k z s s % 2 p a a d a a a a d d d d d d a d d a d d a a d d a t t 9 $ 0 k k c 4 #.9.9.9.9.",
"9.9.9.% k k s s % 6 a f f f f f f h f f f h h h h h h f f g h d d d d a a t $ 8 k k z 4 #.9.9.9.9.",
"9.9.9.$ j z u u % 3 a f f f h f h h h h h h h h h h h h f h h f h g g d a p $ 9 s k z 4 $.9.9.9.9.",
"9.9.9.% u z u q , 5 d f f h h h h h h h v h h h h h h h h h h h h h g d a t $ 9 s k k 1 #.9.9.9.9.",
"9.9.9.$ q j 0 0 $ 6 a f h f h h h h h h h h h h h h h h v h v v h h g d a p % 9 s q k < #.9.9.9.9.",
"9.9.9.1 5 5 2 4 % 6 f z h v h h B v B B v B v v B B B B v v v v v v v h f a % = < < 4 % *.9.9.9.9.",
"9.9.9.5 u l j u < 7 d d f d f f h h f v v v v v h h h v v v v v v h v g f a % 4 9 9 9 , %.9.9.9.9.",
"9.9.9.4 ^ X...' 5 = 3 2 5 6 6 6 6 6 7 7 7 7 w r e e e 9 e e w 6 w w w 6 3 3   I X.....q { 9.9.9.9.",
"9.9.9.1 c G J S 1 @ # # # $ $ $ $ $ $ $ # % % $ $ $ $ $ $ $ $ $ $ $ $ % $ $ # z H G J 0 ;.9.9.9.9.",
"9.9.9.1 5 8 6 6 < 2 9 7 9 9 9 t t t 0 t t t t y y p y y y t u t t r r 9 9 6 % 5 9 9 6 5 >.9.9.9.9.",
"9.9.9.; 0 t 9 9 1 e f f f f h h h f h f h h B h B B B h h h h h v v v f d a * 5 t t s 5 >.9.9.9.9.",
"9.9.9.1 P P G Z 2 2 e e 7 e e e e e e e t e 7 e e e e e t t t e w r e e e w $ z G G ^ 0 #.8.9.9.9.",
"9.9.9.; P I G G 2 2 e e e 7 6 7 e 7 e e e 7 e e e e e e e t 7 e w e e e e 7 $ c L P ( 0 o.8.9.9.9.",
"9.9.9.1 I ^ P L 4 2 e 6 w w 7 6 7 7 e e 7 7 7 e e e e e e e 7 7 w w e 7 e 7 $ b P P ] u o.8.9.9.9.",
"9.9.9.2 ^ ] ^ P 5 1 7 6 6 6 6 6 6 6 6 6 6 6 2 6 6 7 6 6 6 6 6 6 6 6 6 6 7 6 $ C ^ ^ | s o.8.9.9.9.",
"9.9.9.2 ' | ^ ^ 5 1 5 5 2 6 2 2 : 6 : : 6 2 2 2 : 2 2 2 2 6 2 2 8 2 2 6 3 2 $ J ( ( ..k +.8.9.9.9.",
"9.9.9.5 ' ..( ( 7 ; 5 3 4 8 3 5 2 2 8 : 2 2 6 2 2 2 2 2 2 2 2 6 2 2 2 2 5 2 $ H ] ( X.x &.8.9.9.9.",
"9.9.9.r | ..| ( 9 ; 6 8 2 6 2 3 2 8 : 8 2 2 2 2 2 2 2 6 2 2 2 2 1 6 3 3 3 3 & H ] ] O.x *.8.9.9.9.",
"9.9.9.9 ] X.| ] r 2 5 5 5 3 3 3 2 6 2 2 8 2 2 2 8 : 2 8 : 2 2 2 6 8 : 6 3 3 * L ....O.x ;.8.9.9.9.",
"9.9.9.r ] $...| t 1 5 5 3 3 3 3 2 : : 8 : 2 2 2 = 8 : 2 8 : : 8 ; 1 1 : 2 2 & P ....$.c ;.8.9.9.9.",
"9.9.9.r ..$...| u - 1 2 2 1 1 1 = : 2 = = 2 = = : : : = = = = : 1 ; ; ; ; 1 * I @...%.c :.9.9.9.9.",
"9.9.9.r ..$...| u - 1 1 : ; ; 1 = : = 2 = : = : : = = = = - = = ; ; ; = ; ; - I ....$.b :.9.9.9.9.",
"9.9.9.r ..$.....u - 2 1 1 : : = : : = 2 2 : = : = = = = = = = = = ; ; ; = ; - ^ O.@.*.c ;.9.9.9.9.",
"9.9.9.r ..%.O...p = 1 1 1 1 = : = : = : = = 2 = : = : 2 : = = = ; = = ; = 1 : ^ @.O.*.c :.9.9.9.9.",
"9.9.9.r ..*.O.@.a : 1 ; : 1 = : = 8 = = = = = = = = = = = = = = = = = ; = = : ^ $.@.=.b ;.9.9.9.9.",
"9.9.9.t $.=.O...s $ # @ @ @ @ o o = = . @ . O @ o o @ . + 2 $ o o o o o o # : ^ O.$.=.M :.9.9.9.9.",
"9.9.9.u *.-.*.*.j 4 d v v v v v h 2 7 h f f f h h h h B f = p h v h v h v h 2 ] =.=.-.M &.9.9.9.9.",
"9.9.9.5 @.-.*...q 9 V U U U A A U 2 a R A A A A A A A H C $ B A Z A A U U Z : _ *.$.*.b &.9.9.9.9.",
"9.9.9.& I I L L 5 6 a z h v h v B 2 p V f f f f h f h B B = h B h h h h v v - c L I ] u &.9.9.9.9.",
"9.9.9.& I I I L 5 3 a B v h v v V 2 7 V h h h h h h h V B - B V h h h h v h = S I I ] s &.9.9.9.9.",
"9.9.9.* L I J J 3 : a B B h v B B 2 p B f f h h h h h B v - h V h v v h B f = c K K I k ;.9.9.9.9.",
"9.9.9.* K I J J 5 2 p h f h f g v : 7 B f f f f f f f v z - h B d f f h f f $ z J J I q +.9.9.9.9.",
"9.9.9.% J K S S 2 1 t d a f a f v 2 7 v p a a d p a a v h - f h p d d d f a = z G G I 9 #.9.9.9.9.",
"9.9.9.* m J S m < 3 p f d a d d v 2 7 v a d d d a a a h z - f f a a d d d p $ k S S J 9 #.9.9.9.9.",
"9.9.9.$ N D N N 1 2 p a d d a d h : 7 f p d p p f p p f f % f h d d d d f a $ s N c D 6 #.9.9.9.9.",
"9.9.9.= z N z N < 1 7 a a a p d f = 6 f p p p p p p p f d = d f p p a a a p $ u c z S 8 #.9.9.9.9.",
"9.9.9.% N N z z < : 7 p t p t p f 8 6 f p p 7 p p t p p p = p f p p p p p p $ u c c J 4 X.9.9.9.9.",
"9.9.4.= z N z z < 1 7 p p t t p f 1 6 p p 7 p t t p t p p % p d p p e p p t - q c c S 4 o.9.9.9.9.",
"9.9.5.% 4 4 1 1 + 8 7 0 7 7 7 t f 2 8 p 7 7 0 0 7 7 t p p $ t p 7 7 7 0 7 7 + $ 1 1 2 % *.9.9.9.9.",
"9.9.5.% S K S S D q + $ + - - - 8 + X - + + - - - + + - - . - = $ - $ $ - 8 S G S J J 4 #.9.9.9.9.",
"9.9.4.$ K I I I I k # q q q q q j j k k z k k k k k k k k j j j s q 0 q 4 < I I I I _ 8 { 9.9.9.9.",
"9.9.5.$ j S S S G 0 0 L K I I I I ' ' [ ' ' [ [ [ ' ' ' ' ' ' ' I I I I S % G S c c c 4 #.9.9.9.9.",
"9.9.4.% q k j j G q 1 c k k x k z z c c m m c c c c m c c c c c x x c x q < J c j j k < *.9.9.9.9.",
"9.9.4.% , 1 < 1 8 1 , < < 4 4 < 4 4 4 < 1 1 < 4 4 4 4 1 < 4 < 4 4 1 4 4 < % 4 4 < < < % @.9.9.9.9.",
"9.9.7.[ ` ` ` ` ! ` ` ` ` ` ` ` ! ` _ / / / / ` _ ! ` ` ` ! _ ` ` / / / _ [ ! ! ` ` ` ^ 2.9.9.9.9."
};