/* XPM */
static char *result[] = {
/* columns rows colors chars-per-pixel */
"69 57 47 1 ",
"  c #211F2F",
". c #211E30",
"X c #201F30",
"o c #211F30",
"O c #211E31",
"+ c #201F31",
"@ c #211F31",
"# c #221E30",
"$ c #221F30",
"% c #212030",
"& c #212031",
"* c #616779",
"= c #626679",
"- c #636679",
"; c #626779",
": c #636779",
"> c #61667A",
", c #60677A",
"< c #61677A",
"1 c #61677B",
"2 c #62667A",
"3 c #63667A",
"4 c #62677A",
"5 c #63677A",
"6 c #62677B",
"7 c #64677A",
"8 c #616879",
"9 c #626879",
"0 c #636879",
"q c #61687A",
"w c #62687A",
"e c #63687A",
"r c #64687A",
"t c #CE8B17",
"y c #E1C934",
"u c #E0CA34",
"i c #E1CA34",
"p c #848D99",
"a c #F6EC8A",
"s c #F7EC8A",
"d c #AFBBC3",
"f c #D8E1E3",
"g c #D8E0E4",
"h c #D8E1E4",
"j c #D8E2E4",
"k c white",
"l c None",
/* pixels */
"lllllllllllllllllllllllllllllllllllllllllllllllllllllllllllllllllllll",
"lllllllllllllllllllllllllllllllllllllllllllllllllllllllllllllllllllll",
"llllllllllllllllllllllllloooooooooooooooooooollllllllllllllllllllllll",
"lllllllllllllllllllllllllOooooooooooooooooooollllllllllllllllllllllll",
"lllllllllllllllllllll&+ #kkkksasssssskkkkkkkkO$oollllllllllllllllllll",
"lllllllllllllllllllllooookkkksssssssskkkkkkkkoooollllllllllllllllllll",
"lllllllllllllllllll oiikksssssssssssssssssssskkiioollllllllllllllllll",
"lllllllllllllllllllXoiikksssssssssssssssssssskkiioollllllllllllllllll",
"lllllllllllllllllooiissttttttttttssssttttttttttssii@ollllllllllllllll",
"lllllllllllllllllooiissttttttttttssssttttttttttssiioollllllllllllllll",
"lllllllllllllllllooiissttkkkkkkttssssttkkkkkkttssiioollllllllllllllll",
"lllllllllllllllllooiissttkkkkkkttssssttkkkkkkttssiioollllllllllllllll",
"lllllllllllllll&oiissssiittttttiissssiittttttiissssiio&llllllllllllll",
"lllllllllllllllooiissssiittttttiissssiittttttiissssiio%llllllllllllll",
"lllllllllllllllooiissssssssssssssssssssssssssssssssiio+llllllllllllll",
"lllllllllllllllooiissssssssssssssssssssssssssssasssiioOllllllllllllll",
"lllllllllllllllooiissssssttttttttttttttttttttssssssiioollllllllllllll",
"lllllllllllllllooiissssssttttttttttttttttttttssssssiioollllllllllllll",
"lllllllllllllllooiissssiissssssssssssssssssssiissssiioollllllllllllll",
"lllllllllllllllooiissssiissasssssssssssasssssiissssiioollllllllllllll",
"llllllllllll65=.oiissssssoooooooooooooooooooossssssiioo*4;3llllllllll",
"lllllllllll;444ooiisaasssooooooooooooooooXooossssssiioo422wllllllllll",
"lllllllll7<kkhhooiiiiooooooooooooooooooooooooooooiiiioohhkk1-llllllll",
"lllllllll44kkhhooiiiiooooooooooooooooooooooooooooiiiioohhkk47llllllll",
"lllllll3*kkkkhhooiiooooooooiiiiiiiiiiiiiuiioooXooooiioohhkkkk;rllllll",
"lllllll44kkkkhhooiiooooooooiiiiiiiiiiiiiiiyooooooooiioohhkkkk45llllll",
"lllll;0kkkkkkhhooooooooiiiisssssssssssssassiiiioooooooohhkkkkkk4lllll",
"lllll44kkkkkkhhooooooooiiiissssssssssssssssiiiioooooooohhkkkkkk4:llll",
"lll39kkkkkkkkhhooooooiissssssssssssssssssssssssiioooooohhkkkkkkkk5wll",
"lll44kkkkkkkkhhooooooiissssssssssssssssssssssssiioooooohhkkkkkkkk44ll",
"ll4kkkkkkkkkkppooooiissssooooooooo.oooooooooossssiiooooppkkkkkkkkkk,l",
"ll4kkkkkkkkkkppooooiussasoooooooooooooooooooossssiiooooppkkkkkkkkkk*l",
"ll4kkkkkkkkddhhooyiiiooooooooooooooooooooooooooooiiiioohhddkkkkkkkk4l",
"ll4kkkkkkkkddhhooiiiiooooooooooooooooooooooooooooiiiioohhddkkkkkkkk4l",
"ll4kkkkkkddkkhhooiiooooooooiiiiiiiiiiiiiiiiooooooooiioohhkkddkkkkkk4l",
"ll4kkkkkkddkkhhooiiooooooooiiiiiiiiiiiiiiiiooooooooiioohhkkddkkkkkk4l",
"ll4kkkkhhkkkkhhooooooooiiiissssssssssssssssiiiioooooooohhkkkkhhkkkk<l",
"ll4kkkkhhkkkkhhooooooooiiiissssssssssssssssiiiioooooooohhkkkkhhkkkkwl",
"ll=hhkkkkkkhhhhooooooiissssaaiittttttttiissssssiioooooohhhhkkkkkkhh4l",
"ll5hhkkkkkkhhhhooooooiissssssiittttttttiissssssiiooooo hhhhkkkkkkhh4l",
"lll;4hhhhhhhh41ooooiissssssiitthhhhhhhhttiissssssiioooo;4hhhhhhhh4<ll",
"lllwejhhhhhhf58ooooiissasssiitthhhhhhhhttiissssssiioooo><hhhhhhhh4wll",
"lllll*=5;**;*llllooiissssiioohhhhkkkkkkhhttiissssiioollll<65;*84*llll",
"lllllq;q;2<;=llllooiissssiioohhhhkkkkkkhhttyissssiioollll7-;*4*;3llll",
"lllllllllllllllll@oiiiissiioohhkkkkkkkkhhooiissiiiioollllllllllllllll",
"lllllllllllllllllooiiiissiio$hhkkkkkkkkhhooiissiiiioollllllllllllllll",
"lllllllllllllllllllooiiiiiio#hhkkkkkkkkhhooiiiiiioollllllllllllllllll",
"lllllllllllllllllllooiiiiiioohhkkkkkkkkhgooiiiiiioollllllllllllllllll",
"lllllllllllllllllllllooooiiiioohhkkkkkkooiiiioooollllllllllllllllllll",
"lllllllllllllllllllllooooiiiioohhkkkkkkooiiiiooo@llllllllllllllllllll",
"llllllllllllllllllllllllloooooohhkkkkkk$ooooollllllllllllllllllllllll",
"lllllllllllllllllllllllllooooo$fhkkkkkkoooooollllllllllllllllllllllll",
"llllllllllllllllllllllllllllllloohhkk ollllllllllllllllllllllllllllll",
"llllllllllllllllllllllllllllllloohhkkoollllllllllllllllllllllllllllll",
"lllllllllllllllllllllllllllllllllOoo@llllllllllllllllllllllllllllllll",
"llllllllllllllllllllllllllllllllloooollllllllllllllllllllllllllllllll",
"lllllllllllllllllllllllllllllllllllllllllllllllllllllllllllllllllllll"
};