/* XPM */
static char *result[] = {
/* columns rows colors chars-per-pixel */
"72 52 46 1 ",
"  c #201F2F",
". c #211E30",
"X c #201F30",
"o c #211F30",
"O c #201F31",
"+ c #211F31",
"@ c #221F30",
"# c #202030",
"$ c #616679",
"% c #606779",
"& c #616779",
"* c #626679",
"= c #636679",
"- c #626779",
"; c #636779",
": c #62657B",
"> c #61677A",
", c #61667B",
"< c #62667A",
"1 c #63667A",
"2 c #62677A",
"3 c #63677A",
"4 c #62677B",
"5 c #63677B",
"6 c #646779",
"7 c #64677A",
"8 c #64677B",
"9 c #616879",
"0 c #61687A",
"q c #62687A",
"w c #62687B",
"e c #CE8B17",
"r c #E0CA34",
"t c #E1CA34",
"y c #848D99",
"u c #F6EC8A",
"i c #F7EC8A",
"p c #AFBBC3",
"a c #D7E1E5",
"s c #D8E0E4",
"d c #D8E1E4",
"f c #D8E1E5",
"g c #D9E2E4",
"h c #D8E2E5",
"j c white",
"k c None",
/* pixels */
"kkkkkkkkkkkkkkkkkkkkkkkkkkkkkkkkkkkkkkkkkkkkkkkkkkkkkkkkkkkkkkkkkkkkkkkk",
"kkkkkkkkkkkkkkkkkkkkkkkkkkkkkkkkkkkkkkkkkkkkkkkkkkkkkkkkkkkkkkkkkkkkkkkk",
"kkkkkkkkkkkkkkkkkkkkkkkkooooooooooooooooooooooookkkkkkkkkkkkkkkkkkkkkkkk",
"kkkkkkkkkkkkkkkkkkkkkkkkooooooooooooooooooooooookkkkkkkkkkkkkkkkkkkkkkkk",
"kkkkkkkkkkkkkkkkkkkkOooojjjjiiiiiiiiiijjjjjjjjjj#oOokkkkkkkkkkkkkkkkkkkk",
"kkkkkkkkkkkkkkkkkkkkoooojjjjiiiiiiiiiijjjjjjjjjjooo+kkkkkkkkkkkkkkkkkkkk",
"kkkkkkkkkkkkkkkkkkXottjjiiiiiiiiiiiiiiiiiiiiiiiijjtt@Xkkkkkkkkkkkkkkkkkk",
"kkkkkkkkkkkkkkkkkkoottjjiiiuiiiiiiiiiiiiiiiiiiiijjttookkkkkkkkkkkkkkkkkk",
"kkkkkkkkkkkkkkkkoottiiiiiiuiiiiiiiiiiuiiiiiiiiiiiiuittookkkkkkkkkkkkkkkk",
"kkkkkkkkkkkkkkkkoottiiiiiuiiiiiuiuiiiiiiiiiuiiuiiiiittookkkkkkkkkkkkkkkk",
"kkkkkkkwkkkkkkkkoottiieeeeeeeeeeeeiiiieeeeeeeeeeeeiittookkkk9>>**=>6kkkk",
"kkkk22222qkkkkkkoottiieeeeeeeeeeeeiiiieeeeeeeeeeeeiittookkkk2-2222&2kkkk",
"kk=2jjjjjjds:1oottiiiitteeeeeeeettiiiitteeeeeeeettiiiitto+=-ddjjjjjj2-kk",
"kk;2jjjjjjdd22oottiiiitteeeeeeeettiiiitteeeeeeeettiiiittoo-2ddjjjjjj2>kk",
"0<jjjjjjjjjjddoottiiiiiiiiiiiiiiiiiiuiiiiiiiiiiiiiiiiittooddjjjjjjjjjj0-",
"$-jjjjjjjjjjddoottiiiiuiiiiiiiiiiiiiiiiiiiiiiiiiiiiiiittooddjjjjjjjjjj-2",
"&2jjjjddjjjjddoottiiiiiueeeeeeeeeeeeeeeeeeeeeeeeiiiiiittooddjjjjddjjjj22",
"q2jjjjddjjjjddoottiiiiiieeeeeeeeeeeeeeeeeeeeeeeeiiiiiittooddjjjjddjjjj22",
"q2jjjjjjppjjddoottiiiittiiiiiiiiiiiiiiiiiiiiiiiittiiiittooddjjppjjjjjj2;",
"q2jjjjjjppjjddXottiiiittiiiiiiiiiiiiiiiiiiiiiiiittiiiittooddjjppjjjjjj2,",
">2jjjjjjjjppdd ottiiiiiioooooooooooooooo.oooooooiiiiiittooddppjjjjjjjj22",
";2jjjjjjjjppddoottiiiiiiooooooooooooooooooooooooiiiiiuttooddppjjjjjjjj2-",
"-2jjjjjjjjjjyyoottttoooooooooooooooooooooooooooooooottttooyyjjjjjjjjjj--",
"-<jjjjjjjjjjyyoottttoooooooooooooooooooooooooooooooottttooyyjjjjjjjjjj3&",
"kk32ddjjjjjjddoottoooooooottttttttttttttttttttoooooooottooddjjjjjjdd22kk",
"kk&2ddjjjjjjddoottoooooooottttttttttttttttttttoooooooottooddjjjjjjdd28kk",
"kkkk;2ddjjjjddoooooooottttiiiiiiiiiiiiiiuiiiiittttooooooooddjjjjdd2>kkkk",
"kkkk%;ddjjjjddoooooooottttiiiiuiiiiiuiiiiiiiiuttttooooooooddjjjjdd;1kkkk",
"kkkkkk22ddddddoooooottiioooooo.oooooooXoooooooooiittoooooodddddd22kkkkkk",
"kkkkkk63ddddddoooooottiiooooooooooooooooooooooooiittoooooodddddd42kkkkkk",
"kkkkkkkk22ddddoooottoooooooooooooooooooooooooooooooottoooodddd2>kkkkkkkk",
"kkkkkkkk5<ddddoooottoooooooooooooooooooooooooooooooottooooddds11kkkkkkkk",
"kkkkkkkkkk$202oottooooooootttttttttttttttttttt.ooooooottoo><>>kkkkkkkkkk",
"kkkkkkkkkk70-&oottooooooootttttttttttrttttttttoooooooottoo2-&>kkkkkkkkkk",
"kkkkkkkkkkkkkkoooooooottttiiiitteeeeeeeettiiuittttooooooookkkkkkkkkkkkkk",
"kkkkkkkkkkkkkkoooooooottttiiiitteeeeeeeettiuiittttooooooookkkkkkkkkkkkkk",
"kkkkkkkkkkkkkkoooooottiiiiiitteeddddddddeettiiiiiittooooookkkkkkkkkkkkkk",
"kkkkkkkkkkkkkkoooooottiiiiiitteeddddddddeettiiiiiittooooookkkkkkkkkkkkkk",
"kkkkkkkkkkkkkkoooottiiiiiittooddddjjjjjjddeettiiiiiittooookkkkkkkkkkkkkk",
"kkkkkkkkkkkkkkoooottiiiiiittooddddjjjjjjddeettiiiiiittooookkkkkkkkkkkkkk",
"kkkkkkkkkkkkkkkkoottttiiiittooddjjjjjjjjddoottiiiittttookkkkkkkkkkkkkkkk",
"kkkkkkkkkkkkkkkkoottttiiiittooddjjjjjjjjddoottiiiittttookkkkkkkkkkkkkkkk",
"kkkkkkkkkkkkkkkkkkoottttiittooddjjjjjjjjddo.ttiittttookkkkkkkkkkkkkkkkkk",
"kkkkkkkkkkkkkkkkkk+ottttiittooadjjjjjjjjdfoottiittttookkkkkkkkkkkkkkkkkk",
"kkkkkkkkkkkkkkkkkkkkoooottttttooddjjjjjjoottttttooookkkkkkkkkkkkkkkkkkkk",
"kkkkkkkkkkkkkkkkkkkkoooottttttooddjjjjjjoottttttooookkkkkkkkkkkkkkkkkkkk",
"kkkkkkkkkkkkkkkkkkkkkkkkooooooooddjjjjjjooooooookkkkkkkkkkkkkkkkkkkkkkkk",
"kkkkkkkkkkkkkkkkkkkkkkkkooooooo#hdjjjjjjooooooookkkkkkkkkkkkkkkkkkkkkkkk",
"kkkkkkkkkkkkkkkkkkkkkkkkkkkkkkkkooddjjoXkkkkkkkkkkkkkkkkkkkkkkkkkkkkkkkk",
"kkkkkkkkkkkkkkkkkkkkkkkkkkkkkkkkoogdjjookkkkkkkkkkkkkkkkkkkkkkkkkkkkkkkk",
"kkkkkkkkkkkkkkkkkkkkkkkkkkkkkkkkkkooookkkkkkkkkkkkkkkkkkkkkkkkkkkkkkkkkk",
"kkkkkkkkkkkkkkkkkkkkkkkkkkkkkkkkkkooookkkkkkkkkkkkkkkkkkkkkkkkkkkkkkkkkk"
};