/* XPM */
static char *result[] = {
/* columns rows colors chars-per-pixel */
"64 64 91 1 ",
"  c #686D27",
". c #686E27",
"X c #696E28",
"o c #6A6E28",
"O c #6A6F28",
"+ c #6B6F28",
"@ c #6B6F29",
"# c #6B7029",
"$ c #6C7029",
"% c #6D7029",
"& c #6C702A",
"* c #6C712A",
"= c #6D712A",
"- c #6D712B",
"; c #6E712A",
": c #6D722B",
"> c #6F722A",
", c #6E722B",
"< c #6F722B",
"1 c #6F732B",
"2 c #6F732C",
"3 c #70722B",
"4 c #70732B",
"5 c #71732B",
"6 c #70732C",
"7 c #71732C",
"8 c #72732C",
"9 c #70742C",
"0 c #71742C",
"q c #70742D",
"w c #71742D",
"e c #71752D",
"r c #72742C",
"t c #73742C",
"y c #72742D",
"u c #73742D",
"i c #72752D",
"p c #73752D",
"a c #72752E",
"s c #72762E",
"d c #73762E",
"f c #73772E",
"g c #74752D",
"h c #74762D",
"j c #74762E",
"k c #75762E",
"l c #74772E",
"z c #75772E",
"x c #74762F",
"c c #74772F",
"v c #75772F",
"b c #76772F",
"n c #76782F",
"m c #77782F",
"M c #77792F",
"N c #757830",
"B c #767830",
"V c #767930",
"C c #777930",
"Z c #777931",
"A c #777A31",
"S c #787930",
"D c #787931",
"F c #787A30",
"G c #787A31",
"H c #797A31",
"J c #797B31",
"K c #7A7B31",
"L c #787A32",
"P c #797A32",
"I c #797B32",
"U c #7A7B32",
"Y c #797C32",
"T c #7A7C32",
"R c #7B7C32",
"E c #7B7D32",
"W c #7A7C33",
"Q c #7B7C33",
"! c #7B7D33",
"~ c #7C7D33",
"^ c #7C7E33",
"/ c #7D7E33",
"( c #7C7E34",
") c #7D7E34",
"_ c #7D7F34",
"` c #7E7F34",
"' c #7E8035",
"] c #7F8035",
"[ c #808135",
"{ c #808136",
"} c #818236",
/* pixels */
"uuuuuuuuuuuuuuuuuuuuuuuuuuuuuuuuuuuuuuuuuuuuuuuuuuuuuuuuuuuuuuuu",
"uuuuuuuuuuuuuuuuuuuuuuuuuuuuuuuuuuuuuuuuuuuuuuuuuuuuuuuuuuuuuuuu",
"uuuuuuuuuuuuuuuuuuuuuuuuuuuuuuuuuuuuuuuuuuuuuuuuuuuuuuuuuuuuuuuu",
"rruuuuuuuuuuuuuuuuuuuuuuuuuuuuuuuuuuuuuuuuuuuuuuuuuuuuuuuuuuuuuu",
"rruuuuuuuuuuuuuuuuuuuuuuuuuuuuuuuuuuuuuuuuuuuuuuuuuuuuuuuuuuuuuu",
"rruuuuuuuuuuuuuuuuuuuuuuuuuuuuuuuuuuuuuuuuuuuuuuuuuuuuuuuuuuuuuu",
"rruuuuuuuuuuuuuuuuuuuuuuuuuuuurrrrruuuuuuuuuuuuuuuuuuuuuuuuuuuuu",
"rruuuuuuuuuuuuuuuuuuuuuuuuuupurr7rruuuuuuuuuuuuuuuuuuuuuuuuuuuuu",
"uuuuuuuuuuuuuuuuuuuuuuuuuuuuuuuuuuuuuuuuuuuuuuuuuuuuuuuuuuuuuuuu",
"uuuuuuuuuuuuuuuuuuuuuuuuuuurrrhnmnjurrurrrrrrrrrrruuuuuuuuuuuuuu",
"uuuuuuuuuuuuuuuuuuuuuuuuupur7rzK~Tnurrurr77778rrrruuuuuuuuuuuuuu",
"uuuuuuuuuuuuuuuuuuuuuuuuuuur7uC/]/Cu7ruuuuuuuuuuuuuuuuuuuuuuuuuu",
"uuuuuuuuuuuuuuuuuurrrrrurruppjG)]~mu7rrhbmCCmnvzjpurruuuuuuuuuuu",
"uuuuuuuuuuuuuuuupurrrrrurrujvCI!(Unu55rzJ~/^~TJZvjurruuuuuuuuuuu",
"uuuuuuuuuuuuuuuuuuuuuuuurrujCPIIPCju87um~]}{]_!PBjurruuuuuuuuuuu",
"uuuuuuuuuuuuuuurrupjzjprr8rzGILNdiiuppjS!'{}}'QZvjurruuuuuuuuuuu",
"uuuuuuuuuuuuuuurrujBZnp755rzHTZe-;4ujvCGI!`}}`Jzppurruuuuuuuuuuu",
"uuuuuuuuuuuuuuurrukZPZkurruzGPc,X+>uzCPIGP!']~mu7ruuuuuuuuuuuuuu",
"uuuuuuuuuuuuuuurrujnZDCmnzjjvcw=@$<rzCIIILIIJMhr7ruuuuuuuuuuuuuu",
"uuuuuuuuuuuuuuurruppzCT~!ICd9:=,<45rjCIWWIVs2<47rruuuuuuuuuuuuuu",
"uuuuuuuuuuuuuuuuuur7um~]](Pd-X@<uprujCPITPc:X@<uppuuuuuuuuuuuuuu",
"uuuuuuuuuuuuuuuupur5rnE]')Iv<@$4phjjBGIGBxw:*1lCmjurruuuuuuuuuuu",
"uuuuuuuuuuuuuuuuuurrrvJ~(~TCi<<7pjvCGUUBw=:qdA!)Rnurruuuuuuuuuuu",
"uuuuuuuuuuuuuuuuuurrujCPIIPCjurrujCPITPx=X=dP(]]~mu7ruuuuuuuuuuu",
"uuuuuuuuuuuuuuuuuurrujvBBvcjpptruzGIICcw,=wBW!!TFzurruuuuuuuuuuu",
"uuuuuuuuuuuuuuuuuurrupjji2:<0ppruvHTZi,1wcVIWGf99ruuuuuuuuuuuuuu",
"uuuuuuuuuuuuuuuuuuuuuppu<#X#3upruzGPc=X=cPWWPc:X@<uppuuuuuuuuuuu",
"uuuuuuuuuuuuuuuuuuuputur3$@%4uptupcc9O =vTUZc9&O$3uppuuuuuuuuuuu",
"uuuuuuuuuuuuuuuuuuuuuuur04<40uppu02:#  ,NIAa:=;<4ruppuuuuuuuuuuu",
"uuuuuuuuuuuuuuuuuuuuuuuuuuuuuuppu4$X  X1NPN,X@<uppuuuuuuuuuuuuuu",
"uuuuuurrrrrrrrrrruuuuuyupppppuppu4=@O+$6vCj,@$4pgpuruuuuuuuuuuuu",
"uuuupurr77778rrrruuuuuuuuppppuupur4<<<40djp7<4rpppuuuuuuuuuuuuuu",
"uuuuuuuuuuuuuuuuuuuuuuuuuuuuuuuuuuuuuuuuuuuuuuuuuuuuuuuuuuuuuuuu",
"uuurruhbCCCmnvjgprrruuuuuuuuuuuyuppppppprrrppppuruuuuuuuuuuuuuuu",
"uuurrubK/)/~THCvprrruuuuuuuuuuuuuupppppurrrppppuuuuuuuuuuuuuuuuu",
"uuur7um~]}{]_!PBjurruuuuuuuuuuuuuuuuuuuuuuuuuuuuuuuuuuuuuuuuuuuu",
"uuurrubJ/]}}](IZnjppurruuuuuuuuuuuuuuuuuuuuuuuuuuuuuuuuuuuuuuuuu",
"uuurrugzCR]}[~IZZCvjurruuuuuuuuuuuuuuuuuuuuuuuuuuuuuuuuuuuuuuuuu",
"uuuuuur7um~]'!PGIPCjurruuuuuuuuuuuuuuuuuuuuuuuuuuuuuuuuuuuuuuuuu",
"uuuupur57hCJYIIIWIZzurruuuuuuuuuuuuuuuuuuuuuuuuuuuuuuuuuuuuuuuuu",
"uuuuuurrr069dCUQQTDzurruuuuuuuuuuuuuuuuuuuuuuuuuuuuuuuuuuuuuuuuu",
"uuuuuuppu<@X:cPTIPCjurruuuuuuuuuuuuuuuuuuuuuuuuuuuuuuuuuuuuuuuuu",
"uuuuuuppu3$O*wcvccdpurtuuuuuuuuuuuuuuuuuuuuuuuuuuuuuuuuuuuuuuuuu",
"uuuuuuupur4<,,::-:10uppuuuuuuuuuuuuuuuuuuuuuuuuuuuuuuuuuuuuuuuuu",
"uuuuuuuuuppu4$X..X$4uppuuuuuuuuuuuuuuuuuuuuuuuuuuuuuuuuuuuuuuuuu",
"uuuuuuuyupgp7;@oO@=4uppuuuuuuuuuuuuuuuuuuuuuuuuuuuuuuuuuuuuuuuuu",
"uuuuuuuuupppr4<<<<4ruppuuuuuuuuuuuuuuuuuuuuuuuuuuuuuuuuuuuuuuuuu",
"uuuuuuuuuuuuuuuuuuuuuuuuuuuuuuuuuuuuuuuuuuuuuuuuuuuuuuuuuuuuuuuu",
"uuuuuuuuuuyuppppppppuruuuuuuuuuuuuuuuuuuuuuuuuuuuuuuuuuuuuuuuuuu",
"uuuuuuuuuuuuupppppppuuuuuuuuuuuuuuuuuuuuuuuuuuuuuuuuuuuuuuuuuuuu",
"uuuuuuuuuuuuuuuuuuuuuuuuuuuuuuuuuuuuuuuuuuuuuuuuuuuuuuuuuuuuuuuu",
"uuuuuuuuuuuuuuuuuuuuuuuuuuuuuuuuuuuuuuuuuuuuuuuuuuuuuuuuuuuuuuuu",
"uuuuuuuuuuuuuuuuuuuuuuuuuuuuuuuuuuuuuuuuuuuuuuuuuuuuuuuuuuuuuuuu",
"uuuuuuuuuuuuuuuuuuuuuuuuuuuuuuuuuuuuuuuuuuuuuuuuuuuuuuuuuuuuuuuu",
"rruuuuuuuuuuuuuuuuuuuuuuuuuuuuuuuuuuuuuuuuuuuuuuuuurrrrrrrruuuuu",
"rruuuuuuuuuuuuuuuuuuuuuuuuuuuuuuuuuuuuuuuuuuuuuuupurr7777rruuuuu",
"rruuuuuuuuuuuuuuuuuuuuuuuuuuuuuuuuuuuuuuuuuuuuuuuuuuuuuuuuuuuuuu",
"rruuuuuuuuuuuuuuuuuuuuuuuuuuuuuuuuuurrrrruuuurrrrrrgzmCCCbhurruu",
"rruuuuuuuuuuuuuuuuuuuuuuuuuuuuuuuupurrrrruupurrrr5rzH~/_/Kburruu",
"uuuuuuuuuuuuuuuuuuuuuuuuuuuuuuuuuuuuuuuuuuuuuuuur7um~]}}]~mu7ruu",
"uuuuuuuuuuuuuuuuuuuuuuuuuuuuuuuuurrupjjjprrrppjjjpjH`}}]/Jburruu",
"uuuuuuuuuuuuuuuuuuuuuuuuuuuuuuuuurrujvBvp77rpjnCCBCT]}]RCkgurruu",
"uuuuuuuuuuuuuuuuuuuuuuuuuuuuuuuuurrukZPZkurrujCPIGP!']~mu7ruuuuu",
"uuuuuuuuuuuuuuuuuuuuuuuuuuuuuuuuurruvJ!QJmh7<iBIWWIITJCh75ruuuuu"
};