/* XPM */
static char *result[] = {
/* columns rows colors chars-per-pixel */
"54 50 128 2 ",
"   c #451E02",
".  c #472103",
"X  c #492203",
"o  c #45230A",
"O  c #4C280C",
"+  c #4D2B14",
"@  c #4D2D1A",
"#  c #502D13",
"$  c #502F1B",
"%  c #4F311D",
"&  c #51321D",
"*  c #59371D",
"=  c #5A391F",
"-  c #4F3323",
";  c #523623",
":  c #563924",
">  c #593C26",
",  c #523728",
"<  c #543B2B",
"1  c #5A3E29",
"2  c #563F30",
"3  c #5B4027",
"4  c #5C422C",
"5  c #574131",
"6  c #5C4533",
"7  c #5D4936",
"8  c #5D4739",
"9  c #5E4B3B",
"0  c #60462E",
"q  c #62482F",
"w  c #614631",
"e  c #644C33",
"r  c #694F37",
"t  c #624E3D",
"y  c #694F39",
"u  c #675036",
"i  c #685136",
"p  c #64503B",
"a  c #6B533B",
"s  c #6F593E",
"d  c #70573F",
"f  c #715B3F",
"g  c #604F40",
"h  c #645343",
"j  c #6B5545",
"k  c #675845",
"l  c #6A5946",
"z  c #6B5749",
"x  c #675949",
"c  c #6C5C4B",
"v  c #735C43",
"b  c #735E4C",
"n  c #6E5F50",
"m  c #735F50",
"M  c #6E604E",
"N  c #766047",
"B  c #786147",
"V  c #76614B",
"C  c #7A644B",
"Z  c #7E694F",
"A  c #6F6251",
"S  c #726454",
"D  c #7A6251",
"F  c #746856",
"G  c #7F6A51",
"H  c #766759",
"J  c #766959",
"K  c #7A6C5D",
"L  c #7B705F",
"P  c #7C6F60",
"I  c #7E7262",
"U  c #816D53",
"Y  c #83605F",
"T  c #856C5E",
"R  c #8A6F5F",
"E  c #847156",
"W  c #85725A",
"Q  c #8A765D",
"!  c #8A795F",
"~  c #91795F",
"^  c #866F61",
"/  c #837465",
"(  c #8B7464",
")  c #847867",
"_  c #8D7B62",
"`  c #837669",
"'  c #887469",
"]  c #857A6B",
"[  c #897D6D",
"{  c #907E66",
"}  c #917C6C",
"|  c #877B70",
" . c #8A7D71",
".. c #947676",
"X. c #937F71",
"o. c #8A806F",
"O. c #918067",
"+. c #938269",
"@. c #98876F",
"#. c #8C8273",
"$. c #8F8578",
"%. c #958374",
"&. c #988477",
"*. c #9D8A76",
"=. c #918679",
"-. c #99867A",
";. c #948B7D",
":. c #9D8B7D",
">. c #A08D7E",
",. c #968D82",
"<. c #988E83",
"1. c #9A9185",
"2. c #9D9589",
"3. c #9F988C",
"4. c #A29283",
"5. c #A4958C",
"6. c #A29A8E",
"7. c #A8998F",
"8. c #A29B90",
"9. c #AD9F97",
"0. c #AFA39B",
"q. c #B1A59F",
"w. c #BBB1AB",
"e. c #C0B8B1",
"r. c #C5BDB8",
"t. c #CBC2BB",
"y. c #DEDAD7",
"u. c None",
/* pixels */
"u.u.u.u.u.u.u.u.u.u.u.u.u.u.u.u.u.u.u.u.u.u.u.u.u.u.u.u.u.u.u.u.u.u.u.u.u.u.u.u.u.u.u.u.u.u.u.u.u.u.u.u.u.u.",
"u.u.u.u.u.u.u.u.u.u.u.u.u.u.u.u.u.u.u.u.u.u.u.u.u.u.u.u.u.u.u.u.u.u.u.u.u.u.u.u.u.u.u.u.u.u.u.u.u.u.u.u.u.u.",
"u.u.u.y.m e j y e K u.u.u.u.u.u.u.u.u.u.u.u.u.u.u.u.u.u.u.u.u.u.u.u.u.u.u.u.u.u.u.u.u.u.D y y y w u.u.u.u.u.",
"u.u.t.-.j j t t 6 & &.9.7.5.7.5.7.7.8.u.u.u.5.u.u.u.u.u.u.u.u.5.u.u.u.u.u.u.u.u.u.u.u. .1 w t t h z u.u.u.u.",
"u.u.( e ^ I J K j # & & & & & & $ ; > e.r.; & $ & & & & & & $ & < u.q.& % % % & & & $ * : c K K ^ K 1 u.u.u.",
"u.u.X.p ^ I K K l & e e q q q q q a v C b v r 0 q q q e e q e e u b V v u q q 4 q e q q 1 b K K I P 6 <.u.u.",
"u.u.%.j [ ] / ) c > s v N v N N v C U e e W U d v v v v v v v C Z 4 a E B f N v v v v d 1 m ` I | ] y 4.u.u.",
"u.u.%.c =.=.[ o.C > f Z U Z U Z U U E a j ~ U U U U Z U U Z Z E E e s W G Z Z G U U U v 6 K  .[ $.#.y 4.u.u.",
"u.u.-.b ;.;.#.=.K > v U E Z G U U U ! j v _ W Z U Z Z G G Z Z W Q i l W E Z G G G G U N 6 P ;.#.,.#.g 4.u.u.",
"u.u.&.m ,.<.=.;.K > B U E W E E U Q { v v _ Q E E U E E E E E ! ( u v Q E G E G E U W Z 4 P ;.$.,.,.h 4.u.u.",
"u.u.&.S 1.1.=.;.T > v E ! ! ! ! ! { +.D N _ ! ! Q ! ! ! ! ! ! _ ! a N Q ! Q ! ! ! ! Q U w ^ ;.#.<.,.z 4.u.u.",
"u.u.%.S 2.2.;.1.P > B W ! ! ! ! ! _ O.Z C _ _ ! Q ! ! ! _ ! ! _ ! a N _ ! ! ! ! Q ! ( K w I ,.;.2.,.j 4.u.u.",
"u.u.%.m 2.5.1.2./ > B Q ~ ! ! _ _ O.+.Z C { { ! _ _ _ _ _ _ ! _ _ a N _ _ _ ! ! _ ! O.E w ` 2.<.2.,.j 4.u.u.",
"u.u.%.D 2.6.6.8.' > C Q +.+.O.O.O.+.@.Z C +.+.} { O.[ } _ o.o.+.O.a C o.O.O.O.O._ o.+.E w  .8.2.8.,.z 4.u.u.",
"u.u.%.m 2.6.2.8.] > B Q +.+.+.+.{ @.@.Z C O.@.O.O.O.O.+.O.O.O.+.O.a C @.o.O.O.O.+.o.+.W e | 8.2.8.<.c 4.u.u.",
"u.u.@.m 2.6.2.6.` > v Q +.+.+.+.O.+.@.C C +.O.O.O.O.O.O.O.O.O.@.O.a C +.O.O.O.+.O.O.@.W w | 6.2.8.<.z 5.u.u.",
"u.u.%.V 2.6.2.6.) = B Q +.+.+.+.O.+.@.C B +.+.+.+.O.O.O.O.O.O.@.O.a C +.O.O.O.O.+.O.+.Q w | 6.2.8.<.j 4.u.u.",
"u.u.} N 1.6.1.2.W * B W ~ { O.O.{ O.+.C B +.+._ { { _ O.{ _ _ O._ a V @.[ _ { O._ ~ O.E w ` 1.1.6.<.j 4.u.u.",
"u.u.~ M 2.2.;.1.P * v W ~ ! ~ ! Q { +.Z B +.+.Q Q { Q ! Q ! Q O.} a C +.{ Q ! ! ! ! ! U q ` ;.;.5.,.c 4.u.u.",
"u.u.! M 1.2.;.>.P * f E ! O.! ! Q { { C B +.O.Q Q Q ! ~ _ _ Q O.{ a C +._ Q ! ! ! ! _ U q ) 1.;.2.,.c 4.u.u.",
"u.u.Q b 1.1.=.;.H * j E { Q ~ { ~ O.O.B v +.{ Q ! _ _ _ ! _ ! O._ p C @.O.! Q ( _ ! O.U 0 K ;.$.1.,.j 4.u.u.",
"u.u.( j 1.;.o.$.S * d U ~ Q ! ! ! ! O.v v O.{ W ! Q Q Q ! ! Q _ _ y b { ! Q Q Q ! ! ! U 0 K #.[ ;.=.l 4.u.u.",
"u.u.~ j ;.;.o.=.D & d C U U U U E E W f d Q E U G G U E U U U Q Q e v Q E E U U E U E N 0 K %.#.;.;.j 4.u.u.",
"u.u.~ j ;.=.o.#.S # a C U Z U Z U U E a a E E U G G G G G G Z E U q s E U Z Z G U Z U N 1 K [ ] ;.=.h 4.u.u.",
"u.u.~ h %.$.] [ c + a C U U U U U U U r e W U G G G G G G U Z U E 4 p W U U G G G U U v 1 S [ ` $. .y <.u.u.",
"u.u.~ h %.$.[  .b # y C U U U U U U U e e U U C Z C C C C b C U E 4 p Q U Z U U U U U b 1 J o.[ =.#.y >.u.u.",
"u.u.} 6 S H S S t $ d b Z Z C C v U U w 2 C v y e e e y e e e b G 1 e U Z b C C b v C v 1 h n c S m 2 <.u.u.",
"u.u.%.; & & ; & $ * r v d d d d d v C 0 ; y 0 : 4 6 1 < 1 1 $ y v > 4 d s a a y y a y w : , ; ; ; - : 5.u.u.",
"u.u.Q t ` #. .#.S X : 1 > > > > : > 1 ; & ; O 6 / ] ] [ [ P 2 $ 1 & & ; : : ; : : : ; & @ H #. . .` 6 >.u.u.",
"u.u.R g =.;.=.;.H   $ $ $ $ $ $ $ $ @ # @ @   t [ ] K K [ ] w X + @ & ; ; & & % * @ & @ + P =.#.;. .t *.u.u.",
"u.u.} y ) ) K I h + 1 0 2 4 4 4 4 4 4 & & 1 + 6 K h   X j H < $ 1 @ > a w 6 6 e 6 6 w 1 + c L K ] ` 6 >.u.u.",
"u.u.[ p I ` K P j # 1 y y y a y y y j > * q & < S F c @ 9 n : & 1 + 4 s a e u u i u a w @ z K J ) I w >.u.u.",
"u.u.} t I I J L h + 3 p s s a s a f f 3 & u * 5 M L F - 9 M , % 4 + 4 N s u i i s i s q + M F F I I 5 -.u.u.",
"u.u.X.e I L J J p + 4 e i i i i u s f 3 * u * < M A x @ 9 c , % : @ 4 s i u u u u u u q + p F F P P 6 -.u.u.",
"u.u.X.t L J A F t + 3 e i u i i u a s 3 & u : , x x x M M x - % > @ 4 s i u u u u u i q @ k A A K J 1 -.u.u.",
"u.u.} 2 J J M S t + 3 7 i u u u u a s 3 & u 3 - 9 9 t A l 7 ; 3 3 % 4 s u e u u u u i q @ g A A J S , &.u.u.",
"u.u.( 6 S S M S 9 O 3 e i u u u u a s 3 % u 4 3 % @ % % % % : 4 u % 4 s u u u u u u u 0 + g A A F A , &.u.u.",
"u.u.( 1 M M l M 7 + > q r e e u u a s 3 % u u 4 > - > & & : 4 u e % 4 f u u e e e u u q + 7 x x S l - -.u.u.",
"u.u.R , M M k l 7 o > 4 e e e e q i s : & u u 7 4 4 4 4 4 4 i u 7 $ 3 s u u 7 e e e u 5 + 7 x x M c , -.u.u.",
"u.u.R < M M k l 5 @ > 4 e e q e 7 u s 3 % u u e u u u u u u u u e $ 3 f u e e e e e e 5 + 5 M x M z - %.u.u.",
"u.u.^ , M M k M 7 + > 4 i e u q q u s < % u u u u i e i i e i i u % 3 s u e 7 e 7 e u 0 + 9 x k S c ; %.u.u.",
"u.u./ , k M p k 5 + > 4 e 7 q 7 7 i s 3 % e u u e e e e e e e e e % 4 s 7 e e e 7 e u 3 + 5 k k z z - &.u.u.",
"u.u.` @ ; , - % @ @ < 4 4 4 4 3 3 e f 3 @ 4 4 3 4 4 4 4 4 4 4 4 3 + 3 f e 3 3 3 3 0 0 3 O + % % , $ @ <.u.u.",
"u.u.W , M M A A x x 5 + + # + $ + * 4 + . O + # + O O + O + + + O . & 3 & O @ @ + + + 5 M M M M n h - %.u.u.",
"u.u.Y 5 I ] I I ] I 5 o , ; , 3 < < , < < < < < 1 < < < < < < < 5 5 5 , 5 , , , , ,   7 I I ] I ] I , ..u.u.",
"u.u.^ < A A F F F F - 7 J F F F J L L L ` ` ` ` ` ) ) ] ` ` ` I I I I L I I F F F A 5 5 F F F F J c - %.u.u.",
"u.u./ ; h M k k A A - 7 J F F F J J K K L I / I I I I I / P P P I I L L I J J F J F 5 , A M k x z h - -.u.u.",
"u.u.' @ 7 7 7 5 M M , , p 9 9 9 9 t t g p t g g g g h h h g g g 9 h 9 9 g g g g g g - 5 M h 7 7 9 5 @ <.u.u.",
"u.u.^ @ @ - - - , , @ @ - - - - - - - - - - - - - - - - - , - - , - - - - - - - ; - @ @ < ; - - - - @ ..u.u.",
"u.u.q.^ / ^ ^ ^ ^ ^ ' ' ^ ^ ^ ^ ^ ^ ^ ^ ^ ^ ^ ^ ^ ^ ^ ^ ^ ^ ^ ^ W I / / T / ^ T ^ ^ ' / T ^ ^ ^ ^ ^ ^ w.u.u."
};