/* XPM */
static char *result[] = {
/* columns rows colors chars-per-pixel */
"66 63 49 1 ",
"  c #362513",
". c #392714",
"X c #3A2C14",
"o c #3E2C19",
"O c #412E1A",
"+ c #44321E",
"@ c #473420",
"# c #483621",
"$ c #4B3A24",
"% c #4F3E28",
"& c #503F27",
"* c #503F29",
"= c #534E1D",
"- c #54511E",
"; c #4C4027",
": c #54422C",
"> c #58442F",
", c #574531",
"< c #594632",
"1 c #5B4B33",
"2 c #5F5035",
"3 c #5F5038",
"4 c #635237",
"5 c #645438",
"6 c #69573A",
"7 c #6A5B3D",
"8 c #5E6026",
"9 c #616227",
"0 c #626329",
"q c #67692B",
"w c #6C6C2B",
"e c #73722D",
"r c #78762F",
"t c #7C782F",
"y c #757730",
"u c #787530",
"i c #7C7930",
"p c #6D5E41",
"a c #6F6042",
"s c #706144",
"d c #827E32",
"f c #848134",
"g c #87823B",
"h c #88843B",
"j c #8B883E",
"k c #8F8C44",
"l c #918D46",
"z c #929047",
"x c None",
/* pixels */
"xxxxxxxxx;;;;;;;;;;;;;;;;;;;%$;;;;;;;;;;;;;;;;;;;;;;;;;;;xxxxxxxxx",
"xxxxxxxxx;;;;;;;;:;;;;;;;;;;%$;;;;;$;;;;%%;;;;;;;;;;%%;;;xxxxxxxxx",
"xxxxx;;;;zlzzzkzzlzjkkkllkkkkkklkkklkyeyyzzzllzfgzllzzzll;;;;xxxxx",
"xxxxx;;;;llzzlzlllzlkkkklkkkkklkkklkkyyyuzzzllzgflllzllzz%;;;xxxxx",
"xxx;;lkzkfddddddfffllllddfgdgzlzkfddfffffffffffffzzlzgffffddd;;xxx",
"xxx%;llkkddddfdffffzlllffddddlllzddfdfffffffffffflzzkffffffdd%;xxx",
"x;;dddtfdddddeewwittuiiwwwwwegjjjfddfffhgdifffdffdfdfffffffhhhh;;x",
"x;;dtdftdddddwwwettttidwwwwwwkjjkidffffhgdffffffddddififfffhhhh;;x",
"x;&eyeyqqqqqqqqqqiyrrriqwwwwwtterrereggggqqqqeuuetrrrrterrtgggg%:x",
"x;&tuuuqqqqqqqqwqiruiruqwwweweeerereuggggqqqqyuerrrerettrttfggg%;x",
"x;;eeerqqqqeeeyeeuiyrry--eeeeeeee00eeeeeeerqqeereredrrt90q0q0rr$;x",
"x;;eeeyqqqqeweeeeyyyrrr--eeeeeeee00eeeeeeeeqqerrerrered900q00er;;x",
"x:%8888--88eeeewe88q8----eweweeee0808yeeeee0800eeweeewe9q900qee;;x",
"x;;9q80--qqeeeeey8889----eweeeeee8088yeeeee8000weeweeww99q000er;;x",
"x;;9q88----eeeeey8889----eeeewewe9999eeeeee=;--8999eeeeweee88=-;;x",
"x;;988q----weeewy8889----eeeeewwe8999eeeewe=--=8899wweewwww88=-;;x",
"x;;====XX--eeweew----------888888----888888===-XX==eewwewww88===;x",
"x;;===-XX--weewwe----------888888----888888===-XX==ewwwwwwe88==#;x",
"x;;--XXXX----===-XXXXXX------8888--XXXX-=====XXOXXXXX88888889XXxxx",
"x;;--XXXX----===-XXXXXX------8888--XXXX-=====XXXXXXXX88888889XXxxx",
"xxxXX++++XX----XX###=##XXXX-====-XXXoooXXXXXX  OO++OX-=8888=-XXxxx",
"xxxXX;+++XX----XX+#+X##XXXX-=====XXXo++XXXXXX  XO++OX-=8888--XXxxx",
"xxx+o+;+++XXXXX#=##;;#=+;++XXXXXXXXXo++++oXXO  .O+=++XX===-XX:1xxx",
"xxxoo+X=+XXXXXX#+#####;++;+XXXXXXXXXo++++X=+O  OO+++;XX===-XX<1xxx",
"xoo++;++;XXXX@+#;##;####;++++ooXXXo;;+;+&++++OO  #####+XXXXO+X+xxx",
"xoo$+++;+XXX.@+#######;#$o+++XoXX+o;;;=;+++++OO  ######XX X++Xoxxx",
"xoo++;+;+X X..XOX####;;@#+#++++oX;#o$;+$&&&++++    ####+XO+++ooxxx",
"xoo+++;;+XX ..XOo#+=#$#@+++++++oX=;;++$$;+$++++O  .###+++++++ooxxx",
"xoo++::+#+++&X.Oo;$$$$$Xo+++++#;&+$7777;$&+&+121122..Oo+++++#ooxxx",
"x+o+o<:++$&++O.OX;$$$$$oo+++++oo$$$7777&$$&+=211121Oo.o++++++ooxxx",
"xxx++o;5544++##OXXX$$$$#;#;oo#;;+;&7777saaas7212111>>ooo.oXoo+#xxx",
"xxx++oo2544++=#Oooo;$@$$#;#oo;#;+&&77777aaas7221221><.o.ooooo++xxx",
"x++444444444446>1 ooX%$%$%%7666p777ssssssspss121211>,X ooooO+xxxxx",
"x++44444444446611oX.o$$$$$%666p6777s7sssspsss312111>:XXX.oo++xxxxx",
"x&#44444467q6661,,:oo,,,,,,7p66p777saasss6655122111>,oooo oo.xxxxx",
"x$#4444446766661,,,.o,,,,,,66pp6777ssssss5565221111>,oooo   .xxxxx",
"x&$6666666766661<,:XX456p5p5p6pssasaassss655p,p*;&%%$oooo1113O@xxx",
"x&$6666666667661<:,..5475p5p666ssassassss6563p*$$&$%%oooo111<@@xxx",
"xxx$$66w777771>1< .<165757p6ppppp565557655p*$$$*&%$%%oo,,1211$#xxx",
"xxx$$6677777711>1X.11677775p6pppa5555666333**%*$$%%$#oo<,2111#$xxx",
"xxx++7676::::11>1 .<17766665554555444535455%$*$$%%$oo1111aapa7a$$x",
"xxxO+6677>::&1111 .1>7666665554545455555555%*$$*$$%oo1111appppp$$x",
"x$$++++&&*>*:::11..1<&;&%%***22555445354553%*$$$%%%2222aaaaapp7;:x",
"x&$+++O&&>*>:::1<..11&&&%%***22545545445333$$$$$$%%2411aaaapppp;;x",
"x:>*&**OO**>*>***OO.o%%$*****>*65555454%&**$$$$$$%$33apppppp77p%:x",
"x:*****OO***>*>**OOO.&$********65533533%*%*$$$$$$$%31papppppppp;:x",
"x:*55**OO**>*>*$@$$$$+OOO******<,111111%$$*$$$$oX4323pppppp6ppp%:x",
"x:*55*&OO***>**@@@$$$OOOO****>><,11111,%*$$$$$$oo2223ppppppp6pp;:x",
"x::442524$$@+@+*&&**>>>*>@@O.**<<<1<1<1@@@@@@o..X3224pp7p77p744::x",
"x::452422$$@@+@*&&**>*>>>@@.O**<111<13<@@@@@@.ooo2251pp77pppp35::x",
"x::454524&&#@@$546466>><>>>##..OXo.Oo,,,<31,,%##$2422p7pp7p4553:>x",
"x::425254;&@@$@549444><<>*>$*.O.o.oOO,,,<,<,,$%##42427p77p73555::x",
"x::542256<4$$55564465556p><****....<<pp7ppp*1,1%*>><11177552224::x",
"x::5555244<$$45545645657p><#$**.ooo1,pppppp<1<,%$>,11<177522245::x",
"x++:;255411>*46655555657p666p**.O33<1pppp6pp632,,$@<11<12<<1,55:,x",
"x++::552514>>6445556553p6pppp$*..33<<p6pppp3632,,$$<<11>1<<<<55::x",
"xo+*%*&:*. <<<1677677777p66pp*&.o<3ppppp7776755,,,*$%<<*;;%%&$#oox",
"x+O**:*:*..<>1<6667657756p6pp**oO3<pppp3p766656,,,,$$1<*:;%:*$#oox",
"xoo*%%%%*  <<><<,6pppp5pp,,*%%&oO31p6pp67q66656<,,,%%+@%;:;%%ooxxx",
"x+o%%%%%*. *>>><,pppppppp*,*&&&o.33pppp66676666:,,,$%@@*:;&%%ooxxx",
"xxxX.X.  xx++oO&%********,,o.+OoO++%$67777665,<<,@OOo..o.ooooxxxxx",
"xxx..XX.Xxx++Oo&%%***,***,*ooOooo++%%67577665,<<,OOOooo.oooooxxxxx",
"xxxxxxxxxxxxxxxOOOoooOoooOOxxxxxxxxxx++OOOOOOOOOOxxxxxxxxxxxxxxxxx"
};