/* XPM */
static char *b9051cd935a8449ff9ddc3880d554b3dhe5tm0jzTObZ9OlJ[] = {
/* columns rows colors chars-per-pixel */
"88 88 167 2 ",
"   c None",
".  c #020202",
"X  c #0C0C0C",
"o  c #0F100F",
"O  c #11160D",
"+  c #100F10",
"@  c #0F1010",
"#  c #141414",
"$  c #171A17",
"%  c #181817",
"&  c #171618",
"*  c #1C1C1C",
"=  c #201F1F",
"-  c #1E211D",
";  c #20201F",
":  c #20281C",
">  c #1F1F20",
",  c #201F20",
"<  c #1F2020",
"1  c #232322",
"2  c #282727",
"3  c #262826",
"4  c #292927",
"5  c #272728",
"6  c #282728",
"7  c #2B2B2A",
"8  c #302F2F",
"9  c #2D3727",
"0  c #2D312B",
"q  c #30302F",
"w  c #303B2A",
"e  c #2F3030",
"r  c #343432",
"t  c #393737",
"y  c #363835",
"u  c #3A3A37",
"i  c #3C3C3B",
"p  c #3E4137",
"a  c #3F4339",
"s  c #3C4C33",
"d  c #3E5032",
"f  c #43453C",
"g  c #434B3B",
"h  c #434343",
"j  c #484744",
"k  c #464841",
"l  c #494A45",
"z  c #4A4A49",
"x  c #504F4E",
"c  c #495142",
"v  c #51544B",
"b  c #575D4F",
"n  c #545352",
"m  c #595754",
"M  c #575856",
"N  c #5B5C56",
"B  c #5C5B59",
"V  c #625E56",
"C  c #5F615B",
"Z  c #626151",
"A  c #64605C",
"S  c #6C6A5D",
"D  c #646362",
"F  c #696765",
"G  c #6C6C66",
"H  c #6F6F6E",
"J  c #726D61",
"K  c #726F69",
"L  c #727667",
"P  c #74746E",
"I  c #7C776A",
"U  c #777A6F",
"Y  c #747473",
"T  c #7B7A74",
"R  c #7C7B7B",
"E  c #807D70",
"W  c #817E7C",
"Q  c #808775",
"!  c #84857F",
"~  c #8B8578",
"^  c #868E7C",
"/  c #838281",
"(  c #8A8680",
")  c #8A8E82",
"_  c #8B8B8A",
"`  c #938F87",
"'  c #918F8B",
"]  c #8F9488",
"[  c #93928B",
"{  c #9D968D",
"}  c #95988C",
"|  c #969594",
" . c #9D9894",
".. c #9C9B9B",
"X. c #A29D8B",
"o. c #A39E95",
"O. c #A39E99",
"+. c #9BA093",
"@. c #9EA398",
"#. c #AAA38C",
"$. c #A5A296",
"%. c #A9A293",
"&. c #A4A39D",
"*. c #AAA59F",
"=. c #B4AC93",
"-. c #B2AC9B",
";. c #A6A5A5",
":. c #ACABA5",
">. c #ACABAB",
",. c #ADB2A4",
"<. c #BAB2A2",
"1. c #B6B2AE",
"2. c #B9B4AE",
"3. c #B5B4B3",
"4. c #B8B5B4",
"5. c #BAB9B5",
"6. c #BDBDBD",
"7. c #C1B9A1",
"8. c #C9BFA7",
"9. c #C2BBB4",
"0. c #C2BFBA",
"q. c #CBC2AC",
"w. c #C5C2BD",
"e. c #C8C3BF",
"r. c #C4C4C3",
"t. c #CBC7C2",
"y. c #CDCAC5",
"u. c #CCCCCB",
"i. c #D2CECA",
"p. c #CFD0CF",
"a. c #D3D1CD",
"s. c #D9D3CD",
"d. c #D5D5D4",
"f. c #D8D5D3",
"g. c #DCDAD5",
"h. c #D7D8D8",
"j. c #DDDCDC",
"k. c #E2DCD6",
"l. c #E2DEDC",
"z. c #DFE0DF",
"x. c #E4E1DD",
"c. c #E9E4DE",
"v. c #E4E4E3",
"b. c #EAE6E3",
"n. c #EDE9E6",
"m. c #E6E6E8",
"M. c #ECEBEA",
"N. c #F0EBE6",
"B. c #F1EEEB",
"V. c #F3F0EC",
"C. c #F5F1EE",
"Z. c #F2F0EF",
"A. c #F9F3EE",
"S. c #F6F5F5",
"D. c #F5F3F2",
"F. c #FAF5F2",
"G. c #F9F6F4",
"H. c #F9F6F4",
"J. c #FBF8F6",
"K. c #FBFAF6",
"L. c #FDF9F7",
"P. c #FFFAF6",
"I. c #FCF9F6",
"U. c #FDFAF8",
"Y. c #FEFBF9",
"T. c #FFFEFD",
"R. c #FEFCFA",
/* pixels */
"                                                                                                                                                                                ",
"                                                                                                                                                                                ",
"                                                                                                                                                                                ",
"                                                                                                                                                                                ",
"                                                                                                                                                                                ",
"                                                                                                                                                                                ",
"                                                                                                                                                                                ",
"                                                                                                                                                                                ",
"                                                                                                                                                                                ",
"                                                                                                                                                                                ",
"                                                                                                                                                                                ",
"                                                                                                                                                                                ",
"                                                                                                                                                                                ",
"                                                                                                                                                                                ",
"                                                                                                                                                                                ",
"                                                                                                                                                                                ",
"                                                                                                                                                                                ",
"                                                                                                                                                                                ",
"                                                                                                                                                                                ",
"                                                                                                                                                                                ",
"                                                                                                                                                                                ",
"                                                                                        1 4                                                                                     ",
"                                                                                    1 * 1 8 7                                                                                   ",
"                                                                                    7 * 1 7 7                                                                                   ",
"                                                                                  W ~ n t t 7 1                                                                                 ",
"                                                                                % V J r 1 r r 1                                                                                 ",
"                                                                              ; j ~ I q 1 y r 1                                                                                 ",
"                                                                              t P #.J 3 7 f p 4                                                                                 ",
"                                                                            7 A %.-.Z 0 b Q U v 7 # =   , 1 1 , 1                                                               ",
"                                                                            m { 8.=.S G w.N.l.5.L , * = 1 , 1 1 1 1                                                             ",
"                                                                  1 1 1 * 7 G <.8.#.E &.n.T.T.B.O.7 * * 1 1 1 1 1 1 1                                                           ",
"                                                              1 1 1 , * % i ` q.7.X.o.f.L.L.Y.L.2.u & * 1 1 1 1 1 1 1 1                                                         ",
"                                                          1 1 1 1 1 * % * V -.7.#.o.w.B.Y.J.L.L.9.f # = < 6 6 1 1 1 1 1 * *                                                     ",
"                                                        1 1 1 1 1 * * * q T %.X.-.y.N.L.L.J.L.F.2.p + = 1 5 5 1 , > > > % * * * 1 1 1                                           ",
"                                                        1 ; 1 * % & % 1 y T $.:.i.B.J.J.F.G.S.b. .= + * * < > * * % * * * * > > 1 1 1                                           ",
"                                                      * 1 1 1 * * * r N T 5.x.b.J.Y.L.F.C.B.N.k.{ 8 = * + # + # & & * 1 * 1 1 1 1 1 < >                                         ",
"                                                    1 1 ; 1 1 * & O 0 L :.k.N.n.Z.Z.Z.B.b.l.h.l.i...R z + X X + % * 1 1 1 7 7 7 0 7 1 1                                         ",
"                                                  1 ; 1 1 1 1 1 * $ f &.x.F.V.l.s.a.p.d.d.d.d.z.n.v.h.;.x * + * < 1 1 7 1 7 e r r 7 1 1 1 1                                     ",
"                                                1 1 1 1 1 7 1 1 * - N y.G.Y.J.j.u.p.y.u.d.j.m.M.Z.S.S.m.;.z * > 5 7 7 7 7 e r r r r 7 1 1 1 > 1                                 ",
"                                                1 1 1 1 1 4 1 ; - 0 ! n.T.T.B.6.;.y.r.i.v.m.M.M.M.M.v.M.d.Y > 1 7 7 7 7 7 7 7 7 7 7 1 1 1 * 1 > 1                               ",
"                                            1 1 1 < < * 1 1 * % * w @.T.T.M.4.W ..a.r.w.z.j.j.z.v.v.j.v.x.| 7 1 5 4 1 7 1 1 1 1 1 1 1 1 1 > 1 1 1                               ",
"                                              1 1 1     * * & # O - } G.Z.5.D B t.B.n.b.B.h.p.p.d.d.d.h.h.>.r 4 2 1 1 - 1 > 1 1 < 1 1 1 1 1 1 1                                 ",
"                                                              # # 7 *.B.i.W 1 z n.J.V.m.v.r.r.u.u.r.6.r.u.3.7 * % % & & % * * > * * * * % >                                     ",
"                                                            * % ; g s.R.n...1 i x.J.M.g.m.j.z.v.j.j.h.z.v.r.7 # # # # # % % * , * * * % %                                       ",
"                                                          1 > * : g c.R.F.y.z v u.M.v.d.h.l.M.m.v.v.v.m.M.>.5 & & % * 1 1 1 1 1 > 1 * *                                         ",
"                                              7 5       1 1 1 > 3 d x.K.K.J.4.;.a.x.j.u.p.j.M.B.M.Z.S.S.h.R * # & * , 1 7 5 1 1 > 1 1 *                                         ",
"                                            1 7 1 1 1 1 1 5 1 1 7 d i.U.K.R.x.a.s.i.w.6.u.z.m.v.m.m.M.h...h o X & * 1 1 7 1 1 1 , 1                                             ",
"                                            *   1 * > 1 1 5 5 5 7 w ,.A.R.S.x.x.k.s.5.;.6.j.v.z.j.h.6._ h X . X # * * 1 1 1 1 1 1                                               ",
"                                                  1 1 1 7 r h h i 9 ^ x.F.M.j.M.B.b.u.3.6.j.z.h.6...B 5 X X X # % * * < < < 1 1                                                 ",
"                                                    1 1 7 q u n D C ] i.b.l.l.S.L.G.M.l.l.v.z.3.H h < & * * 1 * * * * * < 1                                                     ",
"                                                      1 ; ; = 1 k B L [ 9.t.r.D.R.L.G.C.B.B.z.| u * > > 1 7 5 1 1 1 * < 1                                                       ",
"                                                      1 1 = % # & 7 7 7 j i t 1.B.F.G.D.D.B.j.W 3 & * < 1 7 7 7 7 1 1 1 1                                                       ",
"                                                        2 1 * * & 1 > & - # + &.B.J.J.J.L.F.g.Y 3 & * > 1 1 7 7 1 1 1 1                                                         ",
"                                      f.D = 7 ;.        2 1 1 1 1 1 < - % # X | B.Y.J.J.Y.A.w.V 1 > > 1 1 1 1 1 1 1 1                                                           ",
"                                          1 % m i         1 1 1 < 1 1 > % o # T g.L.Y.L.T.b.[ t * > > < 1 1 1 < 1 1 1                                                           ",
"                                          7 1 i 1 #         = 1 1 1 1 < * $ O c ..g.L.R.R.i.F 1 * > < < 1 1 1 1 1 1                                                             ",
"                                        _ k t j i 7 1 i         1 1 1 1 1 * # * c [ f.D.V.>.j > , 1 1 1 1 1 1 1 1                                                               ",
"                                        ;.n r t r e j Y !         1 1 1 1 1 $ # - a L ) ] M * * 1 1 1 1 1 1 1                                                                   ",
"                                            * 7 7 7 M _ _ M 1               + # & 1 p k k   # *                                                                                 ",
"                                                  8 Y | / z 7 6 1             & > 1 e y                                                                                         ",
"                                                        R i e r 7 1 *         * 1 7 r r                                                                                         ",
"                                                          1 1 q r r 7 1 %     * 1 7 r 0                                                                                         ",
"                                                            1 7 e r r 7 7 7 1 < 1 0 r 7                                                                                         ",
"                                                                1 7 e e r t 0 1 7 q q                                                                                           ",
"                                                                      7 4 7 4 1 4 7 q                                                                                           ",
"                                                                        1 1 1 1 1 7 7                                                                                           ",
"                                                                              1 1 1                                                                                             ",
"                                                                                                                                                                                ",
"                                                                                                                                                                                ",
"                                                                                                                                                                                ",
"                                                                                                                                                                                ",
"                                                                                                                                                                                ",
"                                                                                                                                                                                ",
"                                                                                                                                                                                ",
"                                                                                                                                                                                ",
"                                                                                                                                                                                ",
"                                                                                                                                                                                ",
"                                                                                                                                                                                ",
"                                                                                                                                                                                ",
"                                                                                                                                                                                ",
"                                                                                                                                                                                ",
"                                                                                                                                                                                ",
"                                                                                                                                                                                ",
"                                                                                                                                                                                ",
"                                                                                                                                                                                ",
"                                                                                                                                                                                ",
"                                                                                                                                                                                ",
"                                                                                                                                                                                "
};
