/* XPM */
static char *b6788a6b92f148778007171e25bf29660ViPGboRXvYhLQUi[] = {
/* columns rows colors chars-per-pixel */
"60 60 218 2 ",
"   c None",
".  c #07090B",
"X  c #1D150D",
"o  c #091418",
"O  c #1A1514",
"+  c #1E1C18",
"@  c #221B16",
"#  c #2B221D",
"$  c #392717",
"%  c #38210E",
"&  c #171D21",
"*  c #0B1A25",
"=  c #211F21",
"-  c #192327",
";  c #2E2C23",
":  c #392B25",
">  c #382C27",
",  c #3E3027",
"<  c #2B3438",
"1  c #393839",
"2  c #232E33",
"3  c #47311B",
"4  c #55371C",
"5  c #492718",
"6  c #43332C",
"7  c #483728",
"8  c #543825",
"9  c #443A35",
"0  c #493D38",
"q  c #4A3933",
"w  c #523F37",
"e  c #442F27",
"r  c #643727",
"t  c #703A27",
"y  c #5A4428",
"u  c #5B4125",
"i  c #4A433A",
"p  c #5D4A36",
"a  c #5C443C",
"s  c #55473B",
"d  c #664829",
"f  c #634D33",
"g  c #63463B",
"h  c #6C5234",
"j  c #6A553B",
"k  c #63523C",
"l  c #745839",
"z  c #724431",
"x  c #7D603D",
"c  c #1D3B49",
"v  c #183747",
"b  c #193E51",
"n  c #363D40",
"m  c #383F42",
"M  c #1E4558",
"N  c #26414E",
"B  c #3A4549",
"V  c #244554",
"C  c #234A5C",
"Z  c #294A59",
"A  c #3E4B51",
"S  c #354954",
"D  c #37535E",
"F  c #2A5365",
"G  c #29566A",
"H  c #345563",
"J  c #375C6B",
"K  c #2B5A71",
"L  c #325E73",
"P  c #2A4F60",
"I  c #2E6178",
"U  c #326176",
"Y  c #346176",
"T  c #3F616D",
"R  c #4F4643",
"E  c #564B46",
"W  c #5C4942",
"Q  c #564844",
"!  c #5D514C",
"~  c #5E5544",
"^  c #434E54",
"/  c #445055",
"(  c #4B5356",
")  c #445359",
"_  c #49565D",
"`  c #4B595F",
"'  c #535759",
"]  c #654C41",
"[  c #6A4F45",
"{  c #6C5147",
"}  c #6D5248",
"|  c #6A5C4D",
" . c #6D5A44",
".. c #755E43",
"X. c #71574A",
"o. c #635650",
"O. c #6D5C56",
"+. c #6D5E58",
"@. c #675A55",
"#. c #715D55",
"$. c #796348",
"%. c #6E6553",
"&. c #6E695D",
"*. c #75635C",
"=. c #786758",
"-. c #79705C",
";. c #69614F",
":. c #4D5C62",
">. c #425F6C",
",. c #525E63",
"<. c #595F63",
"1. c #43626D",
"2. c #56656B",
"3. c #576367",
"4. c #4C6E7B",
"5. c #446776",
"6. c #596A71",
"7. c #536A74",
"8. c #636867",
"9. c #7A6A64",
"0. c #796E66",
"q. c #636F74",
"w. c #6D777C",
"e. c #7F7775",
"r. c #8A513B",
"t. c #9A5B41",
"y. c #A25F45",
"u. c #836A4B",
"i. c #8D7453",
"p. c #8A7558",
"a. c #997E5D",
"s. c #967A59",
"d. c #836E52",
"f. c #AB6549",
"g. c #B1684C",
"h. c #816B63",
"j. c #806F68",
"k. c #88786A",
"l. c #937F63",
"z. c #8C7972",
"x. c #847B76",
"c. c #937F77",
"v. c #9A845F",
"b. c #8E826A",
"n. c #93836B",
"m. c #9E8767",
"M. c #9B8C72",
"N. c #94827A",
"B. c #9A857C",
"V. c #97847B",
"C. c #9E9377",
"Z. c #8D8B7B",
"A. c #A68C6B",
"S. c #A08B78",
"D. c #AC9473",
"F. c #A79679",
"G. c #B29976",
"H. c #B39A77",
"J. c #AB906C",
"K. c #B9A179",
"L. c #3F6C80",
"P. c #567986",
"I. c #457185",
"U. c #5D8595",
"Y. c #5A899B",
"T. c #5B818F",
"R. c #618B9A",
"E. c #628592",
"W. c #7D888C",
"Q. c #608FA2",
"!. c #6693A4",
"~. c #6893A3",
"^. c #6E9CAD",
"/. c #6997A8",
"(. c #709EAF",
"). c #6F9FB1",
"_. c #719FB0",
"`. c #79A6B6",
"'. c #9B8A82",
"]. c #928681",
"[. c #879196",
"{. c #80898D",
"}. c #A28C84",
"|. c #A59289",
" X c #AC968D",
".X c #A89B85",
"XX c #B79F80",
"oX c #AD9C94",
"OX c #B19C94",
"+X c #B3A284",
"@X c #BAA383",
"#X c #B9A78A",
"$X c #B7A49D",
"%X c #89AFBD",
"&X c #BBAAA3",
"*X c #AAB5BA",
"=X c #A5B1B6",
"-X c #A0ADB2",
";X c #C0AA8A",
":X c #C2AE91",
">X c #C9B799",
",X c #D2BF9B",
"<X c #C6B6AD",
"1X c #C9BAB4",
"2X c #C7B7B0",
"3X c #D0C09C",
"4X c #DCCAA3",
"5X c #D4CCA5",
"6X c #CFC9A1",
"7X c #E3CEA6",
"8X c #E6D1A9",
"9X c #EAD5AC",
"0X c #E9D5AB",
"qX c #F0DBB1",
"wX c #8BB4C3",
"eX c #94B8C5",
"rX c #ADCAD4",
"tX c #AAC8D2",
/* pixels */
"                                                                                                                        ",
"                                                                                                                        ",
"                                                                                                                        ",
"                                                        7                                                               ",
"                                                        8                                                               ",
"                                                        d.                                                              ",
"                                                      p $.p                                                             ",
"                                                      y 6.%.                    [.[.                                    ",
"                                                        F C                     {.W.                                    ",
"                                                      o J 4..                   w.w.                                    ",
"                                                      , 5 4 $     *.'.oX        - -                                     ",
"                                                    $ 8 d x d u ! 9. X&XoX      _ _                                     ",
"                                                  % l l p.m.s.5 $ E N.&X2XB     :.^                                     ",
"                                                7 l ;.A.K.+XH.s.% $ +.OX<X3.M   ,.^                                     ",
"                                                d n.$.:X>X:X+Xv. .% R |.&Xx.J - :.^                                     ",
"                                              7 $.$.S.>X>X:X+XA.n.f , c.$XN.4.K b A                                     ",
"                                              4 M.=.#X:X>X@X@XD.n.f e j.oX'.T Z 1.c                                     ",
"                                              d n.u.:X;X>X@X@XD.M. .$ 9.}.Z.D F _.T.N                                   ",
"                                            F.y $.$.:X@X#X@XG.XXl j g %.'.9.1.Y.^.^.1.                                  ",
"                                            F.3 h l.D.D.H.H.A.l.$.8 d.XXB.' 1.(.^.(.1.                                  ",
"                                          5 *.b.i.k ..s.a.G.G.h u.u  .k.V.n 4.(.^.(.Z.                                  ",
"                                          f.r 4X8X3X7 p  .....p K.i ! k.z.< 1.~.(.E.l.                                  ",
"                                        z t.r 4X7X8X7Xm.j j #X9X8XD 8.9.9.1 o L 1.4X                                    ",
"                                        f.f.r.b.+X-.4X8X8X8X4X4XOX>.6.+.+.@ ~ l.F.0X                                    ",
"                                      e g.t z 5 &.,Xb.8X8X%.b.3X) R.E.O.0 : 1 ^ 6.                                      ",
"                                      t.8 z.'.j.i =..X7X,XD.-.N U.^.!.O.: q , A 6.                                      ",
"                                      r @. X|.c.o.| i.b.p H.< !.I././.0 w } a ^ ,.                                      ",
"                                        c.$XOX|.k.R s M.A.9 J ).I.(.!.e [ { { ^ `                                       ",
"                                        oX2X&X X'.k.! i 9 i !.^.~.Y.1.a { { k ' ,.l                                     ",
"                                        &X1X1X&XOX}.z.*.@.! ( ^.(.Z c [ { { ] 3.` ;X                                    ",
"                                        &X2X1X2X&X X}.V.0.O.o.^.4.* L V } } X.` :.H.                                    ",
"                                        B x.&X2X&X|.B.c.0.O.o.< C b I I g } @ / _                                       ",
"                                        F L M M S n 1 1 > = 6 [ V G F L S q   ) _                                       ",
"                                        I.R.`.~.!.Z & e , ] } } m L v L I     ` /                                       ",
"                                      F F C H I.Q.c : : a [ { { R K M L F     :.^                                       ",
"                                      P.%XwXwX%XE.Z : e [ { { } Q L.K C       :.)                                       ",
"                                  o 1.eXrXrXtXtX`.(.C 6 } { { { ] L F         :./                                       ",
"                                  D P.%XR.F P K U.^.P 7 } { } X.q             :./                                       ",
"                                  D P.F R  X} 9.E C Y 8 ] g e                 2.^                                       ",
"                                  >.K = s W c.h.Q . K s.A.A.X                 2.A                                       ",
"                                  H v O c.c.] 9.| o B J.K.G.y                 6.A                                       ",
"                                    V O w h.OX#.> . X D.u.i.$.                6.A                                       ",
"                                      O c.#.X.W !     h D.@X3                 6.A                                       ",
"                                        6 }.*.}.!       $.l                   6.^                                       ",
"                                        9 a }.q 9                             6.A                                       ",
"                                        @ B.w *.!                             2 -                                       ",
"                                          q B.z.6                             [.'                                       ",
"                                          , Q W >                             =Xq.                                      ",
"                                          9 C.#XE                             *X2.                                      ",
"                                          F.7X7X0X                          < *X'                                       ",
"                                          9X7X7X7XF.                        1 *X(                                       ",
"                                          9X7X7X8XqX                        ^ =X                                        ",
"                                        M.>X8X8X0X# 6X                      n q.                                        ",
"                                        >X%.k.4X7X+                           -                                         ",
"                                        ;.-.# 5X6X                                                                      ",
"                                          C.; 5Xi                                                                       ",
"                                              5X                                                                        ",
"                                                                                                                        ",
"                                                                                                                        ",
"                                                                                                                        "
};
