/* XPM */
static char *_db10cf1a72641e7dbfe311ee04f200c0YuULlekLdFtJhgi[] = {
/* columns rows colors chars-per-pixel */
"62 62 165 2 ",
"   c None",
".  c #0D0D0D",
"X  c #141414",
"o  c #181717",
"O  c #171818",
"+  c #1C1C1C",
"@  c #1E201E",
"#  c #20201F",
"$  c #242424",
"%  c #282727",
"&  c #252A22",
"*  c #2A2A2A",
"=  c #2A3125",
"-  c #2E332A",
";  c #31312F",
":  c #333E2B",
">  c #323232",
",  c #393B35",
"<  c #3B3B3B",
"1  c #413F3E",
"2  c #34422C",
"3  c #36482C",
"4  c #394F2D",
"5  c #38502B",
"6  c #3A4432",
"7  c #3D4A35",
"8  c #3E5131",
"9  c #41413E",
"0  c #414C38",
"q  c #44533B",
"w  c #424241",
"e  c #494747",
"r  c #474842",
"t  c #4B4948",
"y  c #555453",
"u  c #565851",
"i  c #5D5C5B",
"p  c #526244",
"a  c #556947",
"s  c #666257",
"d  c #6B6C5B",
"f  c #666665",
"g  c #686664",
"h  c #6D6D6D",
"j  c #687160",
"k  c #727067",
"l  c #717171",
"z  c #787671",
"x  c #7C7A74",
"c  c #777778",
"v  c #7D7C7B",
"b  c #807B74",
"n  c #807F7F",
"m  c #858577",
"M  c #89867F",
"N  c #928D7A",
"B  c #8E8A85",
"V  c #8D8C8A",
"C  c #989280",
"Z  c #97938D",
"A  c #98918A",
"S  c #95998E",
"D  c #949494",
"F  c #9A9A9A",
"G  c #A49D8B",
"H  c #A9A28C",
"J  c #A6A29F",
"K  c #A8A399",
"L  c #B4AC96",
"P  c #B6AE9B",
"I  c #A9A7A4",
"U  c #A7A8A7",
"Y  c #ADADAB",
"T  c #B3ACA4",
"R  c #B1AEA9",
"E  c #BEB6A0",
"W  c #B5B3AD",
"Q  c #B6B6B5",
"!  c #B8B7B6",
"~  c #BDBCBC",
"^  c #C7BEA4",
"/  c #C3BDB5",
"(  c #C3BDB8",
")  c #CCC3AB",
"_  c #D0C7AB",
"`  c #CAC2B7",
"'  c #C5C1BE",
"]  c #CAC3BA",
"[  c #D4CBB1",
"{  c #D0C7BA",
"}  c #D9D0B7",
"|  c #C4C4C4",
" . c #C9C7C6",
".. c #CAC9C7",
"X. c #CBCBCB",
"o. c #D9CEC2",
"O. c #D0CECD",
"+. c #DFD3C7",
"@. c #D3D0CC",
"#. c #DCD5CF",
"$. c #D3D3D2",
"%. c #D9D6D3",
"&. c #D7D8D7",
"*. c #DCD9D5",
"=. c #DDDCDC",
"-. c #E5DDD5",
";. c #E2DEDC",
":. c #E6E2DD",
">. c #EAE3DC",
",. c #E3E3E3",
"<. c #EBE6E2",
"1. c #EDE8E4",
"2. c #EAE9E9",
"3. c #EBEAEA",
"4. c #EFEBE9",
"5. c #ECEBEB",
"6. c #EDEAE8",
"7. c #EFECEA",
"8. c #EFEFEF",
"9. c #ECECEC",
"0. c #EBEAEA",
"q. c #F0EBE5",
"w. c #F1EBE5",
"e. c #F1EDEB",
"r. c #F0ECE8",
"t. c #F2EEEB",
"y. c #F3F1EF",
"u. c #F6F1ED",
"i. c #F6F2EF",
"p. c #F5F0EC",
"a. c #F3F3F3",
"s. c gray94",
"d. c #F6F3F1",
"f. c #F7F3F1",
"g. c #F5F2F0",
"h. c #F7F4F1",
"j. c #F7F5F3",
"k. c gray96",
"l. c #F6F6F6",
"z. c gray97",
"x. c #F6F4F3",
"c. c #F9F4F2",
"v. c #FBF7F3",
"b. c #FCF7F2",
"n. c #FBF7F5",
"m. c #FAF6F4",
"M. c #FBF8F6",
"N. c #FAF8F6",
"B. c #FCF8F5",
"V. c #FDF9F6",
"C. c #FCF9F7",
"Z. c #FDF9F7",
"A. c #FCF8F6",
"S. c #FDFAF7",
"D. c #FEFAF7",
"F. c #FDF9F7",
"G. c #F9F9F9",
"H. c #FDFAF8",
"J. c #FDFAF9",
"K. c #FEFBF9",
"L. c #FFFBF9",
"P. c #FFFCFA",
"I. c #FFFEFB",
"U. c #FFFFFD",
"Y. c #FEFBF9",
/* pixels */
"                                                                                                                            ",
"                                                                                                                            ",
"                                                                                                                            ",
"                                                                                                                            ",
"                                                                                                                            ",
"                                                                                                                            ",
"                                                                                                                            ",
"                                                                                                                            ",
"                                                                          $                                                 ",
"                                                                        * * $ $                                             ",
"                                                                        * > $ $ $ $                                         ",
"                                                                      > < > $ * * * $                                       ",
"                                                                      > , * % > w , $ *                                     ",
"                                                                    * , , % $ + > w < > % $                                 ",
"                                                                    > < * * %   . % > < 1 * $                               ",
"                                              $ +                 * 1 > * $ +     . + > 9 < * *                             ",
"                                        * $ * $ * * $ $ $ $ $ $   ; 9 > & $ X         X * < < * +                           ",
"                                      $ * $ * $ $ $ $ $ $ * $ * Z x p = $ + .           + % < < < O.                        ",
"                                    * $ $ $ $ $ $ $ $ $ $ $ * J N.A.>.u & $ + $             + * V f |                       ",
"                                  $ $ $ $ $ $ * $ $ % $ $ $ g 1.P.A.P.:.6 + O % % * $ %       - | Z h * $                   ",
"                                $ * $ * ; * * $ $ $ $ $ $ e ( A.A.P.A.P.Q 5 X + $ $ $ $ $       w | w > > * $               ",
"                              % $ $ $ * ; > ; $ * + + + * R >.J.P.A.A.P.b.r . O + $ $ * $ *       $ # 6 w w > ; *.          ",
"                            $ $ $ + $ $ * * * * * * + O w X.u.J.A.P.J.A.A.> X X $ $ $ $ $ % $       # * w y w ; ;.          ",
"                      % $ $ $ % $ + + $ + $ * $ $ * $ o h *.1.A.J.P.A.A.u.+ $ X $ $ % $ * $ $ $       . * > , O     O.      ",
"                    % $ % $ $ $ $ $ + + + + + $ O O * w Y 2.a.x.P.G.J.v.-.+ + * + O * $ $ $ * *         A o $   b.          ",
"                $ $ $ $ $ $ * * $ $ $ . . . . X # i ~ | O.=.;.=.p.A.J.A.U.6.( T q $ # X O + $ *         ,.  o ;             ",
"              + $ $ $ $ * $ > > $ $ + + + . o l =.;.&.=.,.2.,.! ! 1.A.A.N.:.*.-.R | D + X $ $ $ $               t.t.        ",
"          + + + + $ $ $ % $ * $ $ + + O O $ ~ s.k.3.,.=.,.,.=.Y U X.w.i.,.*.d.G.-.7 e I > $ * $ *                           ",
"      $ % $ $ + $ + + $ $ # + + + O + + X l s.l.a.l.G.a.3.,.=...Q ] -.*.:.a.J.J.i.5 - < c w > * * $                         ",
"    % $ $ % % $ * $ $ $ + X X X X . . . O &.2.,.,.,.2.3.G.2.| =.=.=...%.5.A.A.A.A.p < $ * > > * $ $                         ",
"    % $ $ $ $ $ $ $ $ $ * * * $ $ * $ * > $.&.,.,.,.,.3.9.=.9.X.2.d.' Y ] n.A.J.J.a > $ $ * * $ $ $ $                       ",
"    $ $ $ $ $ * * * * * $ $ $ $ $ * $ * e ..| ~ Q X.$.,.,.,.3.$.v.J.5.+ ; 5.J.J.v.8 % $ $ * * $ $ $ $   $ $                 ",
"        $ $ * * > , > > > > > > > ; * * w ,.,.,.,.=.$.~ Q X.a.a.A.w.a.* %  .Y.P.w.2 $ $ $ $ $       * > $   $               ",
"          $ $ $ > < < < > > > > > > ; $ $ ,.,.,.,.,.,.,.,.=.J.a.t.t.1.$ $ n a.A.` - + + $             $                     ",
"            $ $ * , > > > % * * $ $ $ $ * $.5.,.3.3.3.3.,.3.-.S N.t.z ; D u.A.>.: o +                                       ",
"            $ $ $ * % * * $ $ $ $ $ $ $ $ i e.G.G.G.G.k.2.e.=.~ <.x i ;.p.D.D.a.3 + O X                                     ",
"              * $ $ $ $ $ $ $ $ $ X . . . X F ,.2.,.,.,.,.X.X...&.@.p.U.N.J.P.@.: + + + $ $ +     $ $                       ",
"              $ $ $ $ $ $ + $ + X O X X o X $ f X.;.%. .=.,.=.@.(  .;.N.J.P.p.u % $ $ $ $ $ $ $ $ $ * $                     ",
"                    + + + + $ $ + $ $ $ $ + $ + + o.1.w.e.1.t.k.a.p.;.v.J.v.W 7 $ $ $ * > * $ % $ $   $   $                 ",
"                        $ $ $ $ $ $ $ % $ $ $ X 1 1.J.J.n.k.A.P.P.v.:.1.w.K 0 + + $ $ * $ $ $ $ $ *                         ",
"                          $ $ % * $ > > * $ X # T N.N.P.A.A.J.J.P.n.d.*.V j M $ X $ $ $ $ $ * $ *                           ",
"                            $ $ $ $ * * $ + + $ +.A.A.A.P.J.A.w.#.z d G e $ * O + + $ * $ $ $ $                             ",
"                              * $ * $ $ $ + $ $ >.A.A.P.J.P.>.m N L ) R $ $ + + $ $ $ $ $ $                                 ",
"                              $ * $ $ $ $ $ $ $ q.A.P.A.P.<.b G _ } ] > + O $ * * $ $ $ $                                   ",
"                                $ $ $ $ $ $ $ $ / u.A.J.1.k N L [ { g $ + $ $ $ $ $ $ *                                     ",
"                                            $ $ : M >.-.v : H ^ _ R * $ * $ $ $ $ $                                         ",
"                                                $ , q : - , L _ / >                   >                                     ",
"                                                $ 1 9 * $ s E T < $                                                         ",
"                                                $ < , $ $ C P < $                                                           ",
"                                                $ < , * > G * $                                                             ",
"                                                $ > > * B ( *                                                               ",
"                                                % > , O X $                                                                 ",
"                                                  * * $ $                                                                   ",
"                                                  $ $                                                                       ",
"                                                                                                                            ",
"                                                                                                                            ",
"                                                                                                                            ",
"                                                                                                                            ",
"                                                                                                                            ",
"                                                                                                                            ",
"                                                                                                                            ",
"                                                                                                                            "
};
