/* XPM */
static char *_fbfb866c49849e7d9791ab1d8609c0a6znCwCXNsEsA7Jnj[] = {
/* columns rows colors chars-per-pixel */
"60 78 252 2 ",
"   c None",
".  c #190E07",
"X  c #1D120B",
"o  c #17120C",
"O  c #1D1812",
"+  c #0E0F08",
"@  c #24150B",
"#  c #29170B",
"$  c #331C0C",
"%  c #241B13",
"&  c #2C1D13",
"*  c #231B16",
"=  c #321E12",
"-  c #2D241D",
";  c #292519",
":  c #322315",
">  c #33241B",
",  c #342A1D",
"<  c #3C2B1D",
"1  c #3B2617",
"2  c #382510",
"3  c #2A2725",
"4  c #332C23",
"5  c #3C2C23",
"6  c #362B27",
"7  c #3C3323",
"8  c #34332C",
"9  c #3C342B",
"0  c #3A3728",
"q  c #393933",
"w  c #332F2F",
"e  c #25201A",
"r  c #432C1C",
"t  c #462B17",
"y  c #4C321C",
"u  c #47321E",
"i  c #53341C",
"p  c #58361B",
"a  c #4F2C16",
"s  c #653C1D",
"d  c #422E22",
"f  c #492F20",
"g  c #433324",
"h  c #4B3425",
"j  c #42352A",
"k  c #443B2C",
"l  c #4C3B2C",
"z  c #493828",
"x  c #543B24",
"c  c #5B3C25",
"v  c #533C2A",
"b  c #573A26",
"n  c #443B33",
"m  c #4C3D32",
"M  c #493A37",
"N  c #513E37",
"B  c #613C23",
"V  c #3E4436",
"C  c #3C4024",
"Z  c #6D421D",
"A  c #48432D",
"S  c #5C432A",
"D  c #57442B",
"F  c #444334",
"G  c #4A4433",
"H  c #44423A",
"J  c #4C443B",
"K  c #4D4B3B",
"L  c #484A38",
"P  c #544334",
"I  c #544A35",
"U  c #53443A",
"Y  c #534C3B",
"T  c #5B4C3C",
"R  c #5B4734",
"E  c #4F513D",
"W  c #5A543B",
"Q  c #55533B",
"!  c #63452B",
"~  c #6B4A2B",
"^  c #684626",
"/  c #764C26",
"(  c #795228",
")  c #664C36",
"_  c #68543B",
"`  c #765837",
"'  c #7C613C",
"]  c #3F4A45",
"[  c #494B43",
"{  c #554745",
"}  c #4C5245",
"|  c #545544",
" . c #5C5B45",
".. c #575849",
"X. c #595953",
"o. c #574F54",
"O. c #635C45",
"+. c #665747",
"@. c #745C46",
"#. c #645956",
"$. c #624C4B",
"%. c #5B624D",
"&. c #5D6354",
"*. c #5E675C",
"=. c #50744C",
"-. c #66644B",
";. c #636455",
":. c #6C6B53",
">. c #646B5B",
",. c #6B6D5C",
"<. c #666758",
"1. c #746B56",
"2. c #6D745C",
"3. c #67745A",
"4. c #73735C",
"5. c #79765A",
"6. c #736648",
"7. c #5F6C61",
"8. c #696B64",
"9. c #6C7363",
"0. c #6B7768",
"q. c #747463",
"w. c #757A65",
"e. c #7B7B63",
"r. c #747B6B",
"t. c #7B7D6B",
"y. c #78746A",
"u. c #747B72",
"i. c #72756E",
"p. c #865728",
"a. c #835D37",
"s. c #886439",
"d. c #936A35",
"f. c #8A6F4F",
"g. c #827C68",
"h. c #857B75",
"j. c #806960",
"k. c #7B826D",
"l. c #768669",
"z. c #768373",
"x. c #7C8372",
"c. c #7A8878",
"v. c #7B9277",
"b. c #748A6A",
"n. c #82836C",
"m. c #88876A",
"M. c #9C956D",
"N. c #838573",
"B. c #838B75",
"V. c #8B8C74",
"C. c #838C7A",
"Z. c #8B8D7B",
"A. c #898477",
"S. c #948D76",
"D. c #83937C",
"F. c #8C927D",
"G. c #879777",
"H. c #959273",
"J. c #94947D",
"K. c #9C9A7D",
"L. c #9A9777",
"P. c #938A6B",
"I. c #A39B75",
"U. c #A49D7A",
"Y. c #A89E7A",
"T. c #A1956D",
"R. c #A6A27B",
"E. c #B0AA7F",
"W. c #908C68",
"Q. c #7B7F83",
"!. c #7E8A85",
"~. c #868C84",
"^. c #8C9383",
"/. c #8E9B84",
"(. c #8B958A",
"). c #859484",
"_. c #939583",
"`. c #949B84",
"'. c #9B9C84",
"]. c #949C8B",
"[. c #9C9D8A",
"{. c #979788",
"}. c #8D9995",
"|. c #949D93",
" X c #979D93",
".X c #8E8A8E",
"XX c #A19E85",
"oX c #8BA487",
"OX c #9CA285",
"+X c #9CA18C",
"@X c #95A48A",
"#X c #95A393",
"$X c #9CA393",
"%X c #9CA59B",
"&X c #9BA998",
"*X c #8EA393",
"=X c #A4A184",
"-X c #AAA682",
";X c #A3A48C",
":X c #ACAB8C",
">X c #AAA889",
",X c #B2AD8C",
"<X c #B2AB85",
"1X c #B6B18D",
"2X c #A3A592",
"3X c #A4AA95",
"4X c #ABAC94",
"5X c #A4AC9B",
"6X c #ABAE9B",
"7X c #A3A79B",
"8X c #B2AE93",
"9X c #B1AA95",
"0X c #ACB29C",
"qX c #A9B299",
"wX c #B4B294",
"eX c #B9B494",
"rX c #B3B49C",
"tX c #B4B99D",
"yX c #BCBA9C",
"uX c #BBB698",
"iX c #AEB087",
"pX c #9CAAA3",
"aX c #A5AEA2",
"sX c #ACB4A2",
"dX c #ABB6A8",
"fX c #B2B5A2",
"gX c #B5BAA3",
"hX c #BABCA4",
"jX c #B5BBAA",
"kX c #BABDAA",
"lX c #B7B6A3",
"zX c #B6BEB2",
"xX c #AEB9B1",
"cX c #919FA3",
"vX c #C2BD9D",
"bX c #C2BEA2",
"nX c #BDC1AC",
"mX c #BDC2A5",
"MX c #BDC3B2",
"NX c #BBC7B7",
"BX c #BAD1AF",
"VX c #C3C4AC",
"CX c #C7C7AC",
"ZX c #C2C5B2",
"AX c #C6CBB7",
"SX c #CED2BB",
"DX c #C4C19E",
"FX c #CCD4C8",
"GX c #D3D8C6",
"HX c #CBD5CB",
"JX c #DEE1CE",
"KX c #BDCDC5",
/* pixels */
"                          l.                                                                                            ",
"                        <.x.-.      '.                                                        >.,...                    ",
"                        ..1. .    %X#.                                                m...2.V K.J.                      ",
"                      ^.jXtXl.} ^.G.u.                                                 XdXB.qX$X$XmX0X                  ",
"                      `.3XF.:.).F.l.r.                                                '.OXk.l.$X_.NX                    ",
"                      pX3.$XQ xXsX'.c.                                              fX2Xm.n.| ].+Xn.                    ",
"                    B.aXcXL E 2.^.+X~.                                                6XOXH.o.&X$X3X                    ",
"                  @X2.4.V.qX8 N.%X5X                                                  (.].F [ A mX+X;.                  ",
"                K.-.~.g.1.q.%XI                                                           3Xt.2X[.C.2.2.                ",
"                t.i.J.;.C._.sX                                                              kXC.u.r.~.2.                ",
"                :.L.'.,.w.iXf.E     W A H >.D.z.u.0.8.A.~.~.~.pXpXpXr.z.c.&Xc.r.>.G.      9.;X#XkX:.^.^.                ",
"                4.M.A.-.; 7 0 &.  *.D.3.qX%.B.D.7XdXzXkXzXzXkXjXzXzXzXNXsX).B.9.7XF }     z. .5.,.*.sXD.                ",
"                H.T.{.&X}.!.}.#X}.dXxX*Xk.l.%.r.$XMXjXkXMXkXkXsXjX XjXsXsXv.2.$X:X2.0XpXpX0.3 8 X.!.5X[.                ",
"          X.*.v.oXW.m.W.L.H.r.v.B.b.5.2.E 0 L &.9.5XsX;X5X`.MX6X0X7XgX#X[.c.C A | `.sXBXKXKXNXjXjXnXNXdX                ",
"          !...V Y D W ) _ I _ 0 0 4 , A  .I G D.9.| ..4.4.V x.&.J.k.:.:.9...e.-.| 7 E V %.:.-.:.-.:.e.:.} 4.`.          ",
"          w.u.=.; 7 X.9.w.t.4.2.} L 2.F Q A q C %.3 &.w.z.B. ...C.X.).4 X.| 0 k F 7 _ Q E %.-. .Q Q Y F D.B.9.OX        ",
"          <.m.A ; 8 -.-.:.6.O.O.Q Y :.n.n.n.L 8 } 8.c.-.x.>.c...;.[./.| A G c.C.u.H J.].$X=XaX3X'.OX9.o V F.0.          ",
"          #X].>.V 7 , 0 Q W W  ._ k F F k L &.xXe.i.^.0.c.aX].|.L *.[.C.~.8.N.0 0 0 , A k k 0 9 0 g A O , E /.          ",
"          dX$X/.3.L F k A %. .Q | q C n C q } &.|.[ C.W ~.(.Z.[.....C.>.#X;.:.G L I G 4 F F G K F 0 8 ; H pXaX          ",
"          dXZ.5XF.:. .X.5.B.B.F.K.3.0.>.;.L &.} c.xXr.dXC.c.t.N.#X(.~.pX&.4.O.:.4.:.<.| t.2.2.t.,.} L V 0.aXgX          ",
"          dX5XOX5Xc.2.u.t.].^.[.`.A._.^.^.2.0 ).~.*.K :.&.C.C.w.V ..*.<.x.4.S.K.M.H.J.w.F.^.).[.`.&.*.} ].&XsX`.        ",
"      F.F.5X2X3X[.z.t.).^.[.$X7X^.[.{.^.^.N.*.u.(.t.o (.| X.,.<.!.....[.Z.,.L.'.'.[.'.N.+X].{.3X#X;.8.*.&X5XF.&X$X      ",
"  #X/.F.e.Z.+XqXfX^.jXOX`.[.L.J.'.;X6X{.`.F.u.c.[ [.(.C.#X3.>.).5X$Xr.r.'.[.;X'.3XC.wX6X0X4X0X3X>XtX+Xn.#X|.3X-.g.qXNX  ",
"  0.c.$X5X2X .].%.'.fXJ.n.n.1.5.e.'.N.t.t.h.g.u.| J.; ;.O  X].4 9.X [ q._.H.N.V.'.+X=XF.m.H.H.H.B.8X$XB.| N.n.u.z.0.x.  ",
"  c.!.Z.[.[.%XaX#X_.3X;X~.6X_. XF.Z._.g.m.J.e.;.I g.O r.^.aX&Xi.6X% [ | w.g.m.m.J.J.Z.`.2XV.A.J.&X0X0X4X#X3X XjX3X&XjX  ",
"&XaX$Xn.[.4. .9.%X'.rX:Xz._.'.`.N.aX6X1XK.$XN..X@.+X*.V G <.O. .%.8.^.q '.[.lXjX3X$X3X$X3X;X+XqX2X3XsX2X%.:.N.0X6Xz.dX  ",
"  aXkXl.O.&.~.} 4X;XrX>Xm.X.2Xt.V.XX[.:X2X%X2X:XP.9XrX>.z.X.2.F.| C.sXF.^.;X;XfXsX6XjX0X .;X3X .'.wXsX6X].rX$X,.4.C.].  ",
"%Xu.0.aXZ.^.F.(.-X4XlX-XV.'.'.n.9.#.<.,.,.,.W D j.-.g.F F |  .A - 7.&.q.Y 1.1.5.4.4.<.,.k.+X2Xk.[.6XsXaXN.N.i.&.sX9.e.  ",
"  xXD.4.g.C E '.> I 0X<XXXq.j.-.J.% > , 7 7 7 u D ) I A u A A A A z I A I A g 0 5 , ,  .k._.:.J.3X3X_.N.2X-.2X[.rXjXk.  ",
"    2.n I L   -.X.<.VXeX'.{.4.Z.'.+ X @ @ . . @ @ # # . X X . @ . @ # # @ @ X # & @ . <.;Xg.m.+X;XqXx.0 m.  Z.K 1.      ",
"              H.n.q.rX1X6XaXfX7XK.* o X @ . @ @ $ # $ $ . . @ . # 2 $ t t t @ 2 = = + t.3X4X+X4X3X3X[.t.&.     .N.      ",
"              ;XM.m.8X,X4XbXuX6XM.- % O O & > ; # @ # @ o + % : = $ > r < 5 > & o X + t.2X4X>X'.3X3X2Xw.6X              ",
"                S._.4X-XXX9XrXsXL.; & * * < 5 5 : < 1 : O @ - 5 u x x c ) ! d & O & o r.[.7X5X+X;X3X3Xq.                ",
"                z._.wX6XrXeXrX4XP., 3 % * < h z h h 5 5 % o X d h x b R m N d > @ % o i.2X2XqXfXAX6XfXB.                ",
"                w.| XX'.9X:XrX9Xm.; . = = # q g g j 8 - . & # @ 4 9 j j 9 n 1 % & @ . z. X:X'.2X0X8X'.N.                ",
"                    3X-XY.8XyX9XK., d l h h 5 7 & % 6 5 h > 5 x f j % % > j ! d R - X 9.$X:XA.;X+X0X2X                  ",
"                    -.<XY.9XbXbX-Xg $ - & b h b h 7 r j d 4 d x S h l l < l ~ & > * = y._.4X2X3X[.e.                    ",
"                    :.R.Y.eXvXvX<X7 l 1.@.l n ! z j p n m { { ) x S h j , v ! U 1.{ & 8._.+XJ.3X;XL.                    ",
"                    C.<XY.Y.bXvXR.% 1 < < % M S j n u n - d j 6 m m 9 9 9 M j d d > X w._.[.A.+X2X4X                    ",
"                    {.<XU.eXbXuXI.& b : d r r 1 8 9 : 2 c 9 3 z t * q M H 4 f h * 3 @ r.{.2X[.XX'.wX                    ",
"                    XX-XI.8XuXvXR.: v q j i t P ) _ U $ i H w l i J q q M M i v w w & <.&X4X'._.;XyX                    ",
"                    K.-XY.vXvXvXI.; R I n z ! J o.y.[ $.S U U R r 4 U X.{ 6 h ! Y n = >.+X;X_.J.;XuX                    ",
"                    '.E.U.eX9X1XM.O 2 5 4 , h $.U @._ g 1 h 5 < t J j ) v U 1 > 3 & X r.+X2X[.+XL.8X                    ",
"                    XXR.U.XXvXXXM.& x P < i & D m R R > i 9 J b r n y #.^ n y f 6 - X t.+XlXlX;XXXvX                    ",
"                    XXU.Y.uXyXyXM.: g 7 z ! P l b ~ ~ { g Y q P t M k 4 P m c h 6 9 O r.{.4XrXXX9XbX                    ",
"                  AXdXY.-X,XrX1XI.: > n 5 v = x , 5 D & 6 9 J 6 a M q o.4 r i 6 H q * k.+XhX4X2X4XvXlX                  ",
"                  HXdXI.U.eX<X1XL.@ 6 T 5 y s n n G U a & [ 8 9 u @ q j 8 : p M 6 5 - x.5XlXtX4X+XhXjXjX                ",
"              dXkXkXGXI.M.eXtX1XM.= = +.l ^ ! 9 8 8 { v > 9 3 < t n ;.8.J n ^ : 4 3 X Z.rXtXhX0X2XVXAXdXjX              ",
"              k.).{.kXR.-X<XwX1XM.< u K c ^ { K o.#.X.X.y * ; l v P ~ J ~ l ^ i 3 * @ V.3X6XlX6X[.kXt.4.q.              ",
"              x.2.k.c.R.-X:X<XuXI.u x k c ^ h u c ~ c h p F q l t z 6 5 M l / p 9 9 % F.lXlXfX0X[.9XP.-.                ",
"                0XfXsXI.Y.>XyXeXR.u c { ! S t 9 > > d 1 y k 8 D i $ N 6 5 = / p N 9 & '.6XVXfX0XaXbXrXXX                ",
"                gXkXjXR.R.,XyX1XK.t ! D / S D k j - n R i k 4 S l { W | +.} v p j 6 & {.fXlX6X4X7XbXrX_.                ",
"                jXtX0X:XI.eXvX1XM.7 c i / x d v c v h a b v H D > 8 6 5 d 3 h c d 5 & {.2XwX:X4XXXZXrX4Xg.              ",
"                fXhX0XM.M.1XyX1XL.< x b ~ ^ ) d.d.f.$.s.l N n J R P _ @._ T ) B d d & ^.+XkXlX2X9XbXuX9X2X              ",
"              fXjXhX0XL.T.eXeXyXL.u i R ! ~ a.s.s.s.a.s.9 n 9 [ } #.T { R { ! ^ f 5 & Z.6XhXkX$X4XZXrX9X6X5X            ",
"        HXHXnXfXmXtXwXI.I.VXuXrXK.y i ! ! / ( a.N a.a.s.B l 8 8 q l $.) _ { v ! j > : Z.sXlXwX;XrXZXuXeXeX6X~.(.zX      ",
"      fX_.3XlXMXnXwXqXI.<XyXtXyXL.i i ~ ~ ( d.d.d.d.p.d.^ m q q [ o.+.@.$.) U B z > : N.sXhXrX;XXXAXGX<XCXVXlXC.D.5X    ",
"    VXS.S.;XgXkXnXtXwXM.Y.,X,XlXH.x i S S S _ ' ` ' T ` ^ R n z +.y.h.h.h.g.@.! z > % N.lXrXrX'.K.ZXbXuXCXAXfXtX;X0X    ",
"  lX,XU.XXbX6X2XhXrXgXR.wX,XkXrXL.x y c s p a a p i a p / l g c / i i a r t / v r > @ t.nX0XkX{.S.ZXwX0X0XAXBXsX;X3XnX  ",
"  vXXX>X2XkXjXAX3XfXjXeXR.wXnXfXK.c 9 J P i / / p.p.( s ~ { #.B ^ @.b v h ) / ..3 3 3 N.gXHXAX2XS.lXrX+X8X2X3XtX6X6XgX  ",
"ZXDXM.3X4XrX0X:XjX$XsXR.I.ZXFXwXK.r 5 , 4 p ) p.p./ / ! i ) _ s x p.! x b p.h 2 , < X n.zXbXHXXX'.ZX^.fX+XmXmXqXdX0XmXNX",
"gXyXM.;XrX9X4XtXK._.sXY.T.kXHX8X>Xu % > t / / ( p./ p.^ Z c c / Z p.~ S c p.s r h < X N.xXzXbX2X{.bXe.+X8XVXdXqXtXNXAXmX",
"tXrXH.N.hXwXtX:X0XK.6XT.I.FXHX9X>Xy 8.y.$.s.( ( / / / ^ ~ .Xh.p.p.p.S R B p.^ h @.$.= N.7XlXAXXXV.VXV.tXtXtXmXmX^.@XSXtX",
"mXwX=XK.<.y.&.R.4X:XlXI.I.HXAX>XL.1 X 4 1 ( ~ ( / / / ^ y z g ^ ( p.) ) c p.^ 5 % O O t.sXbXrX3XXXAXn.mXgXAX@XiX@X3XAXqX",
"NXmX>X0X/./.0XwXyX:XqXM.W.JXZX:XH.: 9 J k ^ ! ~ / ~ / ^ ~ { $.( p./ v x x / B D H q ; c.rXlXlX6XsXZX,.VXVXSXJXFXsXmXnX  ",
"  gXmXAXjX4XkXGXCX>.rXR.L.NX4X>XH.K D { L i P ! ! R c l g.~ B ~.~ @.5.g.1.+.b 8.T m d t.gXlXrXgXdXZXF.y.VXCXGXAXjXmX5X  ",
"    hXMXhXyXeXVX4X,.4XK.J.:X8X<XA.3 A n k g Y h.^.C.X.z Y |  .W B f M $.$.h x q O. .F C.nXyXbXsXjXkX[.2.{ 4XVXVXqX      ",
"      [.fXAXjX9.<./.3X;XXXVX8X,XP.w { { { i / ( ( / ^ t o.#.{ M / p.p.s.d.a.b 6 N j - y.NXbXlXfXsXkX4X3XN.l.%.e.3X      ",
"      0.%.l.%.l.`.`.;XR.2XjXwX:XV.o } ..J b f.d.d.s.-.( U ,.9.i ~ ` @.6.@.6.) 5 y.y.n w.rXVXbX5XdXjX5X&XSXSXmXAXAXGX    ",
"    aX5XsXsX&X&XoX&X=XOX'.gXtX8Xm.X N { M 9 #.y.h.i.9.{ { o.$.B ~ l v l h g ~ g ! B < x.rXCXCXrX0XdXfX8XVXAXAXAXSXSX    ",
"    B.c.c.@XtX0X=XqX+XiX>XrXtXK.B.@ r < , 7 l 0 n j k l d v h B _ s.m v R P @.g d f = i.0XVXVXhXqX;XrX3XVXnXmXnXAXZX    ",
"    N.C.D.`.&XtXJ.'.^.[.OX^.OXR.l.@ % ; 4 z U F P J J P 7 4 4 B +.1.5.N.m.n.6.G 5 4 & i.aXnXyX6XdX5XqX2XmXmXtXqXmXtX    ",
"    D.z.oXD.`.5X>.w.`.@X0XqX@XR.4.% z k W 9 ~.#X%X%X|.>.Y  .T P m $.o.{ { M N { H V - i.&XjXrXCXsX%XmX#XmXqXqXqXmX3X    ",
"  v.0.z.!.c.).(.2.G.B.C.sX3XqXwXl.% k k  .Y I T +.O.+.T O.1.-.W +.@._ ` ) $.+.X.[ ] 8 y.sXqXsX5XsXsXqX(.qXBXBXmX&XoX    ",
"    z.u.!.!.).0.3.3X0X[.5XaX$Xk.2. .0.z.z.9.t.B.z.z.x.t.$X$X$X@X*..X X}.}..XQ..X.X!.8.8.5X0X@X#X*X*X3X).*X!.oXG.@XqXBX  ",
"  *Xv.v.v.z.b.b.9./.G./.+XoXOX/.%.' @.8.1.&.y.g.g.y.y.8.h.~..Xh.{ @.1.1.j.8.o.1.y.8. .X.D.v.G.oX@XK.;Xv.v.b.b.b.v.D.oX  ",
"  v.D.z.D.c.v.*Xz.v.l.v.x.D.z.9.                                                        oXG.v.G.G.@XG.v.oXv.b.b.v.v.v.  ",
"            !.).    b.=.).oXD.v.                                                            #X@X&X#X  &X!.b.b.b.b.b.3.  "
};
