/* XPM */
static char *_39a07a71ec5482cc7a64abaee7ad54fo18HxqtmUvLakbaI[] = {
/* columns rows colors chars-per-pixel */
"60 60 154 2 ",
"   c None",
".  c #0D0D0D",
"X  c #141414",
"o  c #1C1C1C",
"O  c #252525",
"+  c #272D24",
"@  c #2A2E27",
"#  c #2B2B2A",
"$  c #2A3026",
"%  c #2D3A25",
"&  c #2D3428",
"*  c #32312F",
"=  c #303D28",
"-  c #333333",
";  c #3A3C36",
":  c #3C3C3C",
">  c #34422B",
",  c #36492B",
"<  c #394F2C",
"1  c #375328",
"2  c #3B4A33",
"3  c #3F4A38",
"4  c #3D5130",
"5  c #42403E",
"6  c #425339",
"7  c #4A5C3D",
"8  c #434342",
"9  c #484744",
"0  c #4D4E47",
"q  c #4D4C4C",
"w  c #535252",
"e  c #5F5F5F",
"r  c #526444",
"t  c #586B49",
"y  c #656655",
"u  c #676358",
"i  c #69665F",
"p  c #636F5B",
"a  c #646361",
"s  c #6E6E6E",
"d  c #706C66",
"f  c #716F6F",
"g  c #74726C",
"h  c #7A756F",
"j  c #7B7C6F",
"k  c #777676",
"l  c #8E8A75",
"z  c #84807B",
"x  c #88827C",
"c  c #958F7D",
"v  c #868584",
"b  c #888888",
"n  c #8A9083",
"m  c #96928C",
"M  c #9D958D",
"N  c #969594",
"B  c #9B9B9B",
"V  c #A69F8E",
"C  c #A29F9D",
"Z  c #ACA48F",
"A  c #ADA590",
"S  c #ACA49C",
"D  c #B5AD97",
"F  c #BAB29B",
"G  c #A9A5A1",
"H  c #A9A9A8",
"J  c #B7AFA7",
"K  c #B0AFAE",
"L  c #B9B2AA",
"P  c #B4B4B3",
"I  c #B9B7B6",
"U  c #BCB8B4",
"Y  c #BCBCBB",
"T  c #C7BEA5",
"R  c #C4BCAB",
"E  c #C3BCB4",
"W  c #C9C0A7",
"Q  c #D2C9AE",
"!  c #C4C1BE",
"~  c #CAC3BC",
"^  c #D5CCB2",
"/  c #D2C9BD",
"(  c #C4C4C4",
")  c #CBC5C0",
"_  c #C9C8C7",
"`  c #CCCCCB",
"'  c #D4CCC4",
"]  c #D0CCCA",
"[  c #D8D0C5",
"{  c #D5D2CE",
"}  c #DED4CA",
"|  c #D2D3D2",
" . c #DAD7D3",
".. c #DCD9D5",
"X. c #DDDCDC",
"o. c #E1D5C8",
"O. c #E3DBD5",
"+. c #EBDFD3",
"@. c #E1DEDB",
"#. c #E4E1DD",
"$. c #EBE3DB",
"%. c #F1E7DF",
"&. c #E4E4E4",
"*. c #EAE6E2",
"=. c #EEE9E5",
"-. c #EBEAEA",
";. c #F3ECE5",
":. c #F0ECE9",
">. c #F0ECE8",
",. c #F5EEE8",
"<. c #F6EFE9",
"1. c #F5EFEB",
"2. c #F2EEEC",
"3. c #F7F0EA",
"4. c #F6F0EB",
"5. c #F7F0EB",
"6. c #F6F1EB",
"7. c #F7F1EB",
"8. c #F3F0EE",
"9. c #F5F0EC",
"0. c #F4F1EE",
"q. c #F4F1EF",
"w. c #F5F2EF",
"e. c #F8F2ED",
"r. c #F8F3EE",
"t. c #F9F4EF",
"y. c #F3F3F3",
"u. c #F7F4F2",
"i. c #F4F4F4",
"p. c gray96",
"a. c #F6F6F6",
"s. c gray97",
"d. c #F7F4F1",
"f. c #F9F4F0",
"g. c #FAF5F1",
"h. c #F8F5F2",
"j. c #F8F5F3",
"k. c #FAF6F2",
"l. c #F9F6F4",
"z. c #FBF7F4",
"x. c #FBF7F4",
"c. c #FBF8F6",
"v. c #FCF8F5",
"b. c #FCF9F5",
"n. c #FCF8F6",
"m. c #FCF9F6",
"M. c #FCF9F7",
"N. c #FDF9F7",
"B. c #FDFAF7",
"V. c #FCF8F6",
"C. c gray98",
"Z. c #FBFBFB",
"A. c #FDFAF8",
"S. c #FDFAF8",
/* pixels */
"                                                                                                                        ",
"                                                          O O O                                                         ",
"                                                          O O O O                                                       ",
"                                                        O O O O O                                                       ",
"                                                      O O O O O O o                                                     ",
"                                                  O O O # O O # O o                                                     ",
"                                              O # O O O # # O O o o o                                                   ",
"                                              O O O # - - # O # O o O O                                                 ",
"                                              O O # ; : ; # O O o O O O                                                 ",
"                                            o O O O - : - # O O o O O O O                                               ",
"                                            o O O # - : - # O O O O O O O O                                             ",
"                                          O o O O # - - - O # o O # # O O O                                             ",
"                                        O O o o O O O - - O # X O O O O O O                                             ",
"                                      O O O O O O O # - - O # X o # - # O O O                                           ",
"                                  O # O O O O o O O # * - O O X o O - # O O O O                                         ",
"                                O # O O # O o X O O O - - O O X o O O O O O O O O                                       ",
"                                O O # O O O O o X O O - * # # . o o O O O o o O # O                                     ",
"                                O O O # - O O X . O O * # O O . o o o O o o O O O O #                                   ",
"                                O O O # * # O X . O O O # # # . o o o . o O O # # O O O                                 ",
"                                O O O O # O O o . O O O 8 q - X X o o . o o # * * O O # #                               ",
"                                O O o o O O o o . w X.&.&._ | &.s o . . o O # - # O O O O                               ",
"                              O O O O o X O O o B s.-.&.&.( ..&.i.( . X o # # * # O O # #                               ",
"                              O O O O O o X O e -.a.&.&.&.Y &.&.i.i.s X O O # O O # O O O O                             ",
"                  O O O O O O % E ;.$.o.J : . X.&.s.-.&.&.P &.&.y.y.&.o o O # # O O O O # o                             ",
"              O # - - : : 5 ; x k.S.S.n.k.;.o.X.&.Z.-.&.X.` &.&.a.-.&.w o # # o O O O O #                               ",
"              O # ; - ; ; 5 6 %.S.S.S.S.S.S.=...&.s.-.&.| | &.-.s.&.| _ O O o o O O O O O                               ",
"                O o O # O # = $.n.S.S.S.S.S.,.( &.a.-.&.Y &.-.-.i.X.X.( 8 X o o O O O O O                               ",
"                O X m # O O & k 3.S.S.S.S.l.2.X.&.&.&.&.P &.-.Z.-.&.&.` P s 5 # O O O O O                               ",
"                  o ' V c u ; = i e.S.S.S.l.*.&.` 8.-.X.` &.X.-.&.&.&.X.&.X.` I : O O # O                               ",
"                    O O R F D A c d ;.n.S.S.7.X.` X.$.S.y.-.y.Y &.#.&.X.y.*.r.$.) a O O O                               ",
"                      O * E T W D Z j e.S.S.i.| _ Y n n.l.| ( &._ K I X.u.S.S.S.n.3.G O O                               ",
"                        O - ' W ^ Q l O.S.S.l.E | 2.S.>.S.l.-.X.P H P u.S.S.S.S.S.S.S.m                                 ",
"                          O O E / ^ F g n.B.7._ | g S.=.>.S.v.X.~ ` =.S.S.S.S.S.S.S.n.z & #                             ",
"                              O a [ T y S.#.@.@.c.w f 7.i.l.I _ +.=.S.S.S.S.S.S.S.S.,.7 8 8 - #                         ",
"                              O O O U V ..*.n.S.S.2.O O # X P  . .c.S.n.n.n.S.n.S.7.9 & - - : ; - #                     ",
"                              # o O o q v 7.S.S.S.>.B O O # ) 2.X.&.S.S.$.t.n.n.U % $ O O # # ; ; : # #                 ",
"                              O O o O O p S n.S.S.S.v.k _ d.d.v.k...X.c.X o - 9 1 o O o O O # O # - - # O               ",
"                              O O O o O m > L n.S.S.z.S.S.S.S.S.S.t.X.E o O X . X o o . X o O O O O O O                 ",
"                              O O # o o o O 2 0  .z.$.v.S.S.S.S.S.S.O.J @ X X o o # O         o - # O O                 ",
"                              O O # O o X o O # = , @ / ,.v.S.n.l.$.G 3 o O O o O O         . - 8 # O                   ",
"                              O O O O o O O O O o o o @ > 4 t r < > | o o O O O O #       . # 8 ; # O                   ",
"                                O O O O O O O O o o o o O # - : - 5 B o # # O O O O       o - : O O                     ",
"                            -   # O O # O # # O o X   o O O O O # ! . o O O O # O O     X * : - #                       ",
"                                  O O O O O - O O     O O O O O b O X o O # O O O     o # 5 5 O                         ",
"                                    O O O O # O O       O # # - : O O o O O O #       O : : # O                         ",
"                                      O # O O O o       O # # - - # O O # O O       o : : # O                           ",
"                                      O O O O O           O O # # O O # # O       O # 8 # #                             ",
"                                        # O O O           O O O # # O           # ..N # O                               ",
"                                          # O O O         O O O O             X &.v w X.                                ",
"                                              # O       # O O               o O ; s `                                   ",
"                                            O O       O -                 . # 8 - #                                     ",
"                                                        O O           #.M O 8 8 - O                                     ",
"                                            O             O             X : w 5 #                                       ",
"                                                        O             X O ; 8 - O                                       ",
"                                                                      5   O # #                                         ",
"                                                                    *.  =.  @.@.                                        ",
"                                                                    2.                                                  ",
"                                                                          ]                                             ",
"                                                                                                                        ",
"                                                                                                                        "
};
