/* XPM */
static char *a8fead4adf6044969f34183ae00477faPK57KBOlHzrmX0Fb[] = {
/* columns rows colors chars-per-pixel */
"86 86 145 2 ",
"   c None",
".  c gray1",
"X  c #0C0C0C",
"o  c #11170D",
"O  c #141414",
"+  c #171A17",
"@  c #181B17",
"#  c #171718",
"$  c #181718",
"%  c #171819",
"&  c #1C1C1C",
"*  c #1C2017",
"=  c #1F211E",
"-  c #20201F",
";  c #20281C",
":  c #1F1E20",
">  c #201F20",
",  c #1F2020",
"<  c #232323",
"1  c #282727",
"2  c #272826",
"3  c #282927",
"4  c #282728",
"5  c #2B2B2A",
"6  c #2C3626",
"7  c #2D312A",
"8  c #30302F",
"9  c #313C2A",
"0  c #333332",
"q  c #383736",
"w  c #373835",
"e  c #3A3B37",
"r  c #3C3C3B",
"t  c #3D4137",
"y  c #3C4D33",
"u  c #3F4339",
"i  c #3E5032",
"p  c #42463B",
"a  c #434B3B",
"s  c #434342",
"d  c #494743",
"f  c #474A41",
"g  c #494947",
"h  c #4B4B4A",
"j  c #495141",
"k  c #51544B",
"l  c #575D4F",
"z  c #545352",
"x  c #5A5654",
"c  c #5A5B56",
"v  c #5D5B5A",
"b  c #625E56",
"n  c #5F615B",
"m  c #626151",
"M  c #64615E",
"N  c #6A6959",
"B  c #646363",
"V  c #696765",
"C  c #6B6B62",
"Z  c #6F6E6C",
"A  c #736E62",
"S  c #726F69",
"D  c #727667",
"F  c #78746E",
"G  c #7D786B",
"H  c #747573",
"J  c #7B7B74",
"K  c #7C7B7B",
"L  c #807D6F",
"P  c #817E7D",
"I  c #818876",
"U  c #8C8679",
"Y  c #858D7B",
"T  c #858581",
"R  c #8C8C83",
"E  c #8C8C8B",
"W  c #928F8A",
"Q  c #8F9488",
"!  c #909287",
"~  c #94928C",
"^  c #9D968E",
"/  c #969595",
"(  c #9D9894",
")  c #9D9C9C",
"_  c #A19C8B",
"`  c #A39E95",
"'  c #A49F9A",
"]  c #9CA094",
"[  c #A9A28C",
"{  c #A5A296",
"}  c #ABA494",
"|  c #A4A49C",
" . c #ABA69F",
".. c #AFAA9D",
"X. c #B5AD94",
"o. c #B5AE9C",
"O. c #A7A6A6",
"+. c #ABA6A2",
"@. c #ADABA5",
"#. c #ACABAA",
"$. c #B0AFAF",
"%. c #ADB3A4",
"&. c #BCB4A4",
"*. c #B7B3AF",
"=. c #BAB5AF",
"-. c #B5B5B3",
";. c #B9B6B5",
":. c #BBB9B5",
">. c #BDBCBC",
",. c #C2BAA2",
"<. c #C3BCB5",
"1. c #CAC1A9",
"2. c #CFC6B1",
"3. c #C5C2BD",
"4. c #C4C4C3",
"5. c #C9C4C0",
"6. c #CCCAC5",
"7. c #CDCCCB",
"8. c #D0CBC3",
"9. c #D2CECB",
"0. c #CFD0CF",
"q. c #D3D1CD",
"w. c #D9D3CD",
"e. c #D5D5D4",
"r. c #DAD6D4",
"t. c #DBD9D4",
"y. c #D7D8D8",
"u. c #DDDCDC",
"i. c #E3DDD7",
"p. c #E1DEDC",
"a. c #E4E1DD",
"s. c #E8E4DF",
"d. c #E4E3E3",
"f. c #EAE6E3",
"g. c #ECEAE6",
"h. c #E7E7E8",
"j. c #ECEBEA",
"k. c #F1ECE7",
"l. c #F1EEEC",
"z. c #F4F1EE",
"x. c #F9F4EE",
"c. c #F5F4F3",
"v. c #FAF6F4",
"b. c #FCF9F7",
"n. c #FEFCFA",
/* pixels */
"                                                                                                                                                                            ",
"                                                                                                                                                                            ",
"                                                                                                                                                                            ",
"                                                                                                                                                                            ",
"                                                                                                                                                                            ",
"                                                                                                                                                                            ",
"                                                                                                                                                                            ",
"                                                                                                                                                                            ",
"                                                                                                                                                                            ",
"                                                                                                                                                                            ",
"                                                                                                                                                                            ",
"                                                                                                                                                                            ",
"                                                                                                                                                                            ",
"                                                                                                                                                                            ",
"                                                                                                                                                                            ",
"                                                                                                                                                                            ",
"                                                                                                                                                                            ",
"                                                                                                                                                                            ",
"                                                                  t.                                                                                                        ",
"                                                          #.E     B                                                                                                         ",
"                                                          z s 5 < &                                                                                                         ",
"                                                        & 8 r < & 4           & <           <                                                                               ",
"                                                        4 e g r x +.            4 4       < <                                                                               ",
"                                                        4 q r < r             < 3 3       < < < <                                                                           ",
"                                                      5 5 8 5 #             < - <         < < < < <                                                                         ",
"                                                      H c s <             < < < <           < < < < <                                                                       ",
"                                                      / E H r         - < < < < <           & < < < < <                                                                     ",
"                                                    K T ~ T       1 1 < < 5 5 < < <       & < < < - < - < <                                                                 ",
"                                                  < r g c       < < < : < 8 0 1 < 4 <     & < 3 3 < < < - < <                                                               ",
"                                                < 4 0 5 <     < < < : & - r s 4 < < < &   $ & < 3 < < < < < <                                                               ",
"                                                4 5 0 4       < < < & X 4 x s < ; , & & O O & & < < & - < < < <                                                             ",
"                                              < 0 0 5 <     < < < < : % s B r 5 5 2 < & O O & & & & # & & < < <                                                             ",
"                                              5 q 0 <     < < < < 4 < 5 v n 6 t y i i p 7 ; 9 7 = @ o & # > < < <                                                           ",
"                                              7 0 5 &     < < - < : & 5 H Q I %.q.s.f.w...~ | T n t 7 w % & & > <                                                           ",
"                                            4 0 0 >       < < < & : + 7 Q 9.a.v.b.n.n.b.l.v.n.j.6.| D c < & # & <                                                           ",
"                                          < 4 0 5 $       < - & & % & d :.g.v.b.b.n.v.f.q.c.n.n.v.a.%.J 0 0 & & &                                                           ",
"                                          1 5 e 4         < & # O O # r 3.a.g.v.b.b.9.) P :.j.n.n.b.p.:.J L b q 4                                                           ",
"                                          < 4 7 <       o + O o O X X e 3.s.a.d.p.;.h < < B :.c.b.z.k.a.{ } o.W S x 4                                                       ",
"                                        < , 4 < < > & % O O * j J / | *.c.v.j.u.r.O.h r h v K >.p.u.f.f.@._ ,.2.&.^ M q &                                                   ",
"                                        < < 4 4 < < < : & = f ] t.l.z.k.n.b.z.i.w.0.0.f.g.6.) @.7.w.z.b.w...[ ,.1.1.{ F d &                                                 ",
"                                        4 4 0 8 7 7 4 < < u ~ u.v.n.v.v.b.b.f.w.9.d.g.v.v.l.w.6.0.q.c.b.l.8._ _ [ X.X.} U m I                                               ",
"                                          4 5 0 8 0 0 w t D t.b.n.b.b.v.b.l.7.;.3.u.f.j.c.g.3.4.7.9.c.v.b.k.3.` L N m A G N E 8 <                                           ",
"                                                5 0 0 w a R c.n.b.b.b.v.c.p.-.O.>.0.0.u.h.f.<.0.7.e.k.v.b.b.z.t.| V 7 2 0 0 x & &                                           ",
"                                                        f W c.n.n.b.b.c.j.u.4.>.9.0.u.h.h.j.d.h.e.e.f.c.v.b.n.b.k.<.n 2 < < q < 2 4                                         ",
"                                                          c #.q.f.v.v.l.l.a.u.u.u.u.u.u.7.e.d.h.u.e.d.l.v.b.v.b.n.l.I p e q 0 0 5 <                                         ",
"                                                        # - s V W 3.u.u.d.p.d.d.h.j.j.d.4.0.u.h.h.e.t.k.v.b.b.b.n.a.G r 0 8 5 4 3                                           ",
"                                                        & & & < q b H P / -.y.u.h.j.j.d.7.0.u.j.j.u.p.i.f.v.b.b.c.:.k 3 < 1 <                                               ",
"                                                          < > & & < 4 4 q Z 4.u.d.j.h.u.7.e.d.j.v.h.9.^ ` =.<.=.' D 8                                                       ",
"                                                          < < > , , % % : s ) y.h.l.h.u.4.y.d.j.v.h.) 8 & r p r 5 > O                                                       ",
"                                                          < < < , & & , : , v >.l.c.d.u.>.e.u.d.v.y.K : O O O $ & - <                                                       ",
"                                                          3 < < < < , < , # < E u.c.j.u.4.y.d.j.h.O.g : & & & & & >                                                         ",
"                                                          < < < < < < 4 < & X s ) u.j.d.7.y.u.t.O.z O X & < < < > < <                                                       ",
"                                                        & < < < < < < 4 4 , X X s K #.4.;.$./ H h % X O < 4 4 4 < < <                                                       ",
"                                                          < < < < < 4 5 5 , X . X : 4 5 5 0 4 - : O X O : < 4 4 < < <                                                       ",
"                                                            < < < < 5 5 , , X X X O % O & 3 3 < , % O O & < < < < < <                                                       ",
"                                                            < < < < 4 5 , : : O : % O O & 3 3 5 4 , % % & , < < < < <                                                       ",
"                                                              < < < < < < & & & & & & O % < 4 5 4 < & & & & < < < <                                                         ",
"                                                                < < < < & & & & < < & O # < 4 0 5 < < & & & < < <                                                           ",
"                                                                    < < , & , < < 4 = O # < < 5 5 2 < < & : < <                                                             ",
"                                                                      < < < < < 4 4 < % + - 4 5 5 3 < & & & &                                                               ",
"                                                                          < < < < 4 < & & , 4 5 0 5 < < : & &                                                               ",
"                                                                            < & < < < < & < < 5 0 0 5 < < &                                                                 ",
"                                                                            < < < < < : & < < 5 0 0 5 < & &                                                                 ",
"                                                                              : < , < : & < 4 5 e 0 7 < < <                                                                 ",
"                                                                                < < = & & < < 5 0 5 2 < < <                                                                 ",
"                                                                                  < < & & < < < 5 4 < < < <                                                                 ",
"                                                                                  & & # & : , < < < < -                                                                     ",
"                                                                                      & & < < < < <                                                                         ",
"                                                                                      & & < & < < <                                                                         ",
"                                                                                          < < < <                                                                           ",
"                                                                                          < < < <                                                                           ",
"                                                                                            < <                                                                             ",
"                                                                                                                                                                            ",
"                                                                                                                                                                            ",
"                                                                                                                                                                            ",
"                                                                                                                                                                            ",
"                                                                                                                                                                            ",
"                                                                                                                                                                            ",
"                                                                                                                                                                            ",
"                                                                                                                                                                            ",
"                                                                                                                                                                            ",
"                                                                                                                                                                            ",
"                                                                                                                                                                            ",
"                                                                                                                                                                            ",
"                                                                                                                                                                            ",
"                                                                                                                                                                            "
};
