/* XPM */
static char *_7fe1ccc6e7e4dd3dd83c385a8a7c43d9mZY14pdRQn4Ozjv[] = {
/* columns rows colors chars-per-pixel */
"60 60 108 2 ",
"   c #040403",
".  c #080705",
"X  c #070804",
"o  c #0A0A06",
"O  c #0D0D09",
"+  c #100F0B",
"@  c #0F1006",
"#  c #0F100B",
"$  c #111307",
"%  c #13120D",
"&  c #18160D",
"*  c #17190A",
"=  c #181C09",
"-  c #1A1C09",
";  c #1C1E0B",
":  c #1C1F0B",
">  c #191B0C",
",  c #191B0D",
"<  c #1E1A0E",
"1  c #1B1C0D",
"2  c #141410",
"3  c #151410",
"4  c #151411",
"5  c #161612",
"6  c #181712",
"7  c #191712",
"8  c #171812",
"9  c #181813",
"0  c #1A1C11",
"q  c #1C1C10",
"w  c #1D1E13",
"e  c #191814",
"r  c #1A1A14",
"t  c #1A1B15",
"y  c #1C1B16",
"u  c #1D1C17",
"i  c #1D1D17",
"p  c #1E1D18",
"a  c #1E1D19",
"s  c #1F1F1A",
"d  c #201E16",
"f  c #201F19",
"g  c #1C200B",
"h  c #1D200E",
"j  c #1F2017",
"k  c #1F201A",
"l  c #20230C",
"z  c #20210E",
"x  c #282E0E",
"c  c #202210",
"v  c #222012",
"b  c #232215",
"n  c #212117",
"m  c #272414",
"M  c #212018",
"N  c #232318",
"B  c #24231B",
"V  c #25261B",
"C  c #24241E",
"Z  c #28251C",
"A  c #28241E",
"S  c #29261E",
"D  c #252819",
"F  c #2A291E",
"G  c #2D2B1F",
"H  c #2A2C1D",
"J  c #302B1D",
"K  c #323019",
"L  c #262620",
"P  c #292720",
"I  c #272820",
"U  c #2D2A21",
"Y  c #2C2B23",
"T  c #2F2F24",
"R  c #2F2E28",
"E  c #302D20",
"W  c #312E25",
"Q  c #2E3023",
"!  c #333224",
"~  c #373A27",
"^  c #35332A",
"/  c #363728",
"(  c #39352B",
")  c #38362B",
"_  c #37392E",
"`  c #3C3B2A",
"'  c #3B3A2C",
"]  c #3C3B32",
"[  c #403625",
"{  c #443E2D",
"}  c #413D32",
"|  c #3C421F",
" . c #444235",
".. c #4A4636",
"X. c #4F4834",
"o. c #42433B",
"O. c #49453A",
"+. c #4C483C",
"@. c #534A39",
"#. c #54513F",
"$. c #4D4D43",
"%. c #545142",
"&. c #53544C",
"*. c #5E5A4B",
"=. c #615A47",
"-. c #625F51",
";. c #6B6554",
":. c #706F60",
/* pixels */
"X               X X X   X     X   X   X X X   X X X X X X       X X   X   X   .     X X o o X X X X X o o o X $ X X X X ",
"* @ @ @ @ o o X o o o o g x g $ o : - X $ o o o X X * : : l % o o % $ o O $ l O - $ $ $ - $ $ o o $ $ $ $ $ $ : $ $ $ o ",
"+ + % + $ o   X o o o X g @ o o o X o o @ X o O X X $ - $ $ $ X X @ @ O o + < & $ @ o $ o o o . = $   X $ o o $ O $ O $ ",
"* % $ o o X X o X X o X X @ $ $ o $ $ X o o X X   X o $ @ o O   o m + * o > l % = =   $ o $ o X & = X $ X $ $ $ $ $ * l ",
".     . X       o X             X       X o X X o   X X X X     % 0 + O o % @ X o @ .             . .   X         X X X ",
". . o % $ d Z d Z v v O * * X o X O $ $ x l 1 1 1 m > | K $ + 7 ( W V ` J W U b @ o $ - - : * = > 1 $ > o > o o $ * $ $ ",
". o . o o o % y t % g O * # * # X O @ X O * . w d 1 % 1 7 o 4 d D V j 9 u d u % @ o @ $ $ o $ & % > l l $ = o o - o o   ",
"  X     . o 4 + % 4 e % % O # o X $ O @ % > o n C 0 H ^ W 4 f f u u u o 9 u e 4 o o - $ . & $ % > 1 h : o $   . O X o   ",
"                            o #   o   o O O .   % % f L y o 4 + o             O O o     X X o       X X                 ",
"X X     o o . o 4 ] o.R Y 4 ! G V $ U O a f Y Z 9 4 ( Y P ' W + ! Q Y % e L W $.~ / Q # 8 e H D n e n u 2 % 2 o o O o o ",
"o o o % % % t 4 4 &.] $.P a 2 % O 4 a o O C D a % 4 u 4 f a O o T C B e 9 t a Z C f M 4 k k 4 8 Q 4 k k a 9 2 9 # % O e ",
"  o . O % % t % e $.o.$.] B C 9 Z ( D 4 4 O e o M 4 4 e 9 9 9 o % # 5 o 8 # 4 O 4 a 4 8 k I L R ' 8 k k C 5 O 2 % O % X ",
"            X   o 2 X 4 t 4 9 % o $ u + %   O o     o           .     . O O O e % O O O   o o 4 O   # X X               ",
"O # % 4 o # ^ ^ ^ _ e ^ Y 4 e e O G ` ^ ! H u Z u % O.V f L 9 7 L k R s f R k L P a 9 u M e f ^ ;.o.$. .u u 9 O 5 e f % ",
"o o . o o o # % 2 # # 4 e # 8 e O j - % % $ 9 ! N a N t e % O 4 M e L e # L a f C + e f 9 % e ] ;.%.$.#.2 s u O % O # o ",
"O O % # 4 O t a a e O a t a e % % % % % % j o %   o % e a 4 % o 2 % L a # # 4 9 a 4 a f 4 4 % } ;.;.%.O.# u 9 2 5 % $   ",
"  X X # o                 o   X o           .                       O X   # .     .       o O o 4 O + .       o         ",
"# o % o 8 t 9 4 O V T Q _ a T I a M 8 Y T M j O L e Z ^ e L P ( U C k 9 2 4 9 O k k M 9 % d e 4 e 8 e e e O e o % % % n ",
"n O O o O # # #   e u d C 4 % o % e % e e e 9 % a L R R f p 4 o e 4 k e 9 e 9 o t t k a o E ^ !  .Z 4 n a L # O % % % ..",
"n o o   o O O o   B e u o 8 $ 4 t a   O + . O o a M P L + + p p # 8 %   # 2 % X O 4 j t . ` X.=.%.P 4 4 8 C 4 O O 4 o ` ",
"o     o   2 2 4 4 e R L # e e k a t 7 O o O O O e u O a e O O 4 t o o o o o o 4 O   4 O O a e 4 % O o o     O O o u % O ",
"o O O $ o Y e 9 8 C k t O 8 u 8 $ O % o o Y W F Q M 4 L a B e   ! U 8 0 a t M e % O a ] N u T P %.Q ] M ^ B C U O % O o ",
"o o o o o % e o o O t % o 8 0 a 9 + % 9 O u f M j n o 4 e a e O 4 # 2 o % # o O $ o e e C 9 L a ] ^ Y % a a ] Z o $ O $ ",
"    o     % 9     o o k o o # # % o O O   % o u % o . .                             4 t e 4 ] Y ^ _ ] p + o % o o $ O X ",
"    o O # % 9 % 4 + % e f M U C 9 a M V Z Y f Y T ! / u 4 7 4 4 4 O O 4 # # a a 4 O % B f % 7 4 4 e a f a + y d e 4 % o ",
". o o # 0 a G ( Y % C 4 % 4 # % Z k C V W d W d V M B f O 7 9 % + . . O O . $.L a a P ^ W Z f 7 Z w P ] o.^ y f y 7 % $ ",
".   o o + % 9 f a % O O O O % 9 e o   4 4 o % y L a u a + 9 w % O   o 4 O . Y e ^ O 9 a 7 B W C ! % O.f P ( y 7 d e $ o ",
"              O + o X   X       O Y C o %   f   o e X + o         . o O O . a o 9 o +.+ 7 d 4 e Z f ( Z Z P + e 7 + o   ",
"w G + + + 4 y 4 9 4 9 4 4 k M k a F % % 7 y y f y + + 7 d % . + O 2 4 O 4 O # 4 4 O e e a a e O a f d P P 7 e y e % % $ ",
"F % u + . % f 7 t e w % 9 e u a 4 a M % y 7 7 y y o 7 d u 9 o + 2 4 4 O e a e a 9 O O O a 4 y + 7 4 d a y 4 + 7 7 O % % ",
"w d Z O . + % 7 e % 8 8 4 t e e e 4 4 % % 7 d 7 % .   % % o . + e % 4   O O 4 % 4 4 e # O + . . % e e 7 O + 7 d 7 4 O > ",
"X X . .     . . O o o o   4 o % %       .           .             o O o     . O .   o #   O . o             . .     o   ",
"O % 9 9 O o 2 e t % M M e C Z V O a O O 4 4 e 4 O   O O % 7 % 7 G 9 % 4 y d 4 ^ f Y Y f f y y 4 > 7 1 . Z e 4 + o & % % ",
"o O # % 4 O % 4 % o # % % % $ % . d 4 f G V L O u 4 $ % % 7 a n e % $ % % % + f % e y 4 f f f f u y d o p % + o O . % + ",
"o O o o O O o # 2 o # 8 O % # o o f 4 X X o   9 L Z 4 8 4 y e 4 + d o 4 y 4 O y o   . % 7 y y 7 4 % % o + 4 o o .   X o ",
"      o o o O O     . #   X X   . O O .   o 4 e o o O o   +   . y o + .   . . 7 Z % . o o . .     .     o   . o         ",
"        . . o O + 4 + + + % % % w 7 % + % V M Y / Z % 5 C % o + + 7 % + + 4 > y d + 7 + 7 7 % d 4 Y f d f 9 y 7 + o o o ",
"% o o o % . o o 4 4 o o o . . + % 7 O X   % $ n % a o ] a M } ( + + . . O . O O . . + % + % + y Z ^ Y % y e M n y % % % ",
"o . o   O o % % 7 y % o o o . + + % O           o     Z L o e e % f 9 y + 7 O 7 % + 4 y 4 f + % d Z W P a 4 a u y % % O ",
".         o   o   4 o         . o       o o o         e o o o p o o o o . +   O + .   + 4   . % o % + 7 + .       . o   ",
"O . O   o e e % d y y 7 w Z f Z Z + 4 % % 7 % y u e V Z u u *.Z M ^ ^ a a 9 4 4 Y d f W p P ( Y % # a k a C C o % % % O ",
"O O % o o 4 % + + y 7 d O f d % 4 O O + + 7   4 % 7 % a 4 O C 4 O o % % O O O   . % A e o         O 4 % 1 % %   o % > % ",
"O O o o     . .         % 4 + O O o           + % % O o O o % o o L ^ a V Y C e y f Y 4 . O o O o . 4 e O O o   O 4 4 % ",
"          o o O o . + 4 4 7 + + O               o X o     . O O o u a 4 O 4 4 u Z +       o .         .                 ",
"  O o o O %   o O O   O + + + 7 O 4 O u f P ] W { @.@. .Z 9 & d e 4 a k s 2 L R e O R e a k e Y P P y P u ( f e 4 O o o ",
"O O o o O o . o O O o o + O 4 % e o   O 9 P W 4 P } } ^ & & f f M O e e e O O O O X Y O 4 e a f Z % o 7 u e O 8 % 4 % O ",
". o O . o o   o O +         O         y y y 9 4 W f B Z F K m d e o 4 t O X 4 O O   2 O 4 R e L 4 % 4 u % ..4 o % 4 +   ",
"                o                     + 4 . . y 9 4 7 . O X O O   o             O   Y U u O   u o     O o o             ",
". O 2 2 2 4 e o 4 4 4 2 2 # O   4 # O a e 4 O 4 B 7 % F Y M D w u j e e k k t % e e a 4 O 4 4 a 4 O % % % % % e w % & O ",
"o   # % O O $ o . . o 4 # # 4   o   O # # . O # 7 o o y % 1 % # # O o o # o o o 4 O . + o 4 o O o o % 5 % O 7 n V 4 % $ ",
"o   . O 8 O %   . O O 2 o o . . # O 4 O   o o O o . & + % O % # o   o # O o #   O O . . . o O O     O % 4 + C 9 % 7 & % ",
"                        X   . . . O .   .     4 o o o           X   X .   o o o .   . . .           $ o o % o . X   O X ",
". . o O   X . . # O # 2 4 4 a e 4 4 a . 4 5 4 . . y A d + . + + % 4 4 % O o + 4 e 7   + O + + O . + 4 + o 4 % 4 % % + % ",
"O O O O o % . o # . # 4 O 4 4 4 4 e a 4 O   + 4 4 f W { Y + d 4 O O o 4 4 O O 2 f + O + + 7 + 7 + % + + u + + o B O % + ",
"4 O # O . . . o . O 2 4 2 2 4 4 4 e e 4 O 4 . . 4 Y W } A + + d 4 o O 4 2 o e 2 7 4 O O 7 d f f + + + . e f 7 + 4 % % + ",
". .   . . # O O O o   O O O 4 4 4 . . O         + 7 d f A 4 d f u o + 2 + . . 4 7 O + O 4 7 A f + a Z 4 a Z 9 o 4 +   . ",
"      . o o O . .   . O O e O   O o 4 O + O . O . O e   . O + + + O   o o 7 O   .   . . + O . O .   .       . o O o O o ",
"O   O O 2 2 4 + + 2 + + 9 9 a e 4 O 4 4 y 5 + 4 e e P 5 7 + 4 d + O O y L y A 7 f f f Z A d + f 7 Z d A W 4 y 7 9 4 9 u ",
". # 2 O O e a O + + + 4 O 4 4 4 e 4 O O O 5 4 4 4 e A 7 4 4 4 7 d +   o + 4 . . o + O + + 4 . O 4 + d 7 + + . . o o 4 % ",
"    o 2   . o   O o . O . .   .     o   O . 2 2 7 e 7 . + .   + d f + y d 4 .   + f P f d d O e f Z Z f f + O . + o     "
};
