/* XPM */
static char *result[] = {
/* columns rows colors chars-per-pixel */
"63 62 31 1 ",
"  c #211E30",
". c #201F30",
"X c #211F30",
"o c #211E31",
"O c #201F31",
"+ c #211F31",
"@ c #221F30",
"# c #212030",
"$ c #212031",
"% c #066029",
"& c #076029",
"* c #9C1B4D",
"= c #9B1C4D",
"- c #CC3048",
"; c #CD3048",
": c #E44949",
"> c #E44A4A",
", c #27860F",
"< c #28860E",
"1 c #268610",
"2 c #278610",
"3 c #72A01C",
"4 c #72A11C",
"5 c #72A11D",
"6 c #73A11D",
"7 c #72A11E",
"8 c #A4CC42",
"9 c #ECECEC",
"0 c gray93",
"q c white",
"w c None",
/* pixels */
"wwwwwwwwwwwwwwwwwwwwwwwwwwwwwwwwwwwwwwwwwwwwwwwwwwwwwwwwwwwwwww",
"wwwwwwwwwwwwwwwwwwwwwwwwwwwwwwwwwwwwwwwwwwwwwwwwwwwwwwwwwwwwwww",
"wwwwwwwwwwwwwwwwwwwwwwwwwwwwwwwwwwwwwwwwwwwwwwwwwwwwwwwwwwwwwww",
"wwwwwwwwwwwwwwwwwwwwwwwwwwwwwwwwwwwwwwwwwwwwwwwwwwwwwwwwwwwwwww",
"wwwwwwwwwwwwwwwwwwwwwwwwwwwwwwwwwwwwwwwwwwwwwwwwwwwwwwwwwwwwwww",
"wwwwwwwwwwwwwwwwwwwwwwwwwwwwwwwwwwwwwwwwwwwwwwwwwwwwwwwwwwwwwww",
"wwwwwwwwwwwwwwwwwwwwwwwwwwwwwwwwwwwwwwwwwwwwwwwwwwwwwwwwwwwwwww",
"wwwwwwwwwwwwwwwwwwwwwwwwwwwwwwwwwwwwwwwwwwwwwwwwwwwwwwwwwwwwwww",
"wwwwwwwwwwwwwwwwwwwwwwwwwwwwwwwwwwwwwwwwwwwwwwwwwwwwwwwwwwwwwww",
"wwwwwwwww@XXXXXwwwwwwXXXXXXXXXXXXwwwwwwXXXXXXX#wwwwwwwwwwwwwwww",
"wwwwwwwwwXXXXXXwwwwwwXXXXXXXXXXXXwwwwwwXXXXXXXXwwwwwwwwwwwwwwww",
"wwwwwww+X:>>>>>XXwwXX544444444444XXwwXX64444444XXwwwwwwwwwwwwww",
"wwwwwwwXX>>>>>>XXwwXX444444444444XXwwXX44444444X+wwwwwwwwwwwwww",
"wwwwwwwXX------*=XoXXXXXXXXXXXXXXXXXXXXXXXXXXXXXXwwwwwwwwwwwwww",
"wwwwwww@X------**XXXXXXXXXXXXXXXXXXXXXXXXXXXXXXXXwwwwwwwwwwwwww",
"wwwwwwwwwXXXX**XX**-->>>>>>-->>-------->>-->>>>>:XXwwwwwwwwwwww",
"wwwwwwwwwXXXX**XX**-->>>>>>-->>-------->>-->>>>>>X#wwwwwwwwwwww",
"wwwwwww@O;-**XXXXXXXX******--**--------**--****XXX#wwwwwwwwwwww",
"wwwwwww.X--**XXXXXXXX******--**--------**--****XXXXwwwwwwwwwwww",
"wwwwwww.X>>--XX****------------------------------X$wwwwwwwwwwww",
"wwwwwww.X>>--XX****------------------------------X.wwwwwwwwwwww",
"wwwwwww.X>>--XXXXXXXXXXXXXXXXXXXXXXXXXXXXXXXXXXXXX@wwwwwwwwwwww",
"wwwwwwwXX>>--XXXXXXXXXXXXXXXXXXXXXXXXXXXXXXXXX OXXXwwwwwwwwwwww",
"wwwwwww.X>>XXXX,,,,,,,,%%qqqqqqqq%%,,%%qqqqqqqq&%,2XXwwwwwwwwww",
"wwwwwwwX$:>XXXX,,,,,,,,%%qqqqqqqq%%,,%%qqqqqqqq%%,,X$wwwwwwwwww",
"wwwwwwwwwXXXX,,44444444,,%%%%%%%%,,44,,%%%%%%%%,,44X+wwwwwwwwww",
"wwwwwwwww+XXX,,44444444,,%%%%%%%%,,44,,%%%%%%%%,,44X+wwwwwwwwww",
"wwwwwwwwwwwXX44444444444444444444444444444444444444X+wwwwwwwwww",
"wwwwwwwwwwwXX44444444444444444444444444444444444444X$wwwwwwwwww",
"wwwwwwwwwww@X4444444444%%%%%%%%%%%%%%%%%%%%%%%%4444XXwwwwwwwwww",
"wwwwwwwwwww+X4444444444%%%%%%%%%%%%%%%%%%%%%%%%4444X.wwwwwwwwww",
"wwwwwwwwwwwXX44444444,,444444444444444444444444,,44XXwwwwwwwwww",
"wwwwwwwwwww X44444444,,444444444444444444444444,,44XXwwwwwwwwww",
"wwwwwwwwwwwXX444444444444444444,,,,,,,,,,4444444444XXwwwwwwwwww",
"wwwwwwwwwww#+444444444444444444,,,,,,,,,,4444444447+Xwwwwwwwwww",
"wwwwwwwwwwwwwXX,,444444444444444444444444444444,,X@wwwwwwwwwwww",
"wwwwwwwwwwwww++1,444444444444444444444444444444,,+Xwwwwwwwwwwww",
"wwwwwwwwwwwwwww.X,,444444444444444444444444,,,,XXwwwwwwwwwwwwww",
"wwwwwwwwwwwwwwwXX,,444444444444444444444444,,,,XXwwwwwwwwwwwwww",
"wwwwwwwwwwwwwwwXX444444,,444444444444444444XXXX9wwwwwwwwwwwwwww",
"wwwwwwwwwwwwwwwXX444444,,444444444444444444XXXXwwwwwwwwwwwwwwww",
"wwwwwwwwwwwwwwwXX444444XX44888888888888884444XXwwwwwwwwwwwwwwww",
"wwwwwwwwwwwwwwwXX444444XX44888888888888884444XXwwwwwwwwwwwwwwww",
"wwwwwwwwwwwwwwwXX,,,,,,XX88888888888888888844XXwwwwwwwwwwwwwwww",
"wwwwwwwwwwwwwwwXX,,,,,,XX88888888888888888834XXwwwwwwwwwwwwwwww",
"wwwwwwwwwwwwwwwwwXXXXXX4488888888888888888844XXwwwwwwwwwwwwwwww",
"wwwwwwwwwwwwwwwwwXXXXXX4488888888888888888844XXwwwwwwwwwwwwwwww",
"wwwwwwwwwwwwwwwwwXX,,444488888888888888888844XXwwwwwwwwwwwwwwww",
"wwwwwwwwwwwwwwwwwXX,,444488888888888888888844XXwwwwwwwwwwwwwwww",
"wwwwwwwwwwwwwww@X,,4444444488888888888888444444XXwwwwwwwwwwwwww",
"wwwwwwwwwwwwwwwXX,,4444444488888888888888444444XXwwwwwwwwwwwwww",
"wwwwwwwwwwwwwww$X,,444444XXXXXXXXXXXXXXXX444444XXwwwwwwwwwwwwww",
"wwwwwwwwwwwwwwwXX,,444444XXXXXXXXXXXXXXXX444444X@wwwwwwwwwwwwww",
"wwwwwwwwwwwwwww.X,,,,,,,,XX90wwwwwwwwwwXX,,,,,,X.wwwwwwwwwwwwww",
"wwwwwwwwwwwwwwww.1,,,,,,,XXwwwwwwwwwwwwXX,,,,,<@+wwwwwwwwwwwwww",
"wwwwwwwwwwwwwwwwwXXXXXXXXwwwwwwwwwwwwwwwwXXXXX.wwwwwwwwwwwwwwww",
"wwwwwwwwwwwwwwwwwwX.XX+XXwwwwwwwwwwwwwwww$O@@X+wwwwwwwwwwwwwwww",
"wwwwwwwwwwwwwwwwwwwwwwwwwwwwwwwwwwwwwwwwwwwwwwwwwwwwwwwwwwwwwww",
"wwwwwwwwwwwwwwwwwwwwwwwwwwwwwwwwwwwwwwwwwwwwwwwwwwwwwwwwwwwwwww",
"wwwwwwwwwwwwwwwwwwwwwwwwwwwwwwwwwwwwwwwwwwwwwwwwwwwwwwwwwwwwwww",
"wwwwwwwwwwwwwwwwwwwwwwwwwwwwwwwwwwwwwwwwwwwwwwwwwwwwwwwwwwwwwww",
"wwwwwwwwwwwwwwwwwwwwwwwwwwwwwwwwwwwwwwwwwwwwwwwwwwwwwwwwwwwwwww"
};