/* XPM */
static char *result[] = {
/* columns rows colors chars-per-pixel */
"58 58 28 1 ",
"  c #201E30",
". c #211E30",
"X c #201F30",
"o c #211F30",
"O c #211E31",
"+ c #201F31",
"@ c #211F31",
"# c #221E30",
"$ c #221F30",
"% c #221E31",
"& c #212030",
"* c #212031",
"= c #222030",
"- c #066029",
"; c #9C1A4D",
": c #9C1B4D",
"> c #CC3048",
", c #E44A4A",
"< c #27860F",
"1 c #71A11D",
"2 c #72A11C",
"3 c #73A01D",
"4 c #72A11E",
"5 c #A4CC42",
"6 c gray92",
"7 c #ECECEC",
"8 c white",
"9 c None",
/* pixels */
"9999999999999999999999999999999999999999999999999999999999",
"9999999999999999999999999999999999999999999999999999999999",
"9999999999999999999999999999999999999999999999999999999999",
"9999999999999999999999999999999999999999999999999999999999",
"9999999999999999999999999999999999999999999999999999999999",
"9999999999999999999999999999999999999999999999999999999999",
"999999ooo$oO999999@$&oooo+ooXo+*999999o$ooo&$oo99999999999",
"999999ooooo@999999$ooooooooooooo999999oooooooooo9999999999",
"9999oo,,,,,,oo99o@42222222222221oo99oo3222222222oo99999999",
"9999oo,,,,,,oo99oo22222222222222oo99oo2222222222oo99999999",
"9999oo>>>>>>:;oooooooooooooooooooooooooooooooooooo99999999",
"9999oo>>>>>>::oooooooooooooooooooooooooooooooooooo99999999",
"999999oooo::oo::>>,,,,,,>>,,>>>>>>>>>>>>,,>>,,,,,,oo999999",
"999999oooo::oo::>>,,,,,,>>,,>>>>>>>>>>>>,,>>,,,,,,oo999999",
"9999Oo>>::oooooooo::::::>>::>>>>>>>>>>>>::>>::::oooo999999",
"9999oo>>::oooooooo::::::>>::>>>>>>>>>>>>::>>::::oooo999999",
"9999oo,,>>oo::::>>>>>>>>>>>>>>>>>>>>>>>>>>>>>>>>>>oo999999",
"9999oo,,>>oo::::>>>>>>>>>>>>>>>>>>>>>>>>>>>>>>>>>>oo999999",
"9999oo,,>>oooooooooooooooooooooooooooooooooooooooooo999999",
"9999oo,,>>ooooooooooo.ooooooooooooooooooooooooooXooo999999",
"9999oo,,oooo<<<<<<<<--8888888888--<<--8888888888--<<oo9999",
"9999oo,,oooo<<<<<<<<--8888888888--<<--8888888888--<<oo9999",
"999999oooo<<22222222<<----------<<22<<----------<<22oo9999",
"999999Oooo<<22222222<<----------<<22<<----------<<22oo9999",
"99999999oo222222222222222222222222222222222222222222oo9999",
"99999999oo222222222222222222222222222222222222222222oo9999",
"99999999oo2222222222----------------------------2222oo9999",
"99999999oo2222222222----------------------------2222oo9999",
"99999999oo22222222<<2222222222222222222222222222<<22oo9999",
"99999999oo22222222<<2222222222222222222222222222<<22oo9999",
"99999999oo222222222222222222<<<<<<<<<<<<<<2222222222oo9999",
"99999999oo422222222222222222<<<<<<<<<<<<<<2222222222oo9999",
"9999999999oo<<2222222222222222222222222222222222<<oo999999",
"9999999999oo<<2222222222222222222222222222222222<<oo999999",
"999999999999oo<<<<22222222222222222222222222<<<<oo99999999",
"999999999999oo<<<<22222222222222222222222222<<<<oo99999999",
"999999999999oooooo22222222222222222222222222ooooo#99999999",
"999999999999oooooo22222222222222222222222222oooooo99999999",
"9999999999oo2222222222225555555555555555552222oo<<oo999999",
"9999999999oo2222222222225555555555555555552222oo<<oo799999",
"99999999*o<<2222<<oo22555555555555555555555522oo<<<<o#9999",
"99999999oo<<2222<<oo22555555555555555555555522oo<<<<oo9999",
"99999999oo<<<<<<oo2222555555555555555555555522oo<<<<o 9999",
"99999999+X<<<<<<oo2222555555555555555555555522oo<<<<o99999",
"9999999999oooooo<<2222225555555555555555552222oooooo999999",
"9999999999oooooo<<2222225555555555555555552222ooo999999999",
"99999999999999oo<<222222oooooooooooooooooo2222oo9999999999",
"99999999999999oo<<222222oooooooooooooooooo2222oo9999999999",
"9999999999999999oo<<2222oo799999999999&o<<22<<oo9999999999",
"9999999999999999oo<<2222oo999999999999=o<<22<<oo9999999999",
"999999999999999999oooooo99999999999999=o<<<<oo699999999999",
"999999999999999999oooooo99999999999999%o<<<<oo999999999999",
"99999999999999999999999999999999999999oooooo99999999999999",
"99999999999999999999999999999999999999oooooo99999999999999",
"9999999999999999999999999999999999999999999999999999999999",
"9999999999999999999999999999999999999999999999999999999999",
"9999999999999999999999999999999999999999999999999999999999",
"9999999999999999999999999999999999999999999999999999999999"
};/* XPM */
static char *result[] = {
/* columns rows colors chars-per-pixel */
"58 58 28 1 ",
"  c #201E30",
". c #211E30",
"X c #201F30",
"o c #211F30",
"O c #211E31",
"+ c #201F31",
"@ c #211F31",
"# c #221E30",
"$ c #221F30",
"% c #221E31",
"& c #212030",
"* c #212031",
"= c #222030",
"- c #066029",
"; c #9C1A4D",
": c #9C1B4D",
"> c #CC3048",
", c #E44A4A",
"< c #27860F",
"1 c #71A11D",
"2 c #72A11C",
"3 c #73A01D",
"4 c #72A11E",
"5 c #A4CC42",
"6 c gray92",
"7 c #ECECEC",
"8 c white",
"9 c None",
/* pixels */
"9999999999999999999999999999999999999999999999999999999999",
"9999999999999999999999999999999999999999999999999999999999",
"9999999999999999999999999999999999999999999999999999999999",
"9999999999999999999999999999999999999999999999999999999999",
"9999999999999999999999999999999999999999999999999999999999",
"9999999999999999999999999999999999999999999999999999999999",
"999999ooo$oO999999@$&oooo+ooXo+*999999o$ooo&$oo99999999999",
"999999ooooo@999999$ooooooooooooo999999oooooooooo9999999999",
"9999oo,,,,,,oo99o@42222222222221oo99oo3222222222oo99999999",
"9999oo,,,,,,oo99oo22222222222222oo99oo2222222222oo99999999",
"9999oo>>>>>>:;oooooooooooooooooooooooooooooooooooo99999999",
"9999oo>>>>>>::oooooooooooooooooooooooooooooooooooo99999999",
"999999oooo::oo::>>,,,,,,>>,,>>>>>>>>>>>>,,>>,,,,,,oo999999",
"999999oooo::oo::>>,,,,,,>>,,>>>>>>>>>>>>,,>>,,,,,,oo999999",
"9999Oo>>::oooooooo::::::>>::>>>>>>>>>>>>::>>::::oooo999999",
"9999oo>>::oooooooo::::::>>::>>>>>>>>>>>>::>>::::oooo999999",
"9999oo,,>>oo::::>>>>>>>>>>>>>>>>>>>>>>>>>>>>>>>>>>oo999999",
"9999oo,,>>oo::::>>>>>>>>>>>>>>>>>>>>>>>>>>>>>>>>>>oo999999",
"9999oo,,>>oooooooooooooooooooooooooooooooooooooooooo999999",
"9999oo,,>>ooooooooooo.ooooooooooooooooooooooooooXooo999999",
"9999oo,,oooo<<<<<<<<--8888888888--<<--8888888888--<<oo9999",
"9999oo,,oooo<<<<<<<<--8888888888--<<--8888888888--<<oo9999",
"999999oooo<<22222222<<----------<<22<<----------<<22oo9999",
"999999Oooo<<22222222<<----------<<22<<----------<<22oo9999",
"99999999oo222222222222222222222222222222222222222222oo9999",
"99999999oo222222222222222222222222222222222222222222oo9999",
"99999999oo2222222222----------------------------2222oo9999",
"99999999oo2222222222----------------------------2222oo9999",
"99999999oo22222222<<2222222222222222222222222222<<22oo9999",
"99999999oo22222222<<2222222222222222222222222222<<22oo9999",
"99999999oo222222222222222222<<<<<<<<<<<<<<2222222222oo9999",
"99999999oo422222222222222222<<<<<<<<<<<<<<2222222222oo9999",
"9999999999oo<<2222222222222222222222222222222222<<oo999999",
"9999999999oo<<2222222222222222222222222222222222<<oo999999",
"999999999999oo<<<<22222222222222222222222222<<<<oo99999999",
"999999999999oo<<<<22222222222222222222222222<<<<oo99999999",
"999999999999oooooo22222222222222222222222222ooooo#99999999",
"999999999999oooooo22222222222222222222222222oooooo99999999",
"9999999999oo2222222222225555555555555555552222oo<<oo999999",
"9999999999oo2222222222225555555555555555552222oo<<oo799999",
"99999999*o<<2222<<oo22555555555555555555555522oo<<<<o#9999",
"99999999oo<<2222<<oo22555555555555555555555522oo<<<<oo9999",
"99999999oo<<<<<<oo2222555555555555555555555522oo<<<<o 9999",
"99999999+X<<<<<<oo2222555555555555555555555522oo<<<<o99999",
"9999999999oooooo<<2222225555555555555555552222oooooo999999",
"9999999999oooooo<<2222225555555555555555552222ooo999999999",
"99999999999999oo<<222222oooooooooooooooooo2222oo9999999999",
"99999999999999oo<<222222oooooooooooooooooo2222oo9999999999",
"9999999999999999oo<<2222oo799999999999&o<<22<<oo9999999999",
"9999999999999999oo<<2222oo999999999999=o<<22<<oo9999999999",
"999999999999999999oooooo99999999999999=o<<<<oo699999999999",
"999999999999999999oooooo99999999999999%o<<<<oo999999999999",
"99999999999999999999999999999999999999oooooo99999999999999",
"99999999999999999999999999999999999999oooooo99999999999999",
"9999999999999999999999999999999999999999999999999999999999",
"9999999999999999999999999999999999999999999999999999999999",
"9999999999999999999999999999999999999999999999999999999999",
"9999999999999999999999999999999999999999999999999999999999"
};