/* XPM */
static char *result[] = {
/* columns rows colors chars-per-pixel */
"52 51 26 1 ",
"  c #201F30",
". c #211F30",
"X c #211E31",
"o c #201F31",
"O c #211F31",
"+ c #221E30",
"@ c #221F30",
"# c #221F31",
"$ c #212030",
"% c #212031",
"& c #066029",
"* c #9C1B4D",
"= c #9C1C4D",
"- c #CC3048",
"; c #E44949",
": c #E44A4A",
"> c #27860F",
", c #268610",
"< c #288610",
"1 c #72A11C",
"2 c #73A11D",
"3 c #A4CC42",
"4 c #ECECEC",
"5 c gray93",
"6 c white",
"7 c None",
/* pixels */
"7777777777777777777777777777777777777777777777777777",
"7777777777777777777777777777777777777777777777777777",
"7777......777777............777777........7777777777",
"7777.....X777777$...........777777........7777777777",
"77..:::::;..77..111111111111..77..21111111..77777777",
"77..::::::..77$.111111111111..77..11111111..77777777",
"77..------*=................................77777777",
"77..------**................................77777777",
"7777....**..**--::::::--::--------::--::::::..777777",
"7777....**..**--::::::--::--------::--::::::..777777",
"77..--**........******--**--------**--****....777777",
"77..--**........******--**--------**--****....777777",
"77..::--..****------------------------------..777777",
"77..::--..****------------------------------..777777",
"77..::--......................................777777",
"77..::--......................................555447",
"77..::....>>>>>>>>&&66666666&&>>&&66666666&&>>..4444",
"77..::....>>>>>>>>&&66666666&&>>&&66666666&&>>.+5447",
"7777....>>11111111>>&&&&&&&&>>11>>&&&&&&&&>>11..7777",
"7777....>>11111111>>&&&&&&&&>>11>>&&&&&&&&>>11..7777",
"777777..11111111111111111111111111111111111111..7777",
"777777..11111111111111111111111111111111111111..7777",
"777777..1111111111&&&&&&&&&&&&&&&&&&&&&&&&1111..7777",
"777777..1111111111&&&&&&&&&&&&&&&&&&&&&&&&1111..7777",
"777777..11111111>>111111111111111111111111>>11..7777",
"777777..11111111>>111111111111111111111111>>11..7777",
"777777..111111111111111111>>>>>>>>>>1111111111..7777",
"777777%.111111111111111111>>>>>>>>>>1111111111..7777",
"77777777..>>111111111111111111111111111111>>..777777",
"77777777..>>111111111111111111111111111111>>..777777",
"7777777777..11111111111111111111111111>>>>..77777777",
"7777777777..11111111111111111111111111>>>>.777777777",
"7777777777..>>1111>>..1111111111111111....7777777777",
"7777777777..>>1111>>..1111111111111111....7777777777",
"777777777777..11111111..3333333333331111..7777777777",
"777777777777..11111111..3333333333331111..7777777777",
"777777777777..>>>>>>>>..3333333333333311..7777777777",
"777777777777..>>>>>>>>..3333333333333311..7777777777",
"777777777777..&&......333333333333333311..7777777777",
"777777777777..&&......333333333333333311..4777777777",
"7777777777..>>1111113333333333333333331111..77777777",
"7777777777..>>1111113333333333333333331111..47777777",
"7777777777..>>111111113333333333333311111111.@777777",
"7777777777..>>111111113333333333333311111111..777777",
"77777777.O>>111111>>................>>111111..777777",
"77777777..>>111111>,................>>111111..777777",
"77777777O.>>>>>>>>..7777777777777777..>>>>>>..777777",
"777777777.>>>>>>>>O 7777777777777777..<>>>>>O.777777",
"7777777777........77777777777777777777......77777777",
"7777777777#.......77777777777777777777O ..o.77777777",
"7777777777777777777777777777777777777777777777777777"
};