/* XPM */
static char *result[] = {
/* columns rows colors chars-per-pixel */
"56 49 211 2 ",
"   c #03042B",
".  c #031A2D",
"X  c #0D1A2C",
"o  c #1C1E2E",
"O  c #19182E",
"+  c #081633",
"@  c #16183B",
"#  c #1B042C",
"$  c #261C2E",
"%  c #381F31",
"&  c #301330",
"*  c #1F2232",
"=  c #152337",
"-  c #1D202F",
";  c #23202F",
":  c #25252F",
">  c #292632",
",  c #3D2632",
"<  c #3C2A33",
"1  c #352631",
"2  c #3A3335",
"3  c #363834",
"4  c #233C31",
"5  c #750000",
"6  c #7A0100",
"7  c #74000A",
"8  c #720009",
"9  c #541B38",
"0  c #511437",
"q  c #720726",
"w  c #412C34",
"e  c #4C2C35",
"r  c #452733",
"t  c #532D36",
"y  c #5A2638",
"u  c #463637",
"i  c #5C333A",
"p  c #5A3639",
"a  c #6D273A",
"s  c #762336",
"d  c #79283A",
"f  c #62343A",
"g  c #6B363B",
"h  c #763B3D",
"j  c #7A3C3E",
"k  c #773239",
"l  c #7E262B",
"z  c #004C2C",
"x  c #3C4632",
"c  c #2D5433",
"v  c #2B682D",
"b  c #31662A",
"n  c #356D2C",
"m  c #347529",
"M  c #377929",
"N  c #4B5739",
"B  c #5B413C",
"V  c #67443E",
"C  c #754F3A",
"Z  c #4A742E",
"A  c #566937",
"S  c #557232",
"D  c #677E3B",
"F  c #1C1640",
"G  c #1A2A40",
"H  c #2A3545",
"J  c #34344D",
"K  c #373755",
"L  c #262F49",
"P  c #6F1B41",
"I  c #4B3942",
"U  c #732542",
"Y  c #762E41",
"T  c #763345",
"R  c #7C3646",
"E  c #7C3B46",
"W  c #7C3B49",
"Q  c #6F2F43",
"!  c #344255",
"~  c #3C5F46",
"^  c #474C5C",
"/  c #4C5A56",
"(  c #5A585B",
")  c #5A544F",
"_  c #6E4A42",
"`  c #6B4443",
"'  c #724C43",
"]  c #794443",
"[  c #665345",
"{  c #7C5246",
"}  c #7B5849",
"|  c #6F5454",
" . c #796556",
".. c #435262",
"X. c #565665",
"o. c #5C5D6C",
"O. c #484864",
"+. c #685A64",
"@. c #546471",
"#. c #5A656E",
"$. c #66666B",
"%. c #7A666D",
"&. c #636C7B",
"*. c #67727F",
"=. c #92453D",
"-. c #8D5835",
";. c #833D44",
":. c #813746",
">. c #834442",
",. c #8A4443",
"<. c #8A4B4B",
"1. c #874648",
"2. c #944A46",
"3. c #9A4E49",
"4. c #914D49",
"5. c #8C534B",
"6. c #87554A",
"7. c #92554E",
"8. c #955B4E",
"9. c #9E5C4A",
"0. c #995343",
"q. c #9B5D51",
"w. c #975A51",
"e. c #A1554C",
"r. c #A2594D",
"t. c #A65E50",
"y. c #95614F",
"u. c #866B54",
"i. c #9C6552",
"p. c #996957",
"a. c #9A765D",
"s. c #8D7157",
"d. c #A2614F",
"f. c #A46453",
"g. c #A96553",
"h. c #A66955",
"j. c #AB6C56",
"k. c #AD6F58",
"l. c #AF7159",
"z. c #A3765E",
"x. c #B2745B",
"c. c #B5795D",
"v. c #B9795E",
"b. c #B8775D",
"n. c #867562",
"m. c #946D73",
"M. c #86777D",
"N. c #8C7074",
"B. c #AA7C63",
"V. c #B57E60",
"C. c #558C2C",
"Z. c #5D922E",
"A. c #57912C",
"S. c #6D8937",
"D. c #699532",
"F. c #799D36",
"G. c #7B9F38",
"H. c #769C36",
"J. c #7EA139",
"K. c #7BA236",
"L. c #7C8E4D",
"P. c #72846D",
"I. c #81A33A",
"U. c #879F4A",
"Y. c #8BA944",
"T. c #97B74A",
"R. c #99B352",
"E. c #A1BC56",
"W. c #88866F",
"Q. c #A48463",
"!. c #AE8C68",
"~. c #B98364",
"^. c #BA8E6B",
"/. c #B68766",
"(. c #B4926B",
"). c #BB936E",
"_. c #BD9970",
"`. c #C28B69",
"'. c #C2936D",
"]. c #C49C73",
"[. c #C69971",
"{. c #C9A176",
"}. c #CEA579",
"|. c #C6A075",
" X c #ACCD57",
".X c #6C6C82",
"XX c #6D7784",
"oX c #747485",
"OX c #777889",
"+X c #7D7D92",
"@X c #8D7987",
"#X c #868895",
"$X c #91868C",
"%X c #AE9B9F",
"&X c #A69498",
"*X c #A58E94",
"=X c #9696A4",
"-X c #AF9CA1",
";X c #9AA1A9",
":X c #A0A1AA",
">X c #B5A5A8",
",X c #BEB0B3",
"<X c #BCADB1",
"1X c #C1B6B9",
"2X c #D1C9CB",
"3X c #D7CFD0",
"4X c #DBD6D8",
"5X c #EAEAEB",
"6X c #F6F6F6",
"7X c #FCFDFD",
"8X c None",
/* pixels */
"8X8X8X8X8X8X8X8X8X8X8X8X8X8X8X8X8X8X8X8X8X8X8X8X8X8X8X8X8X8X8X8X8X8X8X8X8X8X8X8X8X8X8X8X8X8X8X8X8X8X8X8X8X8X8X8X",
"8X8X8X8X8X8X8X8X8X8X8X8X8X8X8X8X8X8X8X8X8X8X8X8X8X8X8X8X8X8X8X8X8X8X8X8X8X8X8X8X8X8X8X8X8X8X8X8X8X8X8X8X8X8X8X8X",
"8X8X8X8X8X8X8X8X8X8X8X8X8X8X8X8X8X8X8X8X8X8X8X8X8X8X8X8X8X8X8X8X8X8X8X8X8X8X8X8X8X8X8X8X8X8X8X8X8X8X8X8X8X8X8X8X",
"8X8X8X8X8X8X8X8X8XOX8X8X8X8XoX8X8X8X8X8X+XOXOXOXOX8X8X#X.X#X8X8X8X8X8X8X8X8X8X8X8X=X.X@X8X8X8X8X8X8X8X8X8X8X8X8X",
"8X8X8X8X8X8X8X1 , w u 8X8Xu w w w < w 2 w w w u w 8X8XI < < 8X8X8X8X8X8X8X8X8X8X8X) x 3 8X8X8X8X8X8X8X8X8X8X8X8X",
"8X8X8X8X8Xo.Q ,.9.B.).n.) y.h.i.f.p.i.i.i.i.i.i.f.} ( p.q.] e #X8X8X8X8X8X8X8X8X! R.T.S.N .X8X8X8X8X8X8X8X8X8X8X",
"8X8X8X8X8Xp ' f.j.`.}.u.y l.b.x.c.b.b.x.c.b.x.v.`.} 1 j.b.r.E ) :X8X8X8X8X8X8XP.L.T. XK.S ~ 8X8X8X8X8X8X8X8X8X8X",
"8X8X8X8X, ,.r.x.k.^.].p.:.k.x.x.l.l.l.l.x.l.j.v.{.u.% f.b.k.e.h ; 8X8X8X8X8X@ L. XI.H.F.Z.m * 8X8X8X8X8X8X8X8X8X",
"8X8X8X8Xr ,.g.x.x.c.~.x.h.l.x.x.x.x.x.x.x.x.x./.}.a.Q h.x.x.t.h o 8X8X8X8X8XF D T.J.F.J.Z.n ; 8X8X8X8X8X8X8X8X8X",
"8X8X8X8X1 l 2.r.9.9.i.f.h.l.h.i.f.d.9.9.9.9.9.x.'.a.W j.x.l.e.h * 8X8X8X8X8XF S K.J.J.F.Z.m 4 .X8X8X8X8X8X8X8X8X",
"8X8X8X8X% a s d s T E T <.l.w.T W j s s s s d 7.l.7.W h.x.k.e.h * 8X8X8X8X8XF S J.J.J.J.Z.M v 4 F   @X8X8X8X8X8X",
"8X8X8X8X( 1X3X2X3X>XT =.h.l.h.0.q *X2X2X2X2X@Xl j.h.h.k.x.k.e.h * 8X8X8X8X8X8XP.Z F.K.Z.Z v m S  .U.L.OX8X8X8X8X",
"8X8X8X8X$.5X7X7X7X4XW 0.c.l.x.j.5 1X7X7X7X7X>X5 k.k.j.l.x.k.r.h ; 8X8X8X8X8X8X@Xe S.D.M v n C.D.I. XU.N 8X8X8X8X",
"8X8X8X8X$.5X7X6X7X4XE 0.x.l.x.h.7 ,X7X7X7X6X-X6 l.w.] j.c.l.t.h ; 8X8XL + F F ] ,.u z v m C.H.G.I.I.T.E.A .X8X8X",
"8X8X8X8X$.5X7X7X7X4XW 0.x.l.x.h.7 ,X7X7X7X6X-X6 k.f.w.l.h.5.j r . o.M.{ 6.} { 5.3.k y c m D.I.I.K.K.T.T.N O.8X8X",
"8X8X8X8Xo.4X6X5X6X2XW 0.l.l.x.h.7 <X7X7X7X6X-X6 k.x.x.c.q.T e < w > ' x.c.b.b.t.2.2.E L v C.H.G.K.K.K.D.x oX8X8X",
"8X8X8X8X. #.@Xm.@Xm.T T 5.l.c.h.7 ,X7X7X7X6X-X6 k.x.x.x.k.h.f.i.i.i.h.x.c.x.f.e.2.i +.8X/ b C.C.C.A.Z x 8X8X8X8X",
"8X8X8XW.s.C -.-.5 q 7.7.7.q.j.j.5 ,X7X7X7X7X-X6 j.x.k.i.h.x.b.c.c.c.c.g.y.6.h j h +.8X8X8X( b b b b ~ 8X8X8X8X8X",
"8X8X- a.}.{.{.[.y.<.l.x.h.E q.j.7 <X7X6X6X6X%X6 l.x.h.E 5.l.l.k.k.l.h.2.f + = X H 8X8X8X8X8X> $ $ O 8X8X8X8X8X8X",
"#X .Q././. .s.`.^.B.<.h.k.f.j.j.,.m.&X&X*X*Xm.=.k.x.j.4.1.<.` B V ` p t N.8X8X8X8X8X8X8X8X8X8X8X8X8X8X8X8X8X8X8X",
"^ [ {.'.<.0 9 y.].).T q.x.x.x.k.t.=.6 6 6 6 =.g.l.x.k.r.4.Y y $   K O...8X8X8X8X8X8X8X8X8X8X8X8X8X8X8X8X8X8X8X8X",
"X.[ ].B.U W 9 2 ).^.R q.x.x.k.l.l.l.l.l.k.x.k.l.l.l.l.x.t.2.3.E * 8X8X8X8X8X8X8X8X8X8X8X8X8X8X8X8X8X8X8X8X8X8X8X",
"X.[ ].B.P W 9 > (.^.W q.x.l.k.x.l.x.x.l.x.x.x.l.l.l.l.x.j.f.9.h * 8X8X8X8X8X8X8X8X8X8X8X8X8X8X8X8X8X8X8X8X8X8X8X",
"X.[ ].B.U W 9 2 (.^.R q.x.k.x.k.l.l.l.l.x.k.k.l.l.l.l.l.x.x.r.h ; 8X8X8X8X8X8X8X8X8X8X8X8X8X8X8X8X8X8X8X8X8X8X8X",
"X.[ _.Q.U :.9 2 (.^.W q.B.l.k.x.l.l.l.x.l.l.l.l.l.l.l.l.l.k.r.h * 8X8X8X8X8X8X8X8X8X8X8X8X8X8X8X8X8X8X8X8X8X8X8X",
"X.[ ].B.U R 9 2 (.^.U q.b.l.l.x.l.l.l.l.l.l.l.l.l.l.l.l.x.k.e.h * 8X8X8X8X8X8X8X8X8X8X8X8X8X8X8X8X8X8X8X8X8X8X8X",
"X.[ |.B.U R 9 2 (.).<.q.k.l.k.j.l.l.l.l.l.l.l.l.l.l.l.l.l.k.r.h * 8X8X8X8X8X8X8X8X8X8X8X8X8X8X8X8X8X8X8X8X8X8X8X",
"X.[ ].B.P E 0 = !.}.].p.1.l.q.<.j.x.l.l.l.l.l.l.k.l.x.l.x.k.r.h * 8X8X8X8X8X8X8X8X8X8X8X8X8X8X8X8X8X8X8X8X8X8X8X",
"^ [ {.~.;.y y { _.].Q.6.<.l.7.T h.x.l.l.l.l.l.x./.l.8.j.x.k.r.h * 8X8X8X8X8X8X8X8X8X8X8X8X8X8X8X8X8X8X8X8X8X8X8X",
"o.[ _.'.h.u ] V.[.Q.O k r.j.7.1.j.x.l.l.l.l.j.~.{.z.E j.x.l.e.h * 8X8X8X8X8X8X8X8X8X8X8X8X8X8X8X8X8X8X8X8X8X8X8X",
"8X&X[ Q.{.).].[.s.C ,.2.3.<.w.h.l.l.l.l.l.l.l.x.V.l.h.l.x.k.r.h * 8X8X8X8X8X8X8X8X8X8X8X8X8X8X8X8X8X8X8X8X8X8X8X",
"8X8X( n.(.!.(.Q.2 # >.>.E T i.c.l.l.l.l.l.l.l.l.V.l.f.k.x.k.r.h ; 8X8X8X8X8X8X8X8X8X8X8X8X8X8X8X8X8X8X8X8X8X8X8X",
"8X8X8X#X1 : : : - o $ . e ,.g.x.l.l.l.x.l.l.j.~.].B.R h.b.j.r.h - 8X8X8X8X8X8X8X8X8X8X8X8X8X8X8X8X8X8X8X8X8X8X8X",
"8X8X8XoX# g h k h h h g >.f.k.x.'.B.<.h.x.l.j.~.}.a.U g.x.l.r.h * 8X8X8X8X8X8X8X8X8X8X8X8X8X8X8X8X8X8X8X8X8X8X8X",
"8X8X8XXXw ,.e.r.r.e.r.e.d.l.l.x.].B.;.h.x.l.k.V.'.B.<.j.x.k.e.h * 8X8X8X8X8X8X8X8X8X8X8X8X8X8X8X8X8X8X8X8X8X8X8X",
"8X8X8XXXw ,.r.l.k.l.x.k.l.l.l.x.x.x.l.k.l.l.k.x.l.l.l.x.x.k.r.h * 8X8X8X8X8X8X8X8X8X8X8X8X8X8X8X8X8X8X8X8X8X8X8X",
"8X8X8XXXw ,.d.x.x.j.q.g.b.l.l.l.k.f.q.k.x.l.l.l.k.y.6.9.g.l.r.h * 8X8X8X8X8X8X8X8X8X8X8X8X8X8X8X8X8X8X8X8X8X8X8X",
"8X8X8XXXr >.f.x.x.i.U w.l.l.l.l.b.w.Q i.x.l.l.l.x._   ;.d.x.r.h * 8X8X8X8X8X8X8X8X8X8X8X8X8X8X8X8X8X8X8X8X8X8X8X",
"8X8X8X&., ,.g.x.V.w.< C d.x.x.x.b.6.% >.g.l.x.x.B.' & ,.f.l.t.E o 8X8X8X8X8X8X8X8X8X8X8X8X8X8X8X8X8X8X8X8X8X8X8X",
"8X8X8X8X%.g <.g.j.6.. k e.g.f.g.g.{ X ;.e.h.g.t.g.] 1 ,.g.f.>.` OX8X8X8X8X8X8X8X8X8X8X8X8X8X8X8X8X8X8X8X8X8X8X8X",
"8X8X8X8X8X! f 4.2.j $ h 3.,.4.,.4.g ; =.4.,.2.2.4.i < ,.3.,.r &.8X8X8X8X8X8X8X8X8X8X8X8X8X8X8X8X8X8X8X8X8X8X8X8X",
"8X8X8X8X8X8XN.t t r   $ r r t t t , $ e t t e r r o . t t e 8X8X8X8X8X8X8X8X8X8X8X8X8X8X8X8X8X8X8X8X8X8X8X8X8X8X",
"8X8X8X8X8X8X8X..+ w ' _ V i 1 . ..@.$.@.! . < y t t i X G &.8X8X8X8X8X8X8X8X8X8X8X8X8X8X8X8X8X8X8X8X8X8X8X8X8X8X",
"8X8X8X8X8X8X8X8XK V x.x.j.0.f L 8X8X8X8X;X; C 3.2.0.,.w XX8X8X8X8X8X8X8X8X8X8X8X8X8X8X8X8X8X8X8X8X8X8X8X8X8X8X8X",
"8X8X8X8X8X8X8X8X8X@X_ ' ` p N.8X8X8X8X8X:X; 7.j.j.r.,.r OX8X8X8X8X8X8X8X8X8X8X8X8X8X8X8X8X8X8X8X8X8X8X8X8X8X8X8X",
"8X8X8X8X8X8X8X8X8X8XK J J J 8X8X8X8X8X8X=X$ 8.V.b.g.>.r XX8X8X8X8X8X8X8X8X8X8X8X8X8X8X8X8X8X8X8X8X8X8X8X8X8X8X8X",
"8X8X8X8X8X8X8X8X8X8X8X8X8X8X8X8X8X8X8X8X=X: y.V.b.g.,.r *.8X8X8X8X8X8X8X8X8X8X8X8X8X8X8X8X8X8X8X8X8X8X8X8X8X8X8X",
"8X8X8X8X8X8X8X8X8X8X8X8X8X8X8X8X8X8X8X8X8X=X} { { V f @X8X8X8X8X8X8X8X8X8X8X8X8X8X8X8X8X8X8X8X8X8X8X8X8X8X8X8X8X",
"8X8X8X8X8X8X8X8X8X8X8X8X8X8X8X8X8X8X8X8X8X8X.X+ L @ ..8X8X8X8X8X8X8X8X8X8X8X8X8X8X8X8X8X8X8X8X8X8X8X8X8X8X8X8X8X"
};