/* XPM */
static char *result[] = {
/* columns rows colors chars-per-pixel */
"65 46 225 2 ",
"   c #01062C",
".  c #051C2E",
"X  c #161E2F",
"o  c #191937",
"O  c #1B042C",
"+  c #231F30",
"@  c #3A1731",
"#  c #33072E",
"$  c #09283D",
"%  c #0A2237",
"&  c #21382D",
"*  c #262230",
"=  c #2C2231",
"-  c #27253B",
";  c #3A2532",
":  c #2E3132",
">  c #790010",
",  c #440034",
"<  c #560A33",
"1  c #591A34",
"2  c #7F0025",
"3  c #7D002C",
"4  c #721F3D",
"5  c #452633",
"6  c #4A2633",
"7  c #4C2A34",
"8  c #432833",
"9  c #542A35",
"0  c #5C2C36",
"q  c #5C2736",
"w  c #463537",
"e  c #503437",
"r  c #533538",
"t  c #632C36",
"y  c #6B3038",
"u  c #65313A",
"i  c #73353A",
"p  c #7D363B",
"a  c #752A3D",
"s  c #01721F",
"d  c #187A18",
"f  c #006E1E",
"g  c #2B7F18",
"h  c #17452C",
"j  c #10562A",
"k  c #21442B",
"l  c #2A5F29",
"z  c #0D6626",
"x  c #107023",
"c  c #2B6F22",
"v  c #48423B",
"b  c #4B5133",
"n  c #71423B",
"m  c #587928",
"M  c #566D35",
"N  c #4C6C29",
"B  c #617737",
"V  c #1B1240",
"C  c #0D2D41",
"Z  c #1E384B",
"A  c #1A3448",
"S  c #1D2444",
"D  c #2B2B46",
"F  c #23224D",
"G  c #21384B",
"H  c #363656",
"J  c #293750",
"K  c #3E3E62",
"L  c #7A0341",
"P  c #7D1641",
"I  c #7A2A43",
"U  c #7D3145",
"Y  c #663E41",
"T  c #463844",
"R  c #2B4255",
"E  c #394954",
"W  c #3D4E61",
"Q  c #3B5262",
"!  c #514E4B",
"~  c #654647",
"^  c #7A4747",
"/  c #715051",
"(  c #66755B",
")  c #4A4D67",
"_  c #425366",
"`  c #55556A",
"'  c #5A5B75",
"]  c #5B486A",
"[  c #765A64",
"{  c #6D556D",
"}  c #596777",
"|  c #696769",
" . c #66667D",
".. c #636A7A",
"X. c #64707F",
"o. c #747878",
"O. c #8B0000",
"+. c #850000",
"@. c #8F1500",
"#. c #901E10",
"$. c #901B0A",
"%. c #800026",
"&. c #862B3C",
"*. c #833B3D",
"=. c #883D3E",
"-. c #943837",
";. c #97322A",
":. c #912011",
">. c #97423D",
",. c #A34E3E",
"<. c #A6523D",
"1. c #832C42",
"2. c #882F43",
"3. c #893746",
"4. c #933D42",
"5. c #973E43",
"6. c #8A4945",
"7. c #944241",
"8. c #9C4443",
"9. c #934549",
"0. c #944B4B",
"q. c #994D48",
"w. c #845649",
"e. c #9D524C",
"r. c #9C5D4A",
"t. c #95524A",
"y. c #995951",
"u. c #A14744",
"i. c #A54A46",
"p. c #A94D46",
"a. c #A84D48",
"s. c #A1554D",
"d. c #AB544A",
"f. c #A55A4D",
"g. c #AB5C4D",
"h. c #A85743",
"j. c #B25E4E",
"k. c #A35F52",
"l. c #85654D",
"z. c #8B6C50",
"x. c #846E5E",
"c. c #997859",
"v. c #9F6455",
"b. c #AC654F",
"n. c #A4614E",
"m. c #B3624E",
"M. c #AD6451",
"N. c #AD6952",
"B. c #A36555",
"V. c #B46651",
"C. c #B56A52",
"Z. c #B96E54",
"A. c #B96651",
"S. c #BC7155",
"D. c #BD7A5A",
"F. c #B47659",
"G. c #A7745B",
"H. c #8A4B6A",
"J. c #91626F",
"K. c #9C727A",
"L. c #887173",
"P. c #B37F60",
"I. c #C27457",
"U. c #C3795A",
"Y. c #C06F56",
"T. c #1F8111",
"R. c #1E830F",
"E. c #348C0B",
"W. c #488A19",
"Q. c #579814",
"!. c #4C930D",
"~. c #6A9D18",
"^. c #74A31D",
"/. c #78A61E",
"(. c #538021",
"). c #6D8F2D",
"_. c #7CA923",
"`. c #7A9248",
"'. c #6C8369",
"]. c #8CB732",
"[. c #88B133",
"{. c #9ECA3B",
"}. c #A0CD3C",
"|. c #AC835E",
" X c #BB825D",
".X c #97BD40",
"XX c #8E817B",
"oX c #B88862",
"OX c #BF9267",
"+X c #C4815F",
"@X c #C38A63",
"#X c #CA8A63",
"$X c #CB9166",
"%X c #C39569",
"&X c #CC9C6D",
"*X c #C79669",
"=X c #D19C6D",
"-X c #D5A271",
";X c #D8A473",
":X c #D3A06F",
">X c #A0C742",
",X c #667683",
"<X c #787783",
"1X c #696982",
"2X c #8A7C84",
"3X c #9F7B83",
"4X c #9D7780",
"5X c #A07A83",
"6X c #788792",
"7X c #84878E",
"8X c #949398",
"9X c #918B8D",
"0X c #A5858C",
"qX c #A78A91",
"wX c #B8A2A8",
"eX c #9797A4",
"rX c #C7BABC",
"tX c #CBC3C5",
"yX c #D2C7C9",
"uX c #D4CACC",
"iX c #DCD3D5",
"pX c #EAE8E9",
"aX c #F3F2F2",
"sX c #FDFDFD",
"dX c None",
/* pixels */
"dXdXdXdXdXdXdXdXdXdXdXdXdXdXdXdXdXdXdXdXdXdXdXdXdXdXdXdXdXdXdXdXdXdXdXdXdXdXdXdXdXdXdXdXdXdXdXdXdXdXdXdXdXdXdXdXdXdXdXdXdXdXdXdXdX",
"dXdXdXdXdXdXdXdXdXdXdXdXdXdXdXdXdXdXdXdXdXdXdXdXdXdXdXdXdXdXdXdXdXdXdXdXdXdXdXdXdXdXdXdXdXdXdXdXdXdXdXdXdXdXdXdXdXdXdXdXdXdXdXdXdX",
"dXdXdXdXdXdXdXdXdXdXdXdXdXdXdXdXdXdXdXdXdXdXdXdXdXdXdXdXdXdXdXdXdXdXdXdXdXdXdXdXdXdXdXdXdXdXdXdXdXdXdXdXdXdXdXdXdXdXdXdXdXdXdXdXdX",
"dXdXdXdXdXdXdXdXdXdXdXdXdXdXdXdXdXdXdXdXdXdXdXdXdXdXdXdXdXdXdXdXdXdXdXdXdXdXdXdXdXdXdXdXdXdXdXdXdXdXdXdXdXdXdXdXdXdXdXdXdXdXdXdXdX",
"dXdXdXdXdXdXdXdXdXdXdXdXdXdXdXdXdXdXdXdXdXdXdXdXdXdXdXdXdXdXdXdXdXdXdXdXdXdXdXdXdXdXdXdXdXdXdXdXdXdX1X- : <XdXdXdXdXdXdXdXdXdXdXdX",
"dXdXdXdXdXdXdXdXdXdXdXdXdXdXdXdXdXdXdXdXdXdXdXdXdXdXdXdXdXdXdXdXdXdXdXdXdXdXdXdXdXdXdXdXdXdXdXdXdX` [.[.).M ' dXdXdXdXdXdXdXdXdXdX",
"dXdXdXdXdXdXdXdXdXdXdXdXdXdXdXdXdXdXdXdXdXdXdXdXdXdXdXdXdXdXdXdXdXdXdXdXdXdXdXdXdXdXdXdXdXdXdXdX9XM [.}.].(.h 7XdXdXdXdXdXdXdXdXdX",
"dXdXdXdXdXdXdXdXdXdXdXdXdXdXdXdXdXdXdXdXdXdXdXdXdXdXdXdXdXdXdXdXdXdXdXdXdXdXdXdXdXdXdXdXdXdXdX) B >X].^.^.Q.d k { dXdXdXdXdXdXdXdX",
"dXdXdXdXdXdXdXdXdXdXdX} X.X. .' 6XdXdX}  . . . . . . . . . . . . .' dXdXdX'  .' dXdXdXdXdXdXdXH M ]._.~._.Q.R.k ] dXdXdXdXdXdXdXdX",
"dXdXdXdXdXdXdXdXdXdX2X6 5 6 r v / uX9Xr e e e e e e e e e e e e e e 9XdX~ e e 7 ~ dXdXdXdXdXdXK b ~.^.^.^.Q.T.h ] dXdXdXdXdXdXdXdX",
"dXdXdXdXdXdXdXdXdX) u >.-.8.m.@XoX! ^ C.b.b.b.b.b.b.b.b.N.b.M.N.M.M.w.! n.C.N.8.p G dXdXdXdXdXH l /._.^._.Q.T.z h F V ) dXdXdXdXdX",
"dXdXdXdXdXdXdXdX2Xu 6.j.m.j.Y.=X%X~ 6.I.I.I.S.I.I.S.I.I.S.S.I.S.U.#Xw.@ b.U.I.Z.s.i [ dXdXdXdXdX( m ~.^.~.W.x s c M ).`.2XdXdXdXdX",
"dXdXdXdXdXdXdX} 6 4.j.S.S.Z.C.$X%X0.q.Z.Z.Z.Z.Z.Z.Z.Z.Z.Z.Z.Z.A.+X:Xz.@ N.S.Z.S.V.p.y C dXdXdXdXdX+ m ~.E.s z d !.^.{.{.b 1XdXdXdX",
"dXdXdXdXdXdXdXX.5 4.j.S.S.Z.Z.D.D.M.V.Z.Z.Z.Z.Z.Z.Z.Z.Z.Z.Z.Z.C.D.-XG.I M.S.Z.S.A.i.y A dXdXdXdXdXdXo.l x s g Q.~.~._.[..X`.' dXdX",
"dXdXdXdXdXdXdX,X5 -.g.S.S.S.S.C.Z.S.S.C.S.S.S.Z.S.Z.Z.S.Z.S.Z.C.D.%XG.2.C.S.Z.S.V.i.y Z dXdXdXdXdXdXH.1 & z E.~._._.~._.>X).  dXdX",
"dXdXdXdXdXdXdX,X5 7.j.S.Z.Z.S.Z.Z.S.S.S.C.Z.S.Z.Z.S.Z.Z.Z.S.Z.Z.S.S.q.3.M.S.Z.S.V.i.y Z dXdXdXdXdX$ 3.5.# f E.~._.~.^._._.M V dXdX",
"dXdXdXdXdXdXdX,X@ > O.:.:.$.$.>.e.0.b.C.s.q.e.-.@.#.#.#.@.-.q.V.Z.Z.M.M.Z.Z.Z.S.Z.p.y R dXdX`  .[ i 8.u.3.n z W.Q.!.Q.W.N ( dXdXdX",
"dXdXdXdXdXdXdX| T K.0XK.K.0XK.J.4 3.f.Z.e.I 1.J.3XK.4X4X4XJ.1.f.S.Z.Z.Z.Z.Z.Z.C.g.>.0 A dX8Xr w i d.d.8.8.3.J x d d d d - dXdXdXdX",
"dXdXdXdXdXdXdX| | iXsXaXaXaXaXwX+.V.S.Z.Z.u.1.tXaXaXpXpXaXtX1.h.S.S.e.3.M.S.Z.e.a @     + w.C.m.C.Z.j.-.0 <XdX! & & & E dXdXdXdXdX",
"dXdXdXdXdX<X9X: [ rXuXyXuXuXuXqX%.e.N.S.I.,.&.iXsXsXsXsXsXiX1.<.S.S.g.e.C.S.S.k.t.^ 6.w.^ k.I.I.Z.V.8.Y ..dXdXdXdXdXdXdXdXdXdXdXdX",
"dXdXdXdX| w w ^ 5.3 2 %.%.%.2 &.3.1.e.C.S.<.1.yXsXaXaXaXsXyX1.h.S.Z.S.S.S.Z.C.Z.Z.S.S.S.S.Z.Z.Z.m.8.t E dXdXdXdXdXdXdXdXdXdXdXdXdX",
"dXdXdXD c.%XOX%XoX1.&.m.b.h.g.M.N.M.e.9.C.m.-.K.qX0X0X0XqXK.5.j.S.Z.Z.Z.S.g.9.M.D.I.I.I.I.A.d.n r 9 2XdXdXdXdXdXdXdXdXdXdXdXdXdXdX",
"dXdXXXl.oX=XoX%X$XG.n.m.Z.S.S.S.D.I.b.9.V.Z.g.;.+.O.O.+.+.;.d.C.S.Z.Z.Z.S.f.2.e.g.r.r.r.r.t.U / ` _ dXdXdXdXdXdXdXdXdXdXdXdXdXdXdX",
"dXD l.=X#Xr.= w.U.&XP.1.b.S.Z.Z.Z.Z.Z.Z.Z.Z.Z.S.Z.Z.Z.Z.Z.Z.Z.Z.Z.Z.Z.Z.Z.j.u.4.y = X * * * - dXdXdXdXdXdXdXdXdXdXdXdXdXdXdXdXdXdX",
"dXD z.=XF.1.P 1 y.&X XI g.S.Z.Z.Z.Z.Z.Z.S.Z.Z.S.S.Z.Z.S.Z.S.Z.Z.Z.Z.Z.Z.Z.C.V.8.&.*.9 S 6XdXdXdXdXdXdXdXdXdXdXdXdXdXdXdXdXdXdXdXdX",
"dXD z.=Xk.L U # E %XoX1.M.S.Z.Z.Z.Z.Z.Z.Z.Z.Z.Z.Z.Z.Z.Z.Z.Z.Z.Z.Z.Z.Z.Z.Z.S.Z.j.p.p.i G dXdXdXdXdXdXdXdXdXdXdXdXdXdXdXdXdXdXdXdXdX",
"dXD z.=XB.1.3., ! %XP.&.g.I.Z.Z.Z.Z.Z.Z.S.S.Z.Z.Z.Z.Z.Z.Z.Z.Z.Z.Z.Z.C.A.S.S.Z.Z.m.i.y Z dXdXdXdXdXdXdXdXdXdXdXdXdXdXdXdXdXdXdXdXdX",
"dXD z.=XB.L 3.# w %X$XF.n.f.Z.Z.Z.Z.Z.Z.f.k.Z.Z.Z.Z.Z.Z.Z.Z.Z.Z.Z.Z.@XoXk.f.Z.S.C.i.y Z dXdXdXdXdXdXdXdXdXdXdXdXdXdXdXdXdXdXdXdXdX",
"dXD z.:XN.I 1.< ~ *X;X*Xy.3.Z.Z.Z.Z.S.C.3.9.Z.Z.Z.Z.Z.Z.Z.Z.Z.Z.Z.A.#X&Xt.9.Z.S.V.a.y Z dXdXdXdXdXdXdXdXdXdXdXdXdXdXdXdXdXdXdXdXdX",
"dXo z.;XU.9.O i Z.-X|.n >.d.S.S.S.S.D.Z.3.9.Z.Z.Z.Z.Z.Z.Z.Z.Z.Z.Z.C.D.S.C.C.Z.S.m.i.y Z dXdXdXdXdXdXdXdXdXdXdXdXdXdXdXdXdXdXdXdXdX",
"dX<Xx.|.#XoXz.F.#XoXl.< =.d.V.V.V.V.g.f.e.k.Z.Z.Z.Z.Z.Z.Z.Z.Z.Z.Z.Z.D.P.N.M.S.S.V.i.y Z dXdXdXdXdXdXdXdXdXdXdXdXdXdXdXdXdXdXdXdXdX",
"dXdX8X- |.;X&X-X%Xv 1 i.8.8.u.u.8.u.4.3.M.S.Z.Z.Z.Z.Z.Z.Z.Z.Z.Z.C.C.$X&X0.9.S.S.V.i.y Z dXdXdXdXdXdXdXdXdXdXdXdXdXdXdXdXdXdXdXdXdX",
"dXdXdXeXx.l.l.z./ . O t 0 9 q 9 9 9 a 7.m.S.Z.#X@Xt.s.S.S.Z.Z.Z.Z.C.$X&X0.4.Z.D.A.i.y Z dXdXdXdXdXdXdXdXdXdXdXdXdXdXdXdXdXdXdXdXdX",
"dXdXdXdX<X- H o   7 9 6 7 6 6 7 5 ; *.f.C.Z.Z.$X%X0.s.S.C.Z.Z.Z.Z.C.@X%Xy.e.Z.Z.V.i.y Z dXdXdXdXdXdXdXdXdXdXdXdXdXdXdXdXdXdXdXdXdX",
"dXdXdXdXdXdXdX} 8 >.u.8.7.8.8.8.-.7.d.Z.Z.Z.Z.S.S.Z.Z.Z.S.Z.Z.Z.Z.Z.S.S.Z.S.Z.D.V.i.y Z dXdXdXdXdXdXdXdXdXdXdXdXdXdXdXdXdXdXdXdXdX",
"dXdXdXdXdXdXdX,X7 >.d.m.m.d.8.f.A.j.C.S.Z.Z.Z.Z.V.f.M.S.S.C.Z.S.Z.Z.S.V.t.t.g.A.V.i.y Z dXdXdXdXdXdXdXdXdXdXdXdXdXdXdXdXdXdXdXdXdX",
"dXdXdXdXdXdXdX,X8 7.j.S.S.b.U s.S.Z.Z.Z.Z.Z.Z.S.M.U 0.Z.Z.Z.Z.C.Z.Z.S.b.; 1 8.C.Z.i.y G dXdXdXdXdXdXdXdXdXdXdXdXdXdXdXdXdXdXdXdXdX",
"dXdXdXdXdXdXdX} 8 >.V.S.I.n.8 p j.Z.S.S.S.S.S.I.n.7 i d.Z.S.S.S.S.S.I.C.w q i.C.A.p.y $ dXdXdXdXdXdXdXdXdXdXdXdXdXdXdXdXdXdXdXdXdX",
"dXdXdXdXdXdXdXdX[ i 8.V.A.q.. i p.j.m.m.m.j.V.V.d.= y p.j.m.m.m.m.m.A.f.7 t i.j.j.=./ dXdXdXdXdXdXdXdXdXdXdXdXdXdXdXdXdXdXdXdXdXdX",
"dXdXdXdXdXdXdXdXdXJ y u.i.=.* p i.u.8.u.8.u.8.8.7.+ i i.u.8.u.8.8.8.u.7.; u u.i.=.+ dXdXdXdXdXdXdXdXdXdXdXdXdXdXdXdXdXdXdXdXdXdXdX",
"dXdXdXdXdXdXdXdXdXdXL.q q 7 * 8 9 9 9 9 0 t 0 0 9 * 5 t 0 0 0 9 9 9 9 7 = ; u 0 ~ dXdXdXdXdXdXdXdXdXdXdXdXdXdXdXdXdXdXdXdXdXdXdXdX",
"dXdXdXdXdXdXdXdXdXdXdXE W R X 8 9 9 9 7 X % W _ Q ` Q Q _ G . ; 9 9 9 9 = $ Q R dXdXdXdXdXdXdXdXdXdXdXdXdXdXdXdXdXdXdXdXdXdXdXdXdX",
"dXdXdXdXdXdXdXdXdXdXdXdXdXdXX 3.a.u.i.8.9 _ dXdXdXdXdXdXdXdX* 3.i.u.i.7.6 ' dXdXdXdXdXdXdXdXdXdXdXdXdXdXdXdXdXdXdXdXdXdXdXdXdXdXdX",
"dXdXdXdXdXdXdXdXdXdXdXdXdXdXeX/ i i i i L.dXdXdXdXdXdXdXdXdX8X^ i i i i 2XdXdXdXdXdXdXdXdXdXdXdXdXdXdXdXdXdXdXdXdXdXdXdXdXdXdXdXdX",
"dXdXdXdXdXdXdXdXdXdXdXdXdXdXdX6XC Z C R dXdXdXdXdXdXdXdXdXdXdX,X$ Z $ Q dXdXdXdXdXdXdXdXdXdXdXdXdXdXdXdXdXdXdXdXdXdXdXdXdXdXdXdXdX",
"dXdXdXdXdXdXdXdXdXdXdXdXdXdXdXdXdXdXdXdXdXdXdXdXdXdXdXdXdXdXdXdXdXdXdXdXdXdXdXdXdXdXdXdXdXdXdXdXdXdXdXdXdXdXdXdXdXdXdXdXdXdXdXdXdX"
};