/* XPM */
static char *result[] = {
/* columns rows colors chars-per-pixel */
"64 64 37 1 ",
"  c #211E30",
". c #201F30",
"X c #211F30",
"o c #211E31",
"O c #201F31",
"+ c #211F31",
"@ c #221F30",
"# c #221F31",
"$ c #212030",
"% c #212031",
"& c #085F28",
"* c #036028",
"= c #046028",
"- c #066029",
"; c #09602A",
": c #9C1A4D",
"> c #9C1B4D",
", c #CB3049",
"< c #CC3048",
"1 c #E4494A",
"2 c #E4484B",
"3 c #E44A4A",
"4 c #27870D",
"5 c #26860F",
"6 c #27860F",
"7 c #268610",
"8 c #278610",
"9 c #288610",
"0 c #71A11C",
"q c #71A11D",
"w c #72A11C",
"e c #72A11D",
"r c #73A11D",
"t c #A4CC42",
"y c #ECECEC",
"u c white",
"i c None",
/* pixels */
"iiiiiiiiiiiiiiiiiiiiiiiiiiiiiiiiiiiiiiiiiiiiiiiiiiiiiiiiiiiiiiii",
"iiiiiiiiiiiiiiiiiiiiiiiiiiiiiiiiiiiiiiiiiiiiiiiiiiiiiiiiiiiiiiii",
"iiiiiiiiiiiiiiiiiiiiiiiiiiiiiiiiiiiiiiiiiiiiiiiiiiiiiiiiiiiiiiii",
"iiiiiiiiiiiiiiiiiiiiiiiiiiiiiiiiiiiiiiiiiiiiiiiiiiiiiiiiiiiiiiii",
"iiiiiiiiiiiiiiiiiiiiiiiiiiiiiiiiiiiiiiiiiiiiiiiiiiiiiiiiiiiiiiii",
"iiiiiiiiiiiiiiiiiiiiiiiiiiiiiiiiiiiiiiiiiiiiiiiiiiiiiiiiiiiiiiii",
"iiiiiiiiiiiiiiiiiiiiiiiiiiiiiiiiiiiiiiiiiiiiiiiiiiiiiiiiiiiiiiii",
"iiiiiiiiiiiiiiiiiiiiiiiiiiiiiiiiiiiiiiiiiiiiiiiiiiiiiiiiiiiiiiii",
"iiiiiiiiiiiiiiiiiiiiiiiiiiiiiiiiiiiiiiiiiiiiiiiiiiiiiiiiiiiiiiii",
"iiiiiiiiiiiiiiiiiiiiiiiiiiiiiiiiiiiiiiiiiiiiiiiiiiiiiiiiiiiiiiii",
"iiiiiiiiiiXXXXXXiiiiiiXX$$XXXXXXXXiiiiiiXXXXXX@Oiiiiiiiiiiiiiiii",
"iiiiiiiiiiXXXXXXiiiiiiXXXXXXXXXXXXiiiiiiXXXXXXXXiiiiiiiiiiiiiiii",
"iiiiiiiiXX333332XXiiXXqwwwwwwwwwwwXXiiXX0wwwwwweXXiiiiiiiiiiiiii",
"iiiiiiiiXX333333XXiiXXwwwwwwwwwwwwXXyyXXwwwwwwwwX@iiiiiiiiiiiiii",
"iiiiiiiiXX<<<<<<>:XXXXXXXXXXXXXXXXXXXXXXXXXXXXXXX+iiiiiiiiiiiiii",
"iiiiiiiiXX,<<<<<>>XXXXXXXXXXXXXXXXXXXXXXXXXXXXXXXXiiiiiiiiiiiiii",
"iiiiiiiiiiXXXX>>XX>><<333333<<33<<<<<<<<33<<333333XXiiiiiiiiiiii",
"iiiiiiiiiiXXXX>>XX>><<333333<<33<<<<<<<<33<<333333XXiiiiiiiiiiii",
"iiiiiiii+X<<>>XXXXXXXX>>>>>><<>><<<<<<<<>><<>>>>XXXXiiiiiiiiiiii",
"iiiiiiii+X<<>>XXXXXXXX>>>>>><<>><<<<<<<<>><<>>>>XXX#iiiiiiiiiiii",
"iiiiiiii@X33<<XX>>>><<<<<<<<<<<<<<<<<<<<<<<<<<<<<<XXiiiiiiiiiiii",
"iiiiiiiiXX33<<XX>>>><<<<<<<<<<<<<<<<<<<<<<<<<<<<<<X+iiiiiiiiiiii",
"iiiiiiiiXX33<<XXXXXXXXXXXXXXXXXXXXXXXXXXXXXXXXXXXXX%iiiiiiiiiiii",
"iiiiiiiiXX33<<XXXXXXXXXXXX XXXXXXXXXXXXXXXXXXXXXXXX@iiiiiiiiiiii",
"iiiiiiiiXX33XXXX66666666-*uuuuuuuu--66--uuuuuuui=-68XXiiiiiiiiii",
"iiiiiiii+X13XXXX66666666-&uuuuuuuu--66--uuuuuuuu;-66XXiiiiiiiiii",
"iiiiiiiiiiXXXX66wwwwwwww64&-------66ww66--------96wwXXiiiiiiiiii",
"iiiiiiiiiiXXXX66wwwwwwww66--------66ww66--------66wwXXiiiiiiiiii",
"iiiiiiiiiiiiXXwwwwwwwwwwwwwwwwwwwwwwwwwwwwwwwwwwwwwwXXiiiiiiiiii",
"iiiiiiiiiiii@XwwwwwwwwwwwwwwwwwwwwwwwwwwwwwwwwwwwwwwX%iiiiiiiiii",
"iiiiiiiiiiiiXXwwwwwwwwww------------------------wwwwX@iiiiiiiiii",
"iiiiiiiiiiii$Xwwwwwwwwww------------------------wwwwXXiiiiiiiiii",
"iiiiiiiiiiii$Xwwwwwwww66wwwwwwwwwwwwwwwwwwwwwwww66wwXXiiiiiiiiii",
"iiiiiiiiiiii$Xwwwwwwww66wwwwwwwwwwwwwwwwwwwwwwww66wwXXiiiiiiiiii",
"iiiiiiiiiiiiXXwwwwwwwwwwwwwwwwww6666666666wwwwwwwwwwXXiiiiiiiiii",
"iiiiiiiiiiiiXXrwwwwwwwwwwwwwwwww6666666666wwwwwwwwwwXXiiiiiiiiii",
"iiiiiiiiiiiiiiXXXX66wwwwwwwwwwwwwwwwwwwwwwwwwwww66XXiiiiiiiiiiii",
"iiiiiiiiiiiiiiXXXX66wwwwwwwwwwwwwwwwwwwwwwwwwwww66XXiiiiiiiiiiii",
"iiiiiiiiiiiiiiXX66XX66wwwwwwwwwwwwwwwwwwwwww6666XXXXiiiiiiiiiiii",
"iiiiiiiiiiiiiiXX66XX66wwwwwwwwwwwwwwwwwwwwww6666XXXXiiiiiiiiiiii",
"iiiiiiiiiiiiXXwwwwwwwwwwwwwwwwwwwwwwwwwwwwwwXXXX6666XXiiiiiiiiii",
"iiiiiiiiiiiiXXwwwwwwwwwwwwwwwwwwwwwwwwwwwwwwXXXX6666XXiiiiiiiiii",
"iiiiiiiiii+X56wwwwwwwwwwwwwwttttttttttttttwwwwXX666666XXiiiiiiii",
"iiiiiiiiiiXX66wwwwwwwwwwwwwwttttttttttttttwwwwXX666666XXiiiiiiii",
"iiiiiiiiii+X66666666XXwwwwttttttttttttttttttwwXX666666XXiiiiiiii",
"iiiiiiiiiiXX76666666XXwwwwttttttttttttttttttwwXX666666XXiiiiiiii",
"iiiiiiiiiiii+XXXXXXX66wwwwttttttttttttttttttwwXXXXXXXXiiiiiiiiii",
"iiiiiiiiiiiiXXXXXXXX66wwwwttttttttttttttttttwwXXOX.XXXiiiiiiiiii",
"iiiiiiiiiiiiiiiiiiXX66wwwwttttttttttttttttttwwX+iiiiiiiiiiiiiiii",
"iiiiiiiiiiiiiiiiiiXX66wwwwttttttttttttttttttwwX+iiiiiiiiiiiiiiii",
"iiiiiiiiiiiiiiiiiiXX66wwwwwwttttttttttttttwwwwX#iiiiiiiiiiiiiiii",
"iiiiiiiiiiiiiiiiii+X66wwwwwwttttttttttttttwwwwXXiiiiiiiiiiiiiiii",
"iiiiiiiiiiiiiiiiiiiiXX66wwwwXXXXXXXXXXXXXXwwwwX.iiiiiiiiiiiiiiii",
"iiiiiiiiiiiiiiiiiiiiXX66wwwwXXXXXXXXXXXXXXwwwwXXiiiiiiiiiiiiiiii",
"iiiiiiiiiiiiiiiiiiiiXX666666XXiiiiiiXX66666666XXiiiiiiiiiiiiiiii",
"iiiiiiiiiiiiiiiiiiiiXX666666XXiiiiii@X56666666+oiiiiiiiiiiiiiiii",
"iiiiiiiiiiiiiiiiiiiiiiXXXXXXiiiiiiiiii%XXXXXXoiiiiiiiiiiiiiiiiii",
"iiiiiiiiiiiiiiiiiiiiiiOXXXXXiiiiiiiiii#.OX$+X%iiiiiiiiiiiiiiiiii",
"iiiiiiiiiiiiiiiiiiiiiiiiiiiiiiiiiiiiiiiiiiiiiiiiiiiiiiiiiiiiiiii",
"iiiiiiiiiiiiiiiiiiiiiiiiiiiiiiiiiiiiiiiiiiiiiiiiiiiiiiiiiiiiiiii",
"iiiiiiiiiiiiiiiiiiiiiiiiiiiiiiiiiiiiiiiiiiiiiiiiiiiiiiiiiiiiiiii",
"iiiiiiiiiiiiiiiiiiiiiiiiiiiiiiiiiiiiiiiiiiiiiiiiiiiiiiiiiiiiiiii",
"iiiiiiiiiiiiiiiiiiiiiiiiiiiiiiiiiiiiiiiiiiiiiiiiiiiiiiiiiiiiiiii",
"iiiiiiiiiiiiiiiiiiiiiiiiiiiiiiiiiiiiiiiiiiiiiiiiiiiiiiiiiiiiiiii"
};