/* XPM */
static char *result[] = {
/* columns rows colors chars-per-pixel */
"51 55 25 1 ",
"  c #201F30",
". c #211F30",
"X c #211E31",
"o c #201F31",
"O c #211F31",
"+ c #221F30",
"@ c #221F31",
"# c #212030",
"$ c #212031",
"% c #066029",
"& c #9C1A4D",
"* c #9C1B4D",
"= c #CC3048",
"- c #CC3049",
"; c #E54949",
": c #E44A4A",
"> c #27860F",
", c #28860E",
"< c #288610",
"1 c #72A11B",
"2 c #72A11C",
"3 c #72A11D",
"4 c #A4CC42",
"5 c white",
"6 c None",
/* pixels */
"666666666666666666666666666666666666666666666666666",
"666666666666666666666666666666666666666666666666666",
"666.....o666666#.O.........666666........6666666666",
"666......666666............666666........6666666666",
"6..:::::;.X66+.322222222222..66..22222222..66666666",
"6..::::::..66..222222222222..66..22222222..66666666",
"6..======*&................................66666666",
"6..-=====**................................66666666",
"666....**..**==::::::==::========::==::::::oo666666",
"666....**..**==::::::==::========::==::::::.+666666",
"6..==**........******==**========**==****....666666",
"6..==**........******==**========**==****....666666",
"6..::==..****==============================..666666",
"6..::==..****==============================..666666",
"6..::==......................................666666",
"6..::==......................................666666",
"6..::....>>>>>>>>%%55555555%%>>%%55555555%%>>o$6666",
"6..;:....>>>>>>>>%%55555555%%>>%%55555555%%>>..6666",
"666....>>22222222>>%%%%%%%%>>22>>%%%%%%%%>>22.X6666",
"666....>>22222222>>%%%%%%%%>>22>>%%%%%%%%>>22..6666",
"66666..22222222222222222222222222222222222222..6666",
"66666..22222222222222222222222222222222222222..6666",
"66666..2222222222%%%%%%%%%%%%%%%%%%%%%%%%2222..6666",
"66666..2222222222%%%%%%%%%%%%%%%%%%%%%%%%2222..6666",
"66666..22222222>>222222222222222222222222>>22..6666",
"66666..22222222>>222222222222222222222222>>22..6666",
"66666......>>222222222222>>>>>>>>>>2222222222..6666",
"66666......>>222222222222>>>>>>>>>>2222222222..6666",
"666..>>2222..>>22222222222222222222222222>>..>>..66",
"666..>>2222..>>22222222222222222222222222>>..>>..66",
"666..>>222222222222222222222222222222>>>>..>>>>..66",
"666..>>222222222222222222222222222222>>>>..>>>>..66",
"666..>>222222222222222222222222222222....>>>>>>..66",
"666..>>222222222222222222222222222222....>>>>>>..66",
"66666..>>>>2222222222444444444444442222..>>>>..6666",
"66666..>>>>2222222222444444444444442222..>>>>..6666",
"6666666..........2244444444444444444422......666666",
"6666666.++O......2244444444444444444422......666666",
"66666666666..>>222244444444444444444422..6666666666",
"66666666666..>>222244444444444444444422..6666666666",
"66666666666..>>222244444444444444444422..6666666666",
"66666666666..>>222244444444444444444422..6666666666",
"66666666666o.>>22222222..22444444444422..6666666666",
"66666666666@.>>22222222..22444444444422..6666666666",
"6666666666666..>>>>2222........22442222>>..66666666",
"6666666666666..>>>>2222........12442222>>..66666666",
"666666666666666..>>2222..666666....222222..66666666",
"666666666666666O.<>2223..666666....222222..66666666",
"66666666666666666......66666666..>>222222..66666666",
"66666666666666666o..O..66666666..<>222222.+66666666",
"666666666666666666666666666666666..>>2222. 66666666",
"666666666666666666666666666666666..,>2222.o66666666",
"66666666666666666666666666666666666......6666666666",
"66666666666666666666666666666666666......6666666666",
"666666666666666666666666666666666666666666666666666"
};