/* XPM */
static char *result[] = {
/* columns rows colors chars-per-pixel */
"50 63 36 1 ",
"  c #211F2F",
". c #211E30",
"X c #201F30",
"o c #211F30",
"O c #211E31",
"+ c #201F31",
"@ c #211F31",
"# c #221E30",
"$ c #221F30",
"% c #221F31",
"& c #20202F",
"* c #212030",
"= c #212031",
"- c #066029",
"; c #9C1A4D",
": c #9C1B4D",
"> c #CC2F49",
", c #CC3048",
"< c #E44A49",
"1 c #E44A4A",
"2 c #E54A4A",
"3 c #27860F",
"4 c #28860E",
"5 c #28860F",
"6 c #29860F",
"7 c #278610",
"8 c #278611",
"9 c #288610",
"0 c #71A21B",
"q c #72A11C",
"w c #72A11D",
"e c #72A11E",
"r c #A4CC42",
"t c #ECECEC",
"y c white",
"u c None",
/* pixels */
"uuuuuuuuuuuuuuuuuuuuuuuuuuuuuuuuuuuuuuuuuuuuuuuuuu",
"uuuuuuuuuuuuuuuuuuuuuuuuuuuuuuuuuuuuuuuuuuuuuuuuuu",
"uuuuuuuuuuuuuuuuuuuuuuuuuuuuuuuuuuuuuuuuuuuuuuuuuu",
"uuuuuuuuuuuuuuuuuuuuuuuuuuuuuuuuuuuuuuuuuuuuuuuuuu",
"uuuuuuuuuuuuuuuuuuuuuuuuuuuuuuuuuuuuuuuuuuuuuuuuuu",
"uuuuuuuuuuuuuuuuuuuuuuuuuuuuuuuuuuuuuuuuuuuuuuuuuu",
"uuuoo+*oouuuuuu+$oooooooooouuuuuuoo@@o*o*uuuuuuuuu",
"uuuooooo+uuuuuuoooooooooooouuuuut ooooooouuuuuuuuu",
"uoo211111Oouuoo0qqqqqqqqqqqo uu&oqqqqqqq0.Xuuuuuuu",
"uoo111111oouuooqqqqqqqqqqqqo uu@oqqqqqqqqo=uuuuuuu",
"uoo,,,,,,:;oooooooooooooooooooooooooooooooouuuuuuu",
"uoo>,,,,,::ooooooooooooooooooooooooooooooo=uuuuuuu",
"uuuoooo::oo::,,111111,,11,,,,,,,,11,,111112$uuuuuu",
"uuuoooo::oo::,,111111,,11,,,,,,,,11,,111111ouuuuuu",
"uoo,,::oooooooo::::::,,::,,,,,,,,::,,::::ooouuuuuu",
"uoo,,::oooooooo::::::,,::,,,,,,,,::,,::::oooouuuuu",
"uoo11,,oo::::,,,,,,,,,,,,,,,,,,,,,,,,,,,,,,o$uuuuu",
"uoo11,,oo::::,,,,,,,,,,,,,,,,,,,,,,,,,,,,,,oouuuuu",
"uoo11,,oooooooooooooooooooooooooooooooooooooouuuuu",
"uoo11,,ooooooooooooooooooooooooooooooooooooo$uuuuu",
"uoo11oooo33333333--yyyyyyyy--33--yyyyyyyy--33@uuuu",
"uoo<1oooo33333333--yyyyyyyy--33--yyyyyyyy--33ouuuu",
"uuuoooo33qqqqqqqq33--------33qq33--------33qqouuuu",
"uuuoooo33qqqqqqqq33--------33qq33--------33qqouuuu",
"uuuuuooqqqqqqqqqqqqqqqqqqqqqqqqqqqqqqqqqqqqqqouuuu",
"uuuuuooqqqqqqqqqqqqqqqqqqqqqqqqqqqqqqqqqqqqqqouuuu",
"uuuuu@oqqqqqqqqqq------------------------qqqqouuuu",
"uuuuu$oqqqqqqqqqq------------------------qqqqouuuu",
"uuuuu@oqqqqqqqq33qqqqqqqqqqqqqqqqqqqqqqqq33qqouuuu",
"uuuuuooqqqqqqqq33qqqqqqqqqqqqqqqqqqqqqqqq33qqouuuu",
"uuuuuooqqqqqqqqqqqqqqqqqq3333333333qqqqqqqqqqouuuu",
"uuuuu@owqqqqqqqqqqqqqqqqq3333333333qqqqqqqqqwuuuuu",
"uuuuuuuoo33qqqqqqqqqqqqqqqqqqqqqqqqqqqqqq33oOuuuuu",
"uuuuuuu@o43qqqqqqqqqqqqqqqqqqqqqqqqqqqqqq33o$uuuuu",
"uuuuuuuuuoo3333qqqqqqqqqqqqqqqqqqqqqq3333oouuuuuuu",
"uuuuuuuuuoo3333qqqqqqqqqqqqqqqqqqqqqq3333oouuuuuuu",
"uuuuuuuuuuuooooqqqqqqqqqqqqqqqqqqqqqqoooouuuuuuuuu",
"uuuuuuuuuuuuoooqqqqqqqqqqqqqqqqqqqqqqoouuuuuuuuuuu",
"uuuuuuuuuuuuuooqqqqqqrrrrrrrrrrrrrrqqoouuuuuuuuuuu",
"uuuuuuuuuuuuuooqqqqqqrrrrrrrrrrrrrrqqoouuuuuuuuuuu",
"uuuuuuuuuuu#oqqqqqqrrrrrrrrrrrrrrrrrrqqo@uuuuuuuuu",
"uuuuuuuuuuuooqqqqqqrrrrrrrrrrrrrrrrrrqqoouuuuuuuuu",
"uuuuuuuuuooqqqqqqqqrrrrrrrrrrrrrrrrrrqqoooouuuuuuu",
"uuuuuuuuuooqqqqqqqqrrrrrrrrrrrrrrrrrrqqoooouuuuuuu",
"uuuuuuu.*63qqqqqqqqrrrrrrrrrrrrrrrrrrqqoo33oouuuuu",
"uuuuuuuoo33qqqqqqqqrrrrrrrrrrrrrrrrrrqqoo33o$uuuuu",
"uuuuuuu+o33qq33ooqqrrrrrrrrrrrrrrrrrrqqoo33oouuuuu",
"uuuuuuu+o33qq33ooqqrrrrrrrrrrrrrrrrrrqqoo33oouuuuu",
"uuuuuuuoo3333ooqqqqqqrrrrrrrrrrrrrrqqqqqqoooouuuuu",
"uuuuuuuo@4333ooqqqqqqrrrrrrrrrrrrrrqqqqqqooo=uuuuu",
"uuuuuuuuu*ooo33qqqqqqooooooooooooooqqqqqqoouuuuuuu",
"uuuuuuuuuoooo33qqqqqqooooooooooooooqqqqqqoouuuuuuu",
"uuuuuuuuuuuoo33qqqqqqoouuuuuuuuXo33qqqq33oOuuuuuuu",
"uuuuuuuuuuuoo33qqqqqeOouuuuuuuuXo33qqqq38o=uuuuuuu",
"uuuuuuuuuuuoo33qqqqo@uuuuuuuuuuXo333333o+uuuuuuuuu",
"uuuuuuuuuuuoo33qqqqoouuuuuuuuuu=o733339*Xuuuuuuuuu",
"uuuuuuuuuuuoo33qq33oouuuuuuuuuuuu$oooo=uuuuuuuuuuu",
"uuuuuuuuuuuoo33qq35Oouuuuuuuuuuuuo+oo+@uuuuuuuuuuu",
"uuuuuuuuuuuoo3333oouuuuuuuuuuuuuuuuuuuuuuuuuuuuuuu",
"uuuuuuuuuuuoO3333oouuuuuuuuuuuuuuuuuuuuuuuuuuuuuuu",
"uuuuuuuuuuuuu*ooouuuuuuuuuuuuuuuuuuuuuuuuuuuuuuuuu",
"uuuuuuuuuuuuu%ooouuuuuuuuuuuuuuuuuuuuuuuuuuuuuuuuu",
"uuuuuuuuuuuuuuuuuuuuuuuuuuuuuuuuuuuuuuuuuuuuuuuuuu"
};