/* XPM */
static char *result[] = {
/* columns rows colors chars-per-pixel */
"68 64 215 2 ",
"   c #050A2A",
".  c #04182C",
"X  c #19192E",
"o  c #081B31",
"O  c #1C1B38",
"+  c #13082C",
"@  c #211E2F",
"#  c #28192E",
"$  c #23193A",
"%  c #162A3A",
"&  c #072832",
"*  c #24212F",
"=  c #28212F",
"-  c #25362E",
";  c #292832",
":  c #352431",
">  c #3C2532",
",  c #362C33",
"<  c #353336",
"1  c #760000",
"2  c #710017",
"3  c #541A38",
"4  c #521638",
"5  c #4A032D",
"6  c #730827",
"7  c #751E33",
"8  c #422833",
"9  c #4C2C35",
"0  c #4C2432",
"q  c #552E36",
"w  c #582A38",
"e  c #4A3739",
"r  c #563137",
"t  c #5B3137",
"y  c #5D3C3C",
"u  c #5A333A",
"i  c #762638",
"p  c #762A3C",
"a  c #782436",
"s  c #6B393C",
"d  c #67383B",
"f  c #743B3D",
"g  c #7A3C3E",
"h  c #75353D",
"j  c #762932",
"k  c #6D2E07",
"l  c #295631",
"z  c #394430",
"x  c #326B2B",
"c  c #39682D",
"v  c #367629",
"b  c #2D6A2D",
"n  c #16532E",
"m  c #465731",
"M  c #4E4637",
"N  c #61403D",
"B  c #79403F",
"V  c #5B7C31",
"C  c #4A6B31",
"Z  c #627936",
"A  c #1E3244",
"S  c #192E40",
"D  c #273849",
"F  c #373B4A",
"G  c #373C54",
"H  c #29314D",
"J  c #691844",
"K  c #701D41",
"L  c #732842",
"P  c #7C3A47",
"I  c #783645",
"U  c #672352",
"Y  c #1F5A43",
"T  c #334355",
"R  c #3B4A5B",
"E  c #36504D",
"W  c #434444",
"Q  c #5C4B42",
"!  c #44445C",
"~  c #404F5F",
"^  c #575E4E",
"/  c #6A4847",
"(  c #7C4140",
")  c #794E44",
"_  c #695849",
"`  c #705B4A",
"'  c #7B5348",
"]  c #6E555B",
"[  c #715056",
"{  c #53634C",
"}  c #6B7051",
"|  c #464662",
" . c #4B4B65",
".. c #425362",
"X. c #4C5561",
"o. c #565668",
"O. c #5F5F76",
"+. c #775B61",
"@. c #5C6575",
"#. c #586168",
"$. c #73636B",
"%. c #63677A",
"&. c #7E6B72",
"*. c #66717E",
"=. c #71756F",
"-. c #81341B",
";. c #863839",
":. c #8A3525",
">. c #90493E",
",. c #813C46",
"<. c #8A4443",
"1. c #834449",
"2. c #8B4B4B",
"3. c #884946",
"4. c #944B46",
"5. c #934C4A",
"6. c #994D48",
"7. c #984B47",
"8. c #84544B",
"9. c #8A574B",
"0. c #9C5946",
"q. c #93544E",
"w. c #9D5B4D",
"e. c #9B564B",
"r. c #955C52",
"t. c #9B5D52",
"y. c #955750",
"u. c #A1564C",
"i. c #A2594E",
"p. c #A55E50",
"a. c #97604F",
"s. c #9D6252",
"d. c #966556",
"f. c #95795C",
"g. c #8A6F56",
"h. c #A2614D",
"j. c #A46352",
"k. c #A96653",
"l. c #A56955",
"z. c #AB6C57",
"x. c #AC6F58",
"c. c #AF7159",
"v. c #B1745A",
"b. c #B4795D",
"n. c #B9795E",
"m. c #845661",
"M. c #926D76",
"N. c #8B726E",
"B. c #A87961",
"V. c #B67D60",
"C. c #568B2D",
"Z. c #5C922D",
"A. c #498629",
"S. c #63942F",
"D. c #659531",
"F. c #7A9E37",
"G. c #7C9E38",
"H. c #739735",
"J. c #668234",
"K. c #7EA139",
"L. c #7CA237",
"P. c #758B43",
"I. c #81A33A",
"U. c #85AA3B",
"Y. c #829849",
"T. c #8AA845",
"R. c #98B94B",
"E. c #93AB51",
"W. c #908763",
"Q. c #AE8365",
"!. c #AA8966",
"~. c #A78464",
"^. c #BD8C69",
"/. c #BA8766",
"(. c #BD936E",
"). c #B2916B",
"_. c #BE9971",
"`. c #C18C69",
"'. c #C3956E",
"]. c #C59D73",
"[. c #C89D74",
"{. c #C19770",
"}. c #CBA277",
"|. c #D0A679",
" X c #9FC24E",
".X c #A7C655",
"XX c #766983",
"oX c #7A7686",
"OX c #6D7384",
"+X c #987C84",
"@X c #7F8392",
"#X c #77808C",
"$X c #878987",
"%X c #888697",
"&X c #8C959E",
"*X c #9C9699",
"=X c #9A8D8D",
"-X c #A99297",
";X c #979AA4",
":X c #AB9BA5",
">X c #9CA4AB",
",X c #ABA8AB",
"<X c #B2A1A5",
"1X c #A9AFB6",
"2X c #ADB2B8",
"3X c #B5BBBF",
"4X c #C5B9BC",
"5X c #C9BFC1",
"6X c #D2CACC",
"7X c #DBD4D6",
"8X c #CBC5C8",
"9X c #FFFFFF",
"0X c #F3F3F3",
"qX c #ECECEC",
"wX c None",
/* pixels */
"wXwXwXwXwXwXwXwXwXwXwXwXwXwXwXwXwXwXwXwXwXwXwXwXwXwXwXwXwXwXwXwXwXwXwXwXwXwXwXwXwXwXwXwXwXwXwXwXwXwXwXwXwXwXwXwXwXwXwXwXwXwXwXwXwXwXwXwX",
"wXwXwXwXwXwXwXwXwXwXwXwXwXwXwXwXwXwXwXwXwXwXwXwXwXwXwXwXwXwXwXwXwXwXwXwXwXwXwXwXwXwXwXwXwXwXwXwXwXwXwXwXwXwXwXwXwXwXwXwXwXwXwXwXwXwXwXwX",
"wXwXwXwXwXwXwXwXwXwXwXwXwXwXwXwXwXwXwXwXwXwXwXwXwXwXwXwXwXwXwXwXwXwXwXwXwXwXwXwXwXwXwXwXwXwXwXwXwXwXwXwXwXwXwXwXwXwXwXwXwXwXwXwXwXwXwXwX",
"wXwXwXwXwXwXwXwXwXwXwXwXwXwXwXwXwXwXwXwXwXwXwXwXwXwXwXwXwXwXwXwXwXwXwXwXwXwXwXwXwXwXwXwXwXwXwXwXwXwXwXwXwXwXwXwXwXwXwXwXwXwXwXwXwXwXwXwX",
"wXwXwXwXwXwXwXwXwXwXwXwXwXwXwXwXwXwXwXwXwXwXwXwXwXwXwXwXwXwXwXwXwXwXwXwXwXwXwXwXwXwXwXwXwXwXwXwXwXwXwXwXwXwXwXwXwXwXwXwXwXwXwXwXwXwXwXwX",
"wXwXwXwXwXwXwXwXwXwXwXwXwXwXwXwXwXwXwXwXwXwXwXwXwXwXwXwXwXwXwXwXwXwXwXwXwXwXwXwXwXwXwXwXwXwXwXwXwXwXwXwXwXwXwXwXwXwXwXwXwXwXwXwXwXwXwXwX",
"wXwXwXwXwXwXwXwXwXwXwXwXwXwXwXwXwXwXwXwXwXwXwXwXwXwXwXwXwXwXwXwXwXwXwXwXwXwXwXwXwXwXwXwXwXwXwXwXwXwXwXwXwXwXwXwXwXwXwXwXwXwXwXwXwXwXwXwX",
"wXwXwXwXwXwXwXwXwXwXwXwXwXwXwXwXwXwXwXwXwXwXwXwXwXwXwXwXwXwXwXwXwXwXwXwXwXwXwXwXwXwXwXwXwXwXwXwXwXwXwXwXwXwXwXwXwXwXwXwXwXwXwXwXwXwXwXwX",
"wXwXwXwXwXwXwXwXwXwXwXwXwXwXwXwXwXwXwXwXwXwXwXwXwXwXwXwXwXwXwXwXwXwXwXwXwXwXwXwXwXwXwXwXwXwXwXwXwXwXwXwXwXwXwXwXwXwXwXwXwXwXwXwXwXwXwXwX",
"wXwXwXwXwXwXwXwXwXwXwXwXwXwXwXwXwXwXwXwXwXwXwXwXwXwXwXwXwXwXwXwXwXwXwXwXwXwXwXwXwXwXwXwXwXwXwXwXwXwXwXwXwXwXwXwXwXwXwXwXwXwXwXwXwXwXwXwX",
"wXwXwXwXwXwXwXwXwXwXwXwXwXwXwXwXwXwXwXwXwXwXwXwXwXwXwXwXwXwXwXwXwXwXwXwXwXwXwXwXwXwXwXwXwXwXwXwXwXwXwXwXwXwXwXwXwXwXwXwXwXwXwXwXwXwXwXwX",
"wXwXwXwXwXwXwXwXwXwXwXwXwXwXwXwXwXwXwXwXwXwXwXwXwXwXwXwXwXwXwXwXwXwXwXwXwXwXwXwXwXwXwXwXwXwXwXwXwXwXwXwX%XwXwXwXwXwXwXwXwXwXwXwXwXwXwXwX",
"wXwXwXwXwXwXwXwXwXwXwXwXwXwXwXwXwXwXwXwXwXwXwXwXwXwXwXwXwXwXwXwXwXwXwXwXwXwXwXwXwXwXwXwXwXwXwXwXwXwXwXW ; < wXwXwXwXwXwXwXwXwXwXwXwXwXwX",
"wXwXwXwXwXwXwXwXwXwXwXwXwXwXwXT ! G o.wXwX| R | |  .| | | | | |  .G %.wXwX! ! ! ..wXwXwXwXwXwXwXwX*X^ E.T.Z ^ wXwXwXwXwXwXwXwXwXwXwXwXwX",
"wXwXwXwXwXwXwXwXwXwXwXwXwXwX] u y / _ ,X*Xd N N N N N N N N N d N d Q ,X=XN N y q N.wXwXwXwXwXwXwX=.P..X XG.C E wXwXwXwXwXwXwXwXwXwXwXwX",
"wXwXwXwXwXwXwXwXwXwXwXwXwX% h e.l.^._._ y x.c.x.x.x.x.c.x.c.c.z.x.c.s.e / c.v.l.4.t G wXwXwXwXwX$ Y..XT.G.G.C.x ; wXwXwXwXwXwXwXwXwXwXwX",
"wXwXwXwXwXwXwXwXwXwXwXwX+.s q.z.c.'.}.' I c.b.v.v.v.v.v.v.v.v.v.v.`./.e / v.V.v.k.2.s $.wXwXwXwX+ P.R.I.L.L.Z.x X wXwXwXwXwXwXwXwXwXwXwX",
"wXwXwXwXwXwXwXwXwXwXwXT r 6.z.c.z.`._.s.2.c.v.c.c.c.v.v.c.v.c.z.x.{._.Q s c.v.c.b.k.<.8 @.wXwXwXO V I.L.L.L.C.x - %XwXwXwXwXwXwXwXwXwXwX",
"wXwXwXwXwXwXwXwXwXwXwXR r 4.k.v.c.v.b.x.x.c.c.c.c.c.c.c.c.c.c.c.x.'.].' 1.v.v.c.v.h.<.8 *.wXwXwXX J.U.L.L.L.Z.v l - H O wXwXwXwXwXwXwXwX",
"wXwXwXwXwXwXwXwXwXwXwX~ q 4.k.c.c.z.z.v.c.c.c.c.c.c.c.c.c.c.c.c.x././.2.2.v.c.c.v.j.<.8 *.wXwXwX&.} J.G.L.S.C b x C V P.W.wXwXwXwXwXwXwX",
"wXwXwXwXwXwXwXwXwXwXwX~ r 4.k.v.c.c.c.c.c.c.c.c.c.c.c.c.x.v.v.x.v.c.z.1.q.c.v.c.v.p.<.8 *.wXwXwXwXOXz H.D.v b b A.D.R..XP.H wXwXwXwXwXwX",
"wXwXwXwXwXwXwXwXwXwXwX~ r 4.k.b.v.v.v.c.c.c.c.c.v.b.v.v.v.v.v.v.c.c.x.l.l.c.c.c.c.p.<.8 *.wXwXwXwXwXwX{ c x v C.H.F.U.T.R.E.} %XwXwXwXwX",
"wXwXwXwXwXwXwXwXwXwXwX..0 ;.4.0.0.w.l.x.c.c.c.c.l.w.0.u.0.0.t.l.c.v.x.l.l.c.c.c.v.p.<.8 *.wXwXwXwXwX:XJ > n v Z.K.K.K.H. X.XC | wXwXwXwX",
"wXwXwXwXwXwXwXwXwXwXwXR 0 a i i p p 1.l.v.c.v.l.1.p a p i i L 2.x.v.z.,.q.c.v.c.c.p.<.8 *.wXwXwXwXOX8 <.I & v Z.K.K.K.K.K.P.z o.wXwXwXwX",
"wXwXwXwXwXwXwXwXwXwXwXW &.7X7X7X7X<Xa h.v.v.v.k.a -X7X6X6X8X+X:.x.v.x.t.l.v.x.v.v.k.<.8 #XwX&Xo.%./ P 7.5.( M v S.S.S.D.V m W.wXwXwXwXwX",
"wXwXwXwXwXwXwXwXwXwXwX< $XqX0X0X0X4X6 e.x.v.v.h.2 4X9X9X9X9X<X1 x.v.x.v.v.x.v.x.l.e.g > %.wX] e e 3.i.6.5.2.U Y v v v v l | wXwXwXwXwXwX",
"wXwXwXwXwXwX$X  O O O   F #.&.M.M.m.I I q.v.b.h.2 4X9X9X9X9X<X1 z.v.x.v.c.c.v.l.1.w .   + D a.x.l.x.z.u.f : wXwX- - - - oXwXwXwXwXwXwXwX",
"wXwXwXwXwX$XN.f.f.f.g./ 5 k -.:.:.>.y.q.q.r.z.l.;.-X8X4X8X8XM.;.x.v.v.x.c.v.v.l.q.8.) 8.) ' z.n.n.v.t.( / @XwXwXoXXXoXXXwXwXwXwXwXwXwXwX",
"wXwXwXwXwX, f.|.].}.[.s.2.x.v.c.c.c.v.b.s.P s.x.e.;.6 6 6 6 >.i.x.v.c.c.c.c.x.x.v.v.v.v.v.v.x.z.z.w.;.: @XwXwXwXwXwXwXwXwXwXwXwXwXwXwXwX",
"wXwXwXoX+.!.^.Q.` d./.'.Q.2.j.v.c.c.c.v.x.l.x.c.z.k.h.h.h.i.h.z.c.c.c.c.v.x.q.q.v.b.n.v.n.n.k.8.d e u wXwXwXwXwXwXwXwXwXwXwXwXwXwXwXwXwX",
"wXwXwXF ` }.^.3.# 3 i.[.(.I r.v.c.c.c.c.c.v.v.c.v.v.v.v.v.v.v.v.c.c.c.c.v.x.2.,.j.a.9.a.a.9.3.I  .| OXwXwXwXwXwXwXwXwXwXwXwXwXwXwXwXwXwX",
"wXwXwX! ` ].b.L ,.4 < (.^.P t.v.c.c.c.c.c.c.c.c.z.v.c.c.x.c.v.c.c.c.c.c.v.c.i.<.P q & * = = * O.wXwXwXwXwXwXwXwXwXwXwXwXwXwXwXwXwXwXwXwX",
"wXwXwX! _ ].B.K P 3 ; ).(.L t.B.c.c.c.c.c.c.v.v.v.x.c.c.c.c.v.c.c.c.c.c.c.c.z.i.<.,.s # ! ;X;XwXwXwXwXwXwXwXwXwXwXwXwXwXwXwXwXwXwXwXwXwX",
"wXwXwX! ` ].B.K P 3 < ).{.r.t.x.c.c.c.c.c.c.z.l.x.v.c.c.c.c.x.c.c.c.c.c.c.c.v.x.0.e.4.8 OXwXwXwXwXwXwXwXwXwXwXwXwXwXwXwXwXwXwXwXwXwXwXwX",
"wXwXwX! ` }.x.K ,.4 % !.|.[.l.,.z.c.c.c.c.c.2.2.z.v.c.c.c.c.c.c.c.c.c.x.c.v.v.x.c.p.<.8 OXwXwXwXwXwXwXwXwXwXwXwXwXwXwXwXwXwXwXwXwXwXwXwX",
"wXwXwXT _ }./.3.3 3 8._.[.f.8.<.x.b.c.c.V.v.2.P z.v.c.c.c.c.c.c.c.c.v.^.V.y.l.v.c.p.<.8 OXwXwXwXwXwXwXwXwXwXwXwXwXwXwXwXwXwXwXwXwXwXwXwX",
"wXwXwXo.` _.'.z.N ' /.'.~.# j e.l.c.x.x.x.z.2.2.x.v.x.v.c.c.c.c.c.x.V.[.Q.P s.v.c.p.<.8 *.wXwXwXwXwXwXwXwXwXwXwXwXwXwXwXwXwXwXwXwXwXwXwX",
"wXwXwXwX*XN ~.}.(.].].g.N <.4.e.w.u.u.i.e.1.t.x.x.v.c.c.c.c.c.c.c.x.c.v.c.l.x.v.v.j.<.8 *.wXwXwXwXwXwXwXwXwXwXwXwXwXwXwXwXwXwXwXwXwXwXwX",
"wXwXwXwXwX#.f.!.!.!.f.M + g ( f f f I f h ,.j.v.v.x.x.v.v.c.c.c.c.c.v.V.B.j.x.v.v.p.<.8 *.wXwXwXwXwXwXwXwXwXwXwXwXwXwXwXwXwXwXwXwXwXwXwX",
"wXwXwXwXwXwXOXX X O X @ * * * @ * * X . t 4.k.v.c.c.v.x.c.c.c.c.c.z.V.[.Q.I s.v.c.j.<.8 *.wXwXwXwXwXwXwXwXwXwXwXwXwXwXwXwXwXwXwXwXwXwXwX",
"wXwXwXwXwXwXwXwX;X,X;XD 9 P g g f g g h 3.k.x.x.x.^.(.a.q.c.c.c.c.z.v.|.!.L s.v.c.j.<.8 *.wXwXwXwXwXwXwXwXwXwXwXwXwXwXwXwXwXwXwXwXwXwXwX",
"wXwXwXwXwXwXwXwXwXwXwX..t 6.i.i.i.i.i.u.k.v.v.x.x.^.'.r.2.c.v.c.c.c.v.'.Q.2.k.v.v.j.<.8 *.wXwXwXwXwXwXwXwXwXwXwXwXwXwXwXwXwXwXwXwXwXwXwX",
"wXwXwXwXwXwXwXwXwXwXwX~ r 4.k.c.z.x.v.c.x.v.x.v.c.c.c.c.c.c.c.c.v.x.v.v.v.x.v.v.v.p.>.> *.wXwXwXwXwXwXwXwXwXwXwXwXwXwXwXwXwXwXwXwXwXwXwX",
"wXwXwXwXwXwXwXwXwXwXwX~ q 4.k.v.v.l.t.z.v.x.v.x.c.c.x.t.l.c.c.c.x.c.v.x.s.8.e.k.c.j.,.8 *.wXwXwXwXwXwXwXwXwXwXwXwXwXwXwXwXwXwXwXwXwXwXwX",
"wXwXwXwXwXwXwXwXwXwXwXR q 4.k.v.c.r.L w.v.v.c.c.v.v.z.P 3.z.v.v.v.c.v.v.9.  h u.c.k.<.8 *.wXwXwXwXwXwXwXwXwXwXwXwXwXwXwXwXwXwXwXwXwXwXwX",
"wXwXwXwXwXwXwXwXwXwXwXT q 7.z.b.b.8.> 1.h.v.v.v.v.v.x.y t e.l.v.v.v.v.v.9.X g i.c.k.<.8 @.wXwXwXwXwXwXwXwXwXwXwXwXwXwXwXwXwXwXwXwXwXwXwX",
"wXwXwXwXwXwXwXwXwXwXwX&X] f 0.l.z.) . >.u.k.k.k.k.z.w.e 0 6.p.k.k.j.k.z.8.@ g u.k.4.s $.wXwXwXwXwXwXwXwXwXwXwXwXwXwXwXwXwXwXwXwXwXwXwXwX",
"wXwXwXwXwXwXwXwXwXwXwXwX1X% f 7.7.s * <.4.4.4.4.4.4.<.> u 7.4.4.4.4.4.7.s @ B u.7.d D wXwXwXwXwXwXwXwXwXwXwXwXwXwXwXwXwXwXwXwXwXwXwXwXwX",
"wXwXwXwXwXwXwXwXwXwXwXwXwX3X] t r > . 8 q 9 r r r u q # : r r q t q 9 q : . 9 u q &.wXwXwXwXwXwXwXwXwXwXwXwXwXwXwXwXwXwXwXwXwXwXwXwXwXwX",
"wXwXwXwXwXwXwXwXwXwXwXwXwXwX&XD o : u 9 9 9 # . T ..~ o.X.....T . : 9 9 q r = o T wXwXwXwXwXwXwXwXwXwXwXwXwXwXwXwXwXwXwXwXwXwXwXwXwXwXwX",
"wXwXwXwXwXwXwXwXwXwXwXwXwXwXwX3X% d 6.5.4.7.u D 6XwXwXwXwXwXwX1Xo s 6.4.5.5.r R wXwXwXwXwXwXwXwXwXwXwXwXwXwXwXwXwXwXwXwXwXwXwXwXwXwXwXwX",
"wXwXwXwXwXwXwXwXwXwXwXwXwXwXwXwX,X+.s s s s N.1XwXwXwXwXwXwXwXwX;X+.s s s s N.wXwXwXwXwXwXwXwXwXwXwXwXwXwXwXwXwXwXwXwXwXwXwXwXwXwXwXwXwX",
"wXwXwXwXwXwXwXwXwXwXwXwXwXwXwXwXwX>X% A A D 2XwXwXwXwXwXwXwXwXwXwX&X% A S D wXwXwXwXwXwXwXwXwXwXwXwXwXwXwXwXwXwXwXwXwXwXwXwXwXwXwXwXwXwX",
"wXwXwXwXwXwXwXwXwXwXwXwXwXwXwXwXwXwXwXwXwXqXwXwXwXwXwXwXwXwXwXwXwXwXwXwXwXwXwXwXwXwXwXwXwXwXwXwXwXwXwXwXwXwXwXwXwXwXwXwXwXwXwXwXwXwXwXwX",
"wXwXwXwXwXwXwXwXwXwXwXwXwXwXwXwXwXwXwXwXwXwXwXwXwXwXwXwXwXwXwXwXwXwXwXwXwXwXwXwXwXwXwXwXwXwXwXwXwXwXwXwXwXwXwXwXwXwXwXwXwXwXwXwXwXwXwXwX",
"wXwXwXwXwXwXwXwXwXwXwXwXwXwXwXwXwXwXwXwXwXwXwXwXwXwXwXwXwXwXwXwXwXwXwXwXwXwXwXwXwXwXwXwXwXwXwXwXwXwXwXwXwXwXwXwXwXwXwXwXwXwXwXwXwXwXwXwX",
"wXwXwXwXwXwXwXwXwXwXwXwXwXwXwXwXwXwXwXwXwXwXwXwXwXwXwXwXwXwXwXwXwXwXwXwXwXwXwXwXwXwXwXwXwXwXwXwXwXwXwXwXwXwXwXwXwXwXwXwXwXwXwXwXwXwXwXwX",
"wXwXwXwXwXwXwXwXwXwXwXwXwXwXwXwXwXwXwXwXwXwXwXwXwXwXwXwXwXwXwXwXwXwXwXwXwXwXwXwXwXwXwXwXwXwXwXwXwXwXwXwXwXwXwXwXwXwXwXwXwXwXwXwXwXwXwXwX",
"wXwXwXwXwXwXwXwXwXwXwXwXwXwXwXwXwXwXwXwXwXwXwXwXwXwXwXwXwXwXwXwXwXwXwXwXwXwXwXwXwXwXwXwXwXwXwXwXwXwXwXwXwXwXwXwXwXwXwXwXwXwXwXwXwXwXwXwX",
"wXwXwXwXwXwXwXwXwXwXwXwXwXwXwXwXwXwXwXwXwXwXwXwXwXwXwXwXwXwXwXwXwXwXwXwXwXwXwXwXwXwXwXwXwXwXwXwXwXwXwXwXwXwXwXwXwXwXwXwXwXwXwXwXwXwXwXwX",
"wXwXwXwXwXwXwXwXwXwXwXwXwXwXwXwXwXwXwXwXwXwXwXwXwXwXwXwXwXwXwXwXwXwXwXwXwXwXwXwXwXwXwXwXwXwXwXwXwXwXwXwXwXwXwXwXwXwXwXwXwXwXwXwXwXwXwXwX",
"wXwXwXwXwXwXwXwXwXwXwXwXwXwXwXwXwXwXwXwXwXwXwXwXwXwXwXwXwXwXwXwXwXwXwXwXwXwXwXwXwXwXwXwXwXwXwXwXwXwXwXwXwXwXwXwXwXwXwXwXwXwXwXwXwXwXwXwX",
"wXwXwXwXwXwXwXwXwXwXwXwXwXwXwXwXwXwXwXwXwXwXwXwXwXwXwXwXwXwXwXwXwXwXwXwXwXwXwXwXwXwXwXwXwXwXwXwXwXwXwXwXwXwXwXwXwXwXwXwXwXwXwXwXwXwXwXwX",
"wXwXwXwXwXwXwXwXwXwXwXwXwXwXwXwXwXwXwXwXwXwXwXwXwXwXwXwXwXwXwXwXwXwXwXwXwXwXwXwXwXwXwXwXwXwXwXwXwXwXwXwXwXwXwXwXwXwXwXwXwXwXwXwXwXwXwXwX"
};