/* XPM */
static char *result[] = {
/* columns rows colors chars-per-pixel */
"59 55 43 1 ",
"  c #543415",
". c #583715",
"X c #553815",
"o c #5A3D16",
"O c #5C3F19",
"+ c #5C4217",
"@ c #5E4419",
"# c #565313",
"$ c #585213",
"% c #555916",
"& c #5A5E17",
"* c #595D18",
"= c #604619",
"- c #654B1A",
"; c #684D19",
": c #655B19",
"> c #685E1B",
", c #5D6017",
"< c #5F6218",
"1 c #616417",
"2 c #626518",
"3 c #676A1A",
"4 c #6B6D1B",
"5 c #766915",
"6 c #6D701B",
"7 c #74751D",
"8 c #7F731E",
"9 c #77781E",
"0 c #6F6F21",
"q c #6F7021",
"w c #767522",
"e c #787721",
"r c #7D7C22",
"t c #7A7A28",
"y c #80741E",
"u c #807F23",
"i c #838223",
"p c #87842B",
"a c #89862C",
"s c #878430",
"d c #8B8633",
"f c #8E8833",
"g c None",
/* pixels */
"ggggggggggggggggggggggggggggggggggggggggggggggggggggggggggg",
"ggggggggggggggggggggggggggggggggggggggggggggggggggggggggggg",
"ggggggggggggggggggggggggggggggggggggggggggggggggggggggggggg",
"ggggggggggggggggggggggggggg------gggggggggggggggggggggggggg",
"ggggggggggggggggggggggggggg------gggggggggggggggggggggggggg",
"ggggggggggggggggggggggggg--dffdfd--gggggggggggggggggggggggg",
"ggggggggggggggggggggggggg--ffffdf--gggggggggggggggggggggggg",
"ggggggggggggggggg-;-;;;gg;-ffdfdd--gg----gggggggggggggggggg",
"ggggggggggggggggg;;;;;;gg;;fffffd--gg----gggggggggggggggggg",
"ggggggggggggggg-;ffffff;-piffffuuii--teww=-gggggggggggggggg",
"ggggggggggggggg;-ffffff>-iiffffuiii--wwww--gggggggggggggggg",
"ggggggggggggggg;;ffffffipiiiiiiiiiiewwtwwww=-gggggggggggggg",
"ggggggggggggggg-;ffffffiiiiiiiiiiiieeeewwww-=gggggggggggggg",
"ggggggggg----;;iiiiiiiiiaiiiiiiiiiieteeewww--gggggggggggggg",
"ggggggggg---;-;iiiiiiiiiiipiiiiiiiieeeewwww=-gggggggggggggg",
"ggggggg--dfdfffffaaaa99iiffffffiiiiiieeew:>>>@--===gggggggg",
"ggggggg--fddfffffaaaa97iiffffffiiiiiieeee>>:>@@@==@gggggggg",
"ggggggg--dffdffffaaaa7779ffffffffiiii77>>>:::666044@@gggggg",
"ggggggg--dfdffdffaaaa7777ffffffffiiii77>2:>::6q3440@@gggggg",
"ggggggggg-;fdffpaia77777798ffffffii97777777:1q64044==gggggg",
"ggggggggg--ffffpiaa87799779ffffffii99777777::666360@@gggggg",
"ggggggggggg;-iipa5555aaaa779rffff999997uiyuu9::6q@@gggggggg",
"ggggggggggg--iipi5555aaaa7999ffff999987uiuuui::66=@gggggggg",
"ggggggg----iuiiii55iiaaaaaa99999e79w7ddfaddri66@@gggggggggg",
"ggggggg----iiiiii55iiaaaaaa99999w8ww8dfsddsuu66=-gggggggggg",
"ggggg--sppsssdfiiiiiiaadaaayy888ywww7ddddpd775444@=@@gggggg",
"ggggg--spspppffiiiiiiapaaaayyy88ywtu7ddddds644644@=@@gggggg",
"ggggg=-sdddfffdiiiiffffiiyyy8888yddffdfdu776746464444@@gggg",
"ggggg=-dddddfffiiiiffffii8888888uufuffsfd005664444433@@gggg",
"ggggg-=sddddd6w67ffffffuiiiii88ffdffsuuruuuuu66444444%%@@gg",
"ggggg--sfddfd66w6fdfffdiiiiii88ddfddduuuuuurr44444434%%@@gg",
"ggggggg-$eetr666qffff34iiiuiiiiddsfdduurururu444444%%#%@@gg",
"ggggggg--wetr6666dddf43uiuiiiiiddfddduuuururr444334%%#%@+gg",
"ggggg==eetretsffddd4434ffdfdduuiiuuruuusssatr44::::%%+@gggg",
"ggggg-=werrtrssfddd4344fdddfduiiiiuuuuussssut34:&&%%%@@gggg",
"ggg==33weeeerdssadd3333sdddds76urru44ssssss4404%%%%++gggggg",
"ggg==03weeeeesddddd3333fddfsd66uuuy66assspa4444*%%%+@gggggg",
"ggg=@33333433dsss743333addd66q6766666dsss444443%%%%%%++gggg",
"ggg@@33333433sfsa443333asds6666667446psss444444%%%%%%++gggg",
"ggg@@qqww33222<666666466666>>66664466**%*4444%%%%#%%%#%+@gg",
"ggg@@0000331111446666666666&:66466664%%#%4034#%%%%%%#%%++gg",
"ggg@+000033<144444666666666,,*,664444$$$$%%%%%%*&&&&&&&++gg",
"ggg@+q0w0331244447666666646,,,,664446$$$$%%%%%%*&&&&&&&++gg",
"ggggg++@@<<<2tttttt&&4444*%,%%*4644#$#$$$%%%%%%&&&&&&++gggg",
"ggggg++@@<:22tttttt<*4444***&**4444###$##*%%%#%*&&&<*++gggg",
"ggggggggg@@tttttttt&&::::****%%::##$##$122,%%%%*&&&oOgggggg",
"ggggggggg@Otttttttt&<:*;:****%%::#$$#$#222,%%%%*&&*OOgggggg",
"gggggggggOOttttttO@*********&%%XX%%#%232220..o.oooOgggggggg",
"gggggggggOOtttttto+&&&*****%*%*XX%%%%222220Xo.ooooOgggggggg",
"gggggggggggooooooggoo****%%.XXXgg. %%1322  gggggggggggggggg",
"gggggggggggOoo+ooggo.****%%..XXgg  %%,122XXgggggggggggggggg",
"ggggggggggggggggggggg......gggggggg     Xgggggggggggggggggg",
"ggggggggggggggggggggg.o....gggggggg      gggggggggggggggggg",
"ggggggggggggggggggggggggggggggggggggggggggggggggggggggggggg",
"ggggggggggggggggggggggggggggggggggggggggggggggggggggggggggg"
};