/* XPM */
static char *result[] = {
/* columns rows colors chars-per-pixel */
"52 51 55 1 ",
"  c #211F2E",
". c #211E2F",
"X c #201F2F",
"o c #211F2F",
"O c #221E2F",
"+ c #221F2F",
"@ c #201F30",
"# c #211F30",
"$ c #21202F",
"% c #0F5F2B",
"& c #135F2C",
"* c #185F2C",
"= c #1A5F2C",
"- c #255E2E",
"; c #295E2F",
": c #066029",
"> c #08602A",
", c #8F294D",
"< c #BF3B4C",
"1 c #BC3E4C",
"2 c #C4374A",
"3 c #C2394B",
"4 c #D35550",
"5 c #27860F",
"6 c #298610",
"7 c #2D8514",
"8 c #2E8515",
"9 c #2E8615",
"0 c #328518",
"q c #38851E",
"w c #3A8420",
"e c #3E8523",
"r c #72A11C",
"t c #72A01D",
"y c #73A11E",
"u c #418426",
"i c #438427",
"p c #458429",
"a c #7A9F31",
"s c #7A9F32",
"d c #7A9F35",
"f c #7B9F36",
"g c #7C9F38",
"h c #73A020",
"j c #75A023",
"k c #75A025",
"l c #76A026",
"z c #77A02A",
"x c #78A02B",
"c c #78A02C",
"v c #79A02F",
"b c #79A030",
"n c #ACCA59",
"m c white",
"M c None",
/* pixels */
"MMMMMMMMMMMMMMMMMMMMMMMMMMMMMMMMMMMMMMMMMMMMMMMMMMMM",
"MMMMMMMMMMMMMMMMMMMMMMMMMMMMMMMMMMMMMMMMMMMMMMMMMMMM",
"MMMMMMMMMMXoooooo@MMMMMMooooo ooo o$MMMMMMooooooMMMM",
"MMMMMMMMMMooooooooMMMMMMooooooooooo$MMMMMMooooooMMMM",
"MMMMMMMMooggggggggooMMooggggggggggggooMMoo444444ooMM",
"MMMMMMMMooggggggggooMMooggggggggggggooMMoo444444ooMM",
"MMMMMMMMoooooooooooooooooooooooooooooooo,,111111ooMM",
"MMMMMMMMoooooooooooooooooooooooooooooooo,,111111ooMM",
"MMMMMMoo444444114411111111441144444411,,oo,,ooooMMMM",
"MMMMMMoo444444114411111111441144444411,,oo,,ooooMMMM",
"MMMMMMoooo,,,,11,,11111111,,11,,,,,,oooooooo,,11ooMM",
"MMMMMMoooo,,,,11,,11111111,,11,,,,,,oooooooo,,11ooMM",
"MMMMMMoo111111111111111111111111111111,,,,oo1144ooMM",
"MMMMMM.#223<11111111111111111111111111,,,,oo1144ooMM",
"MMMMMMX##############ooooooooooooooooooooooo1144ooMM",
"MMMMMMo##################@######oooooooooooo1144ooMM",
"MMMMoopp=:mmmmmmmm::55::mmmmmmmm:*ppppppppoooo44ooMM",
"MMMMoopp-:mmmmmmmm::55::mmmmmmmm::8eppppppoooo44ooMM",
"MMMMooggpw%%%%%%%%99jj99%%%%>:::65rrkzzsggppooooMMMM",
"MMMMooggpp;;;;;;;;ppggpp;;;;;;;;u0rrrrryfgppooOMMMMM",
"MMMMooggggggggggggggggggggggggggggvjrrrragggooMMMMMM",
"MMMMoogggggggggggggggggggggggggggggcyrrtfgggooMMMMMM",
"MMMMoogggg;;;;;;;;;;;;;;;;;;;;;;-&yrrrhsggggooMMMMMM",
"MMMMoogggg;;;;;;;;;;;;;;;;;;;;-&::rrtxggggggooMMMMMM",
"MMMMooggppggggggggggggggggggdlrrrr7qfgggggggooMMMMMM",
"MMMMooggppgggggggggggggggdblrrrrjappggggggggooMMMMMM",
"MMMMooggggggggggppppppppi5rrrrjaggggggggggggooMMMMMM",
"MMMMooggggggggggppppppppi5rrjaggggggggggggggooMMMMMM",
"MMMMMMooppgggggggggggggggdadggggggggggggppooMMMMMMMM",
"MMMMMMooppggggggggggggggggggggggggggggggppooMMMMMMMM",
"MMMMMMMMooppppggggggggggggggggggggggggggooMMMMMMMMMM",
"MMMMMMMMooppppggggggggggggggggggggggggggooMMMMMMMMMM",
"MMMMMMMMMMooooggggggggggggggggooppggggppooMMMMMMMMMM",
"MMMMMMMMMMooooggggggggggggggggooppggggppooMMMMMMMMMM",
"MMMMMMMMMMooggggnnnnnnnnnnnnooggggggggooMMMMMMMMMMMM",
"MMMMMMMMMMooggggnnnnnnnnnnnnooggggggggooMMMMMMMMMMMM",
"MMMMMMMMMMooggnnnnnnnnnnnnnnooppppppppooMMMMMMMMMMMM",
"MMMMMMMMMMooggnnnnnnnnnnnnnnooppppppppooMMMMMMMMMMMM",
"MMMMMMMMMMooggnnnnnnnnnnnnnnnnoooooo;;ooMMMMMMMMMMMM",
"MMMMMMMMMMooggnnnnnnnnnnnnnnnnoooooo;;ooMMMMMMMMMMMM",
"MMMMMMMMMoggggnnnnnnnnnnnnnnnnnnggggggppooMMMMMMMMMM",
"MMMMMMMMooggggnnnnnnnnnnnnnnnnnnggggggppooMMMMMMMMMM",
"MMMMMMooggggggggnnnnnnnnnnnnnnggggggggppooMMMMMMMMMM",
"MMMMMMooggggggggnnnnnnnnnnnnnnggggggggppooMMMMMMMMMM",
"MMMMMMooggggggppooooooooooooooooppggggggppXoMMMMMMMM",
"MMMMMMooggggggppooooooooooooooooppggggggppo.MMMMMMMM",
"MMMMMMooppppppooMMMMMMMMMMMMMMMM$oppppppppooMMMMMMMM",
"MMMMMMooppppppooMMMMMMMMMMMMMMMMXopppppppp.$MMMMMMMM",
"MMMMMMMMooooo MMMMMMMMMMMMMMMMMMMM oooooooMMMMMMMMMM",
"MMMMMMMMooooo MMMMMMMMMMMMMMMMMMMM+oooooo MMMMMMMMMM",
"MMMMMMMMMMMMMMMMMMMMMMMMMMMMMMMMMMMMMMMMMMMMMMMMMMMM"
};