/* XPM */
static char *result[] = {
/* columns rows colors chars-per-pixel */
"58 58 57 1 ",
"  c #211F2E",
". c #211E2F",
"X c #211F2F",
"o c #221F2F",
"O c #201F30",
"+ c #211F30",
"@ c #21202F",
"# c #085F2A",
"$ c #0D5F2A",
"% c #0F5F2B",
"& c #155F2B",
"* c #145F2C",
"= c #175F2C",
"- c #1A5F2C",
"; c #1C5F2C",
": c #1E5F2D",
"> c #215E2D",
", c #265E2F",
"< c #295E2F",
"1 c #066029",
"2 c #08602A",
"3 c #8F294D",
"4 c #8F284E",
"5 c #BC3E4C",
"6 c #BC3E4D",
"7 c #C4374A",
"8 c #C13A4A",
"9 c #D35550",
"0 c #27860F",
"q c #298610",
"w c #2B8612",
"e c #2E8515",
"r c #2E8615",
"t c #308517",
"y c #318517",
"u c #36851C",
"i c #38851E",
"p c #3E8523",
"a c #3F8424",
"s c #72A11C",
"d c #72A01D",
"f c #74A11F",
"g c #458429",
"h c #7A9F31",
"j c #7A9F35",
"k c #7B9F36",
"l c #7C9F38",
"z c #73A020",
"x c #75A023",
"c c #75A024",
"v c #75A025",
"b c #77A02A",
"n c #78A02E",
"m c #ACCA59",
"M c #ECECEC",
"N c white",
"B c None",
/* pixels */
"BBBBBBBBBBBBBBBBBBBBBBBBBBBBBBBBBBBBBBBBBBBBBBBBBBBBBBBBBB",
"BBBBBBBBBBBBBBBBBBBBBBBBBBBBBBBBBBBBBBBBBBBBBBBBBBBBBBBBBB",
"BBBBBBBBBBBBBBBBBBBBBBBBBBBBBBBBBBBBBBBBBBBBBBBBBBBBBBBBBB",
"BBBBBBBBBBBBBBBBBBBBBBBBBBBBBBBBBBBBBBBBBBBBBBBBBBBBBBBBBB",
"BBBBBBBBBBBBBBBBBBBBBBBBBBBBBBBBBBBBBBBBBBBBBBBBBBBBBBBBBB",
"BBBBBBBBBBBBBBBBBBBBBBBBBBBBBBBBBBBBBBBBBBBBBBBBBBBBBBBBBB",
"BBBBBBBBBBOXXXXXXXXXBBBBBBXo.XX@X X@OO@oBBBBBBXXXXXXBBBBBB",
"BBBBBBBBBBXXXXXXXXXXBBBBBBXXXXXXXXXXXXXXBBBBBBXXXXXXBBBBBB",
"BBBBBBBBXXllllllllllXXBBXXllllllllllllllXXBBXX999999XXBBBB",
"BBBBBBBBXXllllllllllXXBBXXllllllllllllllXXBBXX999999XXBBBB",
"BBBBBBBBXXXXXXXXXXXXXXXXXXXXXXXXXXXXXXXXXX X43555555XXBBBB",
"BBBBBBBBXXXXXXXXXXXXXXXXXXXXXXXXXXXXXXXXXXXX33555556XXBBBB",
"BBBBBB@X999999559955555555555599559999995533XX33XXXXBBBBBB",
"BBBBBBOX999999559955555555555599559999995533XX33XXXXBBBBBB",
"BBBBBBXXXX333355335555555555553355333333XXXXXXXX3355XXBBBB",
"BBBBBBXXXX333355335555555555553355333333XXXXXXXX3355XXBBBB",
"BBBBBBXX55555555555555555555555555555555553333XX5599XXBBBB",
"BBBBBBXX55555555587855555555555555555555553333XX5599XXBBBB",
"BBBBBBXXXXX++++XX+++XXXXXXXXXXXXXXXXXXXXXXXXXXXX5599XXBBBB",
"BBBBBBXXX+++++++++++++++++++XXX+++++++XXXXXXXXXX5599XXBBBB",
"BBBB@Xgg<#NNNNNNNNNN110011NNNNNNNNNN11weeeeeeyXXXX99XXBBBB",
"BBBBXXgg<*NNNNNNNNNN110011NNNNNNNNNN1100000000+XXX99XXBBBB",
"BBBBXXllgt111111111100ss00111%&;&11100ssssssssqgXXXXBBBBBB",
"BBBBXXllgp$12%%&=:>,ggllgg<<<<<<,-==uihhvsssszagXXXXBBBBBB",
"BBBBXXlllllllllllllllllllllllllllllllllnssszhlllXXBBBBBBBB",
"BBBBOXlllllllllllllllllllllllllllllllllfssckllllXXBBBBBBBB",
"BBBB@Xllll<<<<<<<<<<<<<<<<<<<<<<<<<<<<lsszllllllXXBBBBBBBB",
"BBBBXXllll<<<<<<<<<<<<<<<<<<<<<<<<<<<<lssxllllllXXBBBBBBBB",
"BBBBoXllggllllllllllllllllllllllllllllg0sxllllllXXBBBBBBBB",
"BBBBoXllggllllllllllllllllllllllllllllg0sxllllllXXBBBBBBBB",
"BBBBXXllllllllllgggggggggggggglllllllllssxllllllXXBBBBBBBB",
"BBBBXollllllllllgggggggggggggglllllllllssxllllllXXBBBBBBBB",
"BBBBBBXXgglllllllllllllllllllllllllllllssxllggXXBBBBBBBBBB",
"BBBBBBXXgglllllllllllllllllllllllllllllssxllggXXBBBBBBBBBB",
"BBBBBBBBXXggggllllllllllllllllllllllllls0rggXXBBBBBBBBBBBB",
"BBBBBBBBXXggggllllllllllllllllllllllllls0rggXXBBBBBBBBBBBB",
"BBBBBBBBXXXXXXllllllllllllllllllllllllls++XXXXBBBBBBBBBBBB",
"BBBBBBBBXXXXXXllllllllllllllllllllllllld++XXXXBBBBBBBBBBBB",
"BBBBBBXXggXXllllmmmmmmmmmmmmmmmmmmlllllhbjllllXXBBBBBBBBBB",
"BBBBBBXXggXXllllmmmmmmmmmmmmmmmmmmllllllllllllXXBBBBBBBBBB",
"BBBBXXggggXXllmmmmmmmmmmmmmmmmmmmmmmllXXggllllggXXBBBBBBBB",
"BBBBXXggggXXllmmmmmmmmmmmmmmmmmmmmmmllXXggllllggXXBBBBBBBB",
"BBBBXXggggXXllmmmmmmmmmmmmmmmmmmmmmmllllXXggggggXXBBBBBBBB",
"BBBBoXggggXXllmmmmmmmmmmmmmmmmmmmmmmllllXXggggggXXBBBBBBBB",
"BBBBBBXXXXXXllllmmmmmmmmmmmmmmmmmmllllllggXXXXXXBBBBBBBBBB",
"BBBBBBoXXXXXllllmmmmmmmmmmmmmmmmmmllllllggXXXXXXBBBBBBBBBB",
"BBBBBBBBBBXXllllXXXXXXXXXXXXXXXXXXllllllggXXBBBBBBBBBBBBBB",
"BBBBBBBBBBXXllllXXXXXXXXXXXXXXXXXXllllllggXXBBBBBBBBBBBBBB",
"BBBBBBBBBBXXggllggXXBBBBBBBBBBBB@XllllggXXMBBBBBBBBBBBBBBB",
"BBBBBBBBBBXXggllggXXBBBBBBBBBBBB XllllggXXBBBBBBBBBBBBBBBB",
"BBBBBBBBBBBBXXggggXXBBBBBBBBBBBBBBXXXXXXBBBBBBBBBBBBBBBBBB",
"BBBBBBBBBBBBXXggggXXBBBBBBBBBBBBBBXXXXXXBBBBBBBBBBBBBBBBBB",
"BBBBBBBBBBBBBBXXXXXXBBBBBBBBBBBBBBBBBBBBBBBBBBBBBBBBBBBBBB",
"BBBBBBBBBBBBBBXXXXXXBBBBBBBBBBBBBBBBBBBBBBBBBBBBBBBBBBBBBB",
"BBBBBBBBBBBBBBBBBBBBBBBBBBBBBBBBBBBBBBBBBBBBBBBBBBBBBBBBBB",
"BBBBBBBBBBBBBBBBBBBBBBBBBBBBBBBBBBBBBBBBBBBBBBBBBBBBBBBBBB",
"BBBBBBBBBBBBBBBBBBBBBBBBBBBBBBBBBBBBBBBBBBBBBBBBBBBBBBBBBB",
"BBBBBBBBBBBBBBBBBBBBBBBBBBBBBBBBBBBBBBBBBBBBBBBBBBBBBBBBBB"
};