/* XPM */
static char *result[] = {
/* columns rows colors chars-per-pixel */
"63 62 31 1 ",
"  c #211E30",
". c #201F30",
"X c #211F30",
"o c #211E31",
"O c #201F31",
"+ c #211F31",
"@ c #221F30",
"# c #212030",
"$ c #212031",
"% c #066029",
"& c #076029",
"* c #9C1B4D",
"= c #9B1C4D",
"- c #CC3048",
"; c #CD3048",
": c #E44949",
"> c #E44A4A",
", c #27860F",
"< c #28860E",
"1 c #268610",
"2 c #278610",
"3 c #72A01C",
"4 c #72A11C",
"5 c #72A11D",
"6 c #73A11D",
"7 c #72A11E",
"8 c #A4CC42",
"9 c #ECECEC",
"0 c gray93",
"q c white",
"w c None",
/* pixels */
"wwwwwwwwwwwwwwwwwwwwwwwwwwwwwwwwwwwwwwwwwwwwwwwwwwwwwwwwwwwwwww",
"wwwwwwwwwwwwwwwwwwwwwwwwwwwwwwwwwwwwwwwwwwwwwwwwwwwwwwwwwwwwwww",
"wwwwwwwwwwwwwwwwwwwwwwwwwwwwwwwwwwwwwwwwwwwwwwwwwwwwwwwwwwwwwww",
"wwwwwwwwwwwwwwwwwwwwwwwwwwwwwwwwwwwwwwwwwwwwwwwwwwwwwwwwwwwwwww",
"wwwwwwwwwwwwwwwwwwwwwwwwwwwwwwwwwwwwwwwwwwwwwwwwwwwwwwwwwwwwwww",
"wwwwwwwwwwwwwwwwwwwwwwwwwwwwwwwwwwwwwwwwwwwwwwwwwwwwwwwwwwwwwww",
"wwwwwwwwwwwwwwwwwwwwwwwwwwwwwwwwwwwwwwwwwwwwwwwwwwwwwwwwwwwwwww",
"wwwwwwwwwwwwwwwwwwwwwwwwwwwwwwwwwwwwwwwwwwwwwwwwwwwwwwwwwwwwwww",
"wwwwwwwwwwwwwwwwwwwwwwwwwwwwwwwwwwwwwwwwwwwwwwwwwwwwwwwwwwwwwww",
"wwwwwwwwwwwwwwww#XXXXXXXwwwwwwXXXXXXXXXXXXwwwwwwXXXXX@wwwwwwwww",
"wwwwwwwwwwwwwwwwXXXXXXXXwwwwwwXXXXXXXXXXXXwwwwwwXXXXXXwwwwwwwww",
"wwwwwwwwwwwwwwXX44444446XXwwXX444444444445XXwwXX>>>>>:X+wwwwwww",
"wwwwwwwwwwwwww+X44444444XXwwXX444444444444XXwwXX>>>>>>XXwwwwwww",
"wwwwwwwwwwwwwwXXXXXXXXXXXXXXXXXXXXXXXXXXXXXXoX=*------XXwwwwwww",
"wwwwwwwwwwwwwwXXXXXXXXXXXXXXXXXXXXXXXXXXXXXXXX**------X@wwwwwww",
"wwwwwwwwwwwwXX:>>>>>-->>-------->>-->>>>>>--**XX**XXXXwwwwwwwww",
"wwwwwwwwwwww#X>>>>>>-->>-------->>-->>>>>>--**XX**XXXXwwwwwwwww",
"wwwwwwwwwwww#XXX****--**--------**--******XXXXXXXX**-;O@wwwwwww",
"wwwwwwwwwwwwXXXX****--**--------**--******XXXXXXXX**--X.wwwwwww",
"wwwwwwwwwwww$X------------------------------****XX-->>X.wwwwwww",
"wwwwwwwwwwww.X------------------------------****XX-->>X.wwwwwww",
"wwwwwwwwwwww@XXXXXXXXXXXXXXXXXXXXXXXXXXXXXXXXXXXXX-->>X.wwwwwww",
"wwwwwwwwwwwwXXXO XXXXXXXXXXXXXXXXXXXXXXXXXXXXXXXXX-->>XXwwwwwww",
"wwwwwwwwwwXX2,%&qqqqqqqq%%,,%%qqqqqqqq%%,,,,,,,,XXXX>>X.wwwwwww",
"wwwwwwwwww$X,,%%qqqqqqqq%%,,%%qqqqqqqq%%,,,,,,,,XXXX>:$Xwwwwwww",
"wwwwwwwwww+X44,,%%%%%%%%,,44,,%%%%%%%%,,44444444,,XXXXwwwwwwwww",
"wwwwwwwwww+X44,,%%%%%%%%,,44,,%%%%%%%%,,44444444,,XXX+wwwwwwwww",
"wwwwwwwwww+X44444444444444444444444444444444444444XXwwwwwwwwwww",
"wwwwwwwwww$X44444444444444444444444444444444444444XXwwwwwwwwwww",
"wwwwwwwwwwXX4444%%%%%%%%%%%%%%%%%%%%%%%%4444444444X@wwwwwwwwwww",
"wwwwwwwwww.X4444%%%%%%%%%%%%%%%%%%%%%%%%4444444444X+wwwwwwwwwww",
"wwwwwwwwwwXX44,,444444444444444444444444,,44444444XXwwwwwwwwwww",
"wwwwwwwwwwXX44,,444444444444444444444444,,44444444X wwwwwwwwwww",
"wwwwwwwwwwXX4444444444,,,,,,,,,,444444444444444444XXwwwwwwwwwww",
"wwwwwwwwwwX+7444444444,,,,,,,,,,444444444444444444+#wwwwwwwwwww",
"wwwwwwwwwwww@X,,444444444444444444444444444444,,XXwwwwwwwwwwwww",
"wwwwwwwwwwwwX+,,444444444444444444444444444444,1++wwwwwwwwwwwww",
"wwwwwwwwwwwwwwXX,,,,444444444444444444444444,,X.wwwwwwwwwwwwwww",
"wwwwwwwwwwwwwwXX,,,,444444444444444444444444,,XXwwwwwwwwwwwwwww",
"wwwwwwwwwwwwwww9XXXX444444444444444444,,444444XXwwwwwwwwwwwwwww",
"wwwwwwwwwwwwwwwwXXXX444444444444444444,,444444XXwwwwwwwwwwwwwww",
"wwwwwwwwwwwwwwwwXX44448888888888888844XX444444XXwwwwwwwwwwwwwww",
"wwwwwwwwwwwwwwwwXX44448888888888888844XX444444XXwwwwwwwwwwwwwww",
"wwwwwwwwwwwwwwwwXX44888888888888888888XX,,,,,,XXwwwwwwwwwwwwwww",
"wwwwwwwwwwwwwwwwXX43888888888888888888XX,,,,,,XXwwwwwwwwwwwwwww",
"wwwwwwwwwwwwwwwwXX4488888888888888888844XXXXXXwwwwwwwwwwwwwwwww",
"wwwwwwwwwwwwwwwwXX4488888888888888888844XXXXXXwwwwwwwwwwwwwwwww",
"wwwwwwwwwwwwwwwwXX448888888888888888884444,,XXwwwwwwwwwwwwwwwww",
"wwwwwwwwwwwwwwwwXX448888888888888888884444,,XXwwwwwwwwwwwwwwwww",
"wwwwwwwwwwwwwwXX4444448888888888888844444444,,X@wwwwwwwwwwwwwww",
"wwwwwwwwwwwwwwXX4444448888888888888844444444,,XXwwwwwwwwwwwwwww",
"wwwwwwwwwwwwwwXX444444XXXXXXXXXXXXXXXX444444,,X$wwwwwwwwwwwwwww",
"wwwwwwwwwwwwww@X444444XXXXXXXXXXXXXXXX444444,,XXwwwwwwwwwwwwwww",
"wwwwwwwwwwwwww.X,,,,,,XXwwwwwwwwww09XX,,,,,,,,X.wwwwwwwwwwwwwww",
"wwwwwwwwwwwwww+@<,,,,,XXwwwwwwwwwwwwXX,,,,,,,1.wwwwwwwwwwwwwwww",
"wwwwwwwwwwwwwwww.XXXXXwwwwwwwwwwwwwwwwXXXXXXXXwwwwwwwwwwwwwwwww",
"wwwwwwwwwwwwwwww+X@@O$wwwwwwwwwwwwwwwwXX+XX.Xwwwwwwwwwwwwwwwwww",
"wwwwwwwwwwwwwwwwwwwwwwwwwwwwwwwwwwwwwwwwwwwwwwwwwwwwwwwwwwwwwww",
"wwwwwwwwwwwwwwwwwwwwwwwwwwwwwwwwwwwwwwwwwwwwwwwwwwwwwwwwwwwwwww",
"wwwwwwwwwwwwwwwwwwwwwwwwwwwwwwwwwwwwwwwwwwwwwwwwwwwwwwwwwwwwwww",
"wwwwwwwwwwwwwwwwwwwwwwwwwwwwwwwwwwwwwwwwwwwwwwwwwwwwwwwwwwwwwww",
"wwwwwwwwwwwwwwwwwwwwwwwwwwwwwwwwwwwwwwwwwwwwwwwwwwwwwwwwwwwwwww"
};